<svg width="332" height="90" viewBox="0 0 332 90" fill="none" xmlns="http://www.w3.org/2000/svg">
<path fill-rule="evenodd" clip-rule="evenodd" d="M83.314 71.3679C81.2856 72.5734 79.8587 73.3248 79.3114 73.604L77.7248 70.9741L77.6465 70.8174C77.7078 70.7883 79.1748 70.0449 81.5467 68.6235L77.9417 63.0222C77.8335 63.0726 77.7262 63.1234 77.6191 63.1741L77.6189 63.1741L77.6187 63.1742L77.6185 63.1743C77.3887 63.283 77.1593 63.3915 76.9225 63.4963C75.4363 64.2236 73.9602 64.8946 72.5594 65.4793C71.6577 65.857 70.7319 66.2307 69.8392 66.5853C69.1031 66.8836 68.3098 67.195 67.4924 67.5085C59.2302 70.7762 51.208 73.0214 43.6577 74.1746L43.4207 74.2148L40.9645 74.5403C32.2063 75.581 24.8839 74.9421 20.2507 72.8416C18.5919 72.2148 17.0917 71.4342 15.8304 70.5442C12.3611 68.0881 9.15578 61.877 9.81652 53.5342C10.4532 45.5049 15.1657 30.2408 39.5868 18.2134C39.865 18.0768 67.9062 5.41651 76.5128 19.4942C76.6604 19.7363 77.9216 21.9624 76.7287 25.5757C75.2807 29.9626 69.9948 36.6328 53.0366 43.4948L51.6157 44.0694L58.7241 20.3883L46.0657 23.8268L30.5795 71.6361C34.3391 71.825 38.66 71.5779 43.1767 70.9199L47.8792 56.8834L48.3883 56.8643C48.4767 56.8613 57.2711 56.4384 69.8924 47.7792L71.6798 46.5526L65.7231 64.8082C70.5129 62.9498 75.354 60.7328 80.1398 58.2024C82.3881 50.7446 87.4863 33.807 88.4553 30.3724C90.9968 21.3617 89.3259 16.4997 87.8488 13.6277C85.8937 9.82546 80.3246 4.40995 71.0652 1.65449C67.8931 0.711218 63.9698 0 59.3527 0C51.3194 0 41.1804 2.15073 29.2169 8.96054C15.24 16.9155 4.79773 29.5849 1.28417 42.8499C-1.2925 52.5749 0.023953 62.2356 5.09295 70.7863C15.4719 88.2925 43.1466 100.426 87.0093 77.1089L83.314 71.3679ZM101.399 53.5104C101.281 53.6268 101.162 53.7431 101.043 53.8551L97.3037 50.52C99.4095 48.6987 100.973 47.1548 101.94 46.1472C102.08 48.6154 101.969 50.9771 101.679 53.2383C101.586 53.3276 101.492 53.419 101.399 53.5104ZM90.018 56.1438L93.636 60.2444C92.4451 61.1857 91.2873 62.0636 90.1697 62.8813L86.6431 58.3418C87.824 57.6105 88.9556 56.8751 90.018 56.1438ZM99.003 55.7337L95.161 52.3082C94.2714 53.0274 93.3074 53.7708 92.2761 54.5312L95.7846 58.5072C96.844 57.6283 97.9185 56.7041 99.003 55.7337ZM87.9232 64.4891C86.4641 65.5057 85.1125 66.3977 83.8955 67.1722L80.4462 61.815C81.7667 61.148 83.0399 60.4659 84.255 59.7687L87.9232 64.4891ZM85.6683 69.9246C86.9607 69.1089 88.3946 68.1676 89.944 67.0898L93.5168 71.6866C92.1883 73.1884 90.7715 74.4923 89.3104 75.5832L85.6683 69.9246ZM97.9646 60.9772L99.2489 62.4328C99.7409 61.2444 100.188 60.0149 100.559 58.728L100.497 58.7829L100.497 58.7831C99.6481 59.5333 98.7987 60.284 97.9646 60.9772ZM95.8217 62.7208L97.9856 65.1729C97.1783 66.7219 96.2716 68.1544 95.2975 69.4804L92.1917 65.4833C93.3625 64.6274 94.5745 63.7093 95.8217 62.7208Z" fill="#ED7700"/>
<path fill-rule="evenodd" clip-rule="evenodd" d="M222.116 76.9366C222.054 76.6878 221.97 76.4579 221.863 76.251C221.757 76.041 221.618 75.8615 221.45 75.7082C221.282 75.556 221.086 75.4373 220.86 75.3533C220.635 75.2694 220.373 75.2263 220.075 75.2263C219.639 75.2263 219.263 75.3208 218.946 75.5045C218.629 75.6893 218.372 75.935 218.173 76.2447C217.974 76.5524 217.827 76.9051 217.731 77.2967C217.636 77.6905 217.588 78.0926 217.588 78.501C217.588 78.9084 217.636 79.3105 217.731 79.7042C217.827 80.0979 217.974 80.4486 218.173 80.7583C218.372 81.0649 218.629 81.3116 218.946 81.4964C219.263 81.6822 219.639 81.7736 220.075 81.7736C220.396 81.7736 220.679 81.7158 220.924 81.5993C221.168 81.4817 221.378 81.3221 221.554 81.1174C221.729 80.9116 221.866 80.6754 221.967 80.4013C222.065 80.1284 222.131 79.8375 222.161 79.5236H223.559C223.528 80.037 223.424 80.5063 223.244 80.9326C223.064 81.3568 222.822 81.7232 222.516 82.0329C222.211 82.3416 221.851 82.5789 221.439 82.7479C221.026 82.9159 220.572 82.9999 220.075 82.9999C219.464 82.9999 218.915 82.8823 218.43 82.645C217.945 82.4088 217.535 82.0875 217.197 81.6791C216.861 81.2686 216.602 80.7909 216.424 80.2439C216.244 79.7 216.154 79.1183 216.154 78.501C216.154 77.8899 216.244 77.3114 216.424 76.7676C216.602 76.2206 216.861 75.745 217.197 75.3365C217.535 74.9271 217.945 74.6016 218.43 74.3612C218.915 74.1197 219.464 74 220.075 74C220.534 74 220.966 74.0672 221.37 74.1984C221.775 74.3318 222.133 74.5229 222.442 74.7759C222.752 75.0289 223.002 75.3365 223.193 75.6956C223.384 76.0568 223.503 76.4705 223.549 76.9366H222.116ZM186.152 75.5046C186.469 75.3209 186.845 75.2264 187.281 75.2264C187.717 75.2264 188.093 75.3209 188.411 75.5046C188.728 75.6884 188.985 75.9351 189.184 76.2448C189.383 76.5525 189.53 76.9052 189.625 77.2968C189.721 77.6906 189.768 78.0916 189.768 78.5011C189.768 78.9085 189.721 79.3106 189.625 79.7043C189.53 80.098 189.383 80.4487 189.184 80.7584C188.985 81.065 188.728 81.3117 188.411 81.4965C188.093 81.6813 187.717 81.7737 187.281 81.7737C186.845 81.7737 186.469 81.6813 186.152 81.4965C185.836 81.3117 185.578 81.065 185.38 80.7584C185.18 80.4487 185.033 80.098 184.938 79.7043C184.842 79.3106 184.795 78.9085 184.795 78.5011C184.795 78.0916 184.842 77.6906 184.938 77.2968C185.033 76.9052 185.18 76.5525 185.38 76.2448C185.578 75.9351 185.836 75.6884 186.152 75.5046ZM188.927 74.3613C188.44 74.1198 187.893 74.0001 187.281 74.0001C186.671 74.0001 186.122 74.1198 185.636 74.3613C185.151 74.6017 184.741 74.9272 184.404 75.3356C184.069 75.7451 183.81 76.2207 183.632 76.7677C183.451 77.3115 183.362 77.8901 183.362 78.5011C183.362 79.1185 183.451 79.7001 183.632 80.244C183.81 80.791 184.069 81.2687 184.404 81.6792C184.741 82.0876 185.151 82.4089 185.636 82.6451C186.122 82.8824 186.671 83 187.281 83C187.893 83 188.44 82.8824 188.927 82.6451C189.412 82.4089 189.822 82.0876 190.159 81.6792C190.495 81.2687 190.753 80.791 190.932 80.244C191.112 79.7001 191.202 79.1185 191.202 78.5011C191.202 77.8901 191.112 77.3115 190.932 76.7677C190.753 76.2207 190.495 75.7451 190.159 75.3356C189.822 74.9272 189.412 74.6017 188.927 74.3613ZM176.014 81.569H178.547C178.982 81.569 179.321 81.4514 179.561 81.2141C179.802 80.9779 179.922 80.6419 179.922 80.2093C179.922 79.7841 179.802 79.4565 179.561 79.2287C179.321 79.0009 178.982 78.8843 178.547 78.8843H176.014V81.569ZM176.014 77.8019H178.353C178.696 77.8019 178.982 77.7 179.211 77.4963C179.441 77.2905 179.555 76.9976 179.555 76.6102C179.555 76.1776 179.452 75.8721 179.245 75.6957C179.039 75.5193 178.742 75.4311 178.353 75.4311H176.014V77.8019ZM174.581 74.2038H178.559C179.291 74.2038 179.88 74.3802 180.324 74.734C180.766 75.0868 180.989 75.6201 180.989 76.3351C180.989 76.7677 180.887 77.1373 180.684 77.447C180.482 77.7567 180.194 77.9961 179.82 78.1641V78.1872C180.324 78.2995 180.705 78.5504 180.965 78.94C181.225 79.3295 181.355 79.8156 181.355 80.4015C181.355 80.7374 181.298 81.0535 181.183 81.3474C181.069 81.6383 180.888 81.8923 180.644 82.1055C180.4 82.3165 180.086 82.4855 179.704 82.6105C179.323 82.7333 178.868 82.7963 178.34 82.7963H174.581V74.2038ZM163.141 79.3789H165.641L164.413 75.6843H164.379L163.141 79.3789ZM163.646 74.2039H165.17L168.323 82.7964H166.787L166.018 80.5223H162.751L161.984 82.7964H160.505L163.646 74.2039ZM152 74.2042H153.433V77.6217H157.158V74.2042H158.591V82.7967H157.158V78.9225H153.433V82.7967H152V74.2042ZM171.681 82.7965H170.248V74.204H171.681V82.7965ZM199.5 74.2042H206.126V75.504H203.522V82.7967H202.09V75.504H199.5V74.2042ZM214.115 74.2042H208.222V82.7967H214.195V81.4959H209.655V78.9813H213.783V77.755H209.655V75.504H214.115V74.2042ZM227.411 74.2042H225.978V82.7967H227.411V78.9225H231.137V82.7967H232.57V74.2042H231.137V77.6217H227.411V74.2042ZM235.376 74.2042H236.889L240.626 80.5342H240.648V74.2042H242.014V82.7967H240.5L236.775 76.4783H236.74V82.7967H235.376V74.2042ZM247.212 75.5046C247.529 75.3209 247.905 75.2264 248.341 75.2264C248.777 75.2264 249.153 75.3209 249.47 75.5046C249.787 75.6884 250.045 75.9351 250.243 76.2448C250.443 76.5525 250.59 76.9052 250.685 77.2968C250.781 77.6906 250.828 78.0916 250.828 78.5011C250.828 78.9085 250.781 79.3106 250.685 79.7043C250.59 80.098 250.443 80.4487 250.243 80.7584C250.045 81.065 249.787 81.3117 249.47 81.4965C249.153 81.6813 248.777 81.7737 248.341 81.7737C247.905 81.7737 247.529 81.6813 247.212 81.4965C246.895 81.3117 246.638 81.065 246.439 80.7584C246.24 80.4487 246.093 80.098 245.997 79.7043C245.902 79.3106 245.854 78.9085 245.854 78.5011C245.854 78.0916 245.902 77.6906 245.997 77.2968C246.093 76.9052 246.24 76.5525 246.439 76.2448C246.638 75.9351 246.895 75.6884 247.212 75.5046ZM249.987 74.3613C249.5 74.1198 248.952 74.0001 248.341 74.0001C247.73 74.0001 247.182 74.1198 246.696 74.3613C246.211 74.6017 245.801 74.9272 245.464 75.3356C245.128 75.7451 244.869 76.2207 244.691 76.7677C244.511 77.3115 244.421 77.8901 244.421 78.5011C244.421 79.1185 244.511 79.7001 244.691 80.244C244.869 80.791 245.128 81.2687 245.464 81.6792C245.801 82.0876 246.211 82.4089 246.696 82.6451C247.182 82.8824 247.73 83 248.341 83C248.952 83 249.5 82.8824 249.987 82.6451C250.471 82.4089 250.882 82.0876 251.219 81.6792C251.554 81.2687 251.813 80.791 251.991 80.244C252.172 79.7001 252.261 79.1185 252.261 78.5011C252.261 77.8901 252.172 77.3115 251.991 76.7677C251.813 76.2207 251.554 75.7451 251.219 75.3356C250.882 74.9272 250.471 74.6017 249.987 74.3613ZM254.714 74.2042H256.147V81.4959H260.307V82.7967H254.714V74.2042ZM264.508 75.5046C264.825 75.3209 265.201 75.2264 265.637 75.2264C266.073 75.2264 266.449 75.3209 266.767 75.5046C267.084 75.6884 267.341 75.9351 267.54 76.2448C267.739 76.5525 267.886 76.9052 267.982 77.2968C268.077 77.6906 268.125 78.0916 268.125 78.5011C268.125 78.9085 268.077 79.3106 267.982 79.7043C267.886 80.098 267.739 80.4487 267.54 80.7584C267.341 81.065 267.084 81.3117 266.767 81.4965C266.449 81.6813 266.073 81.7737 265.637 81.7737C265.201 81.7737 264.825 81.6813 264.508 81.4965C264.192 81.3117 263.934 81.065 263.736 80.7584C263.536 80.4487 263.389 80.098 263.294 79.7043C263.198 79.3106 263.151 78.9085 263.151 78.5011C263.151 78.0916 263.198 77.6906 263.294 77.2968C263.389 76.9052 263.536 76.5525 263.736 76.2448C263.934 75.9351 264.192 75.6884 264.508 75.5046ZM267.283 74.3613C266.796 74.1198 266.249 74.0001 265.637 74.0001C265.027 74.0001 264.478 74.1198 263.992 74.3613C263.508 74.6017 263.097 74.9272 262.76 75.3356C262.424 75.7451 262.165 76.2207 261.987 76.7677C261.806 77.3115 261.717 77.8901 261.717 78.5011C261.717 79.1185 261.806 79.7001 261.987 80.244C262.165 80.791 262.424 81.2687 262.76 81.6792C263.097 82.0876 263.508 82.4089 263.992 82.6451C264.478 82.8824 265.027 83 265.637 83C266.249 83 266.796 82.8824 267.283 82.6451C267.768 82.4089 268.178 82.0876 268.515 81.6792C268.851 81.2687 269.109 80.791 269.288 80.244C269.468 79.7001 269.558 79.1185 269.558 78.5011C269.558 77.8901 269.468 77.3115 269.288 76.7677C269.109 76.2207 268.851 75.7451 268.515 75.3356C268.178 74.9272 267.768 74.6017 267.283 74.3613ZM279.151 82.7963H278.235L278.017 81.7863C277.634 82.243 277.254 82.559 276.871 82.7354C276.488 82.9118 276.049 83 275.553 83C274.941 83 274.393 82.8824 273.909 82.6451C273.422 82.4089 273.012 82.0876 272.676 81.6792C272.339 81.2687 272.082 80.791 271.902 80.244C271.723 79.7001 271.632 79.1185 271.632 78.5011C271.632 77.8901 271.723 77.3115 271.902 76.7677C272.082 76.2207 272.339 75.7451 272.676 75.3367C273.012 74.9272 273.422 74.6017 273.909 74.3613C274.393 74.1198 274.941 74.0001 275.553 74.0001C275.996 74.0001 276.419 74.0631 276.819 74.187C277.22 74.3119 277.578 74.4957 277.891 74.7403C278.204 74.986 278.464 75.2915 278.671 75.6611C278.877 76.0296 279.006 76.4548 279.06 76.9367H277.662C277.624 76.6553 277.542 76.4097 277.416 76.1965C277.29 75.9844 277.13 75.8039 276.94 75.6611C276.749 75.5162 276.534 75.4091 276.298 75.3367C276.061 75.2632 275.812 75.2264 275.553 75.2264C275.117 75.2264 274.741 75.3209 274.424 75.5046C274.106 75.6884 273.848 75.9351 273.65 76.2448C273.452 76.5525 273.304 76.9052 273.209 77.2968C273.113 77.6906 273.065 78.0927 273.065 78.5011C273.065 78.9085 273.113 79.3106 273.209 79.7043C273.304 80.098 273.452 80.4487 273.65 80.7584C273.848 81.065 274.106 81.3117 274.424 81.4965C274.741 81.6813 275.117 81.7737 275.553 81.7737C275.92 81.7821 276.244 81.7306 276.527 81.6236C276.809 81.5154 277.048 81.359 277.243 81.1542C277.438 80.9495 277.586 80.6986 277.684 80.4015C277.784 80.1054 277.838 79.7768 277.844 79.4156H275.668V78.2712H279.151V82.7963ZM280.436 74.2037L283.507 79.4281V82.7962H284.94V79.4281L288 74.2037H286.396L284.264 78.0537L282.098 74.2037H280.436Z" fill="white"/>
<path fill-rule="evenodd" clip-rule="evenodd" d="M206.876 32.8503H216.545L216.716 31.9462C216.813 31.4337 216.719 30.9951 216.437 30.6434C216.161 30.3017 215.716 30.1149 215.185 30.1149H207.393L206.876 32.8503ZM205.576 39.7189H215.245L215.773 36.9275H206.104L205.576 39.7189ZM192.984 32.8503H202.709L203.227 30.1149H195.655C194.466 30.1149 193.318 31.082 193.093 32.2769L192.984 32.8503ZM191.685 39.7189H201.409L201.937 36.9275H192.214L191.685 39.7189ZM218.256 26.3794C219.603 27.0927 220.485 28.1887 220.826 29.5594C221.015 30.3507 221.033 31.1519 220.883 31.9462L218.419 44.973C218.202 46.1169 217.143 47.0121 216.004 47.0121H215.896C214.757 47.0121 214.035 46.1169 214.251 44.973L214.453 43.905H204.784L204.612 44.8102C204.407 45.8961 203.279 46.8483 202.198 46.8483H202.09C200.989 46.8483 200.237 45.9151 200.446 44.8102L200.617 43.905H190.892L190.69 44.973C190.471 46.1349 189.456 47.0121 188.331 47.0121H188.223C187.083 47.0121 186.362 46.1169 186.578 44.973L188.807 33.193L189.09 31.6974C189.69 28.5234 192.766 25.9278 195.925 25.9278H204.018L204.576 22.9726H190.74L190.776 22.7817C191.193 20.5758 193.312 18.7875 195.509 18.7875H205.368L205.521 17.9872C205.832 16.3378 207.416 15 209.059 15H210.252L209.536 18.7875H216.985L217.082 18.2759C217.424 16.4676 219.161 15 220.963 15H221.868L220.779 20.7336C220.546 21.9655 219.361 22.9646 218.135 22.9656L208.743 22.9726L208.185 25.9278H215.977C216.769 25.9278 217.535 26.0797 218.256 26.3794ZM269.27 49.1021H272.307C273.384 49.1021 274.121 50.0363 273.916 51.1422C273.698 52.3211 272.636 53.2363 271.539 53.2363H268.503L266.759 62.6325C266.547 63.7774 265.485 64.6726 264.338 64.6726H264.175C263.03 64.6726 262.298 63.7774 262.51 62.6325L264.253 53.2363H247.613C248.037 50.9534 250.233 49.1021 252.52 49.1021H265.021L270.522 19.4558C270.956 17.112 273.211 15.2118 275.558 15.2118L269.27 49.1021ZM329.536 25.1836C330.681 25.1836 331.744 24.2874 331.967 23.0885C332.172 21.9826 331.409 21.0485 330.303 21.0485H319.946L321.018 15.2698H320.345C318.401 15.2698 316.532 16.8454 316.171 18.7886L315.752 21.0485H307.828C305.541 21.0485 303.343 22.8997 302.92 25.1836H314.985L313.312 34.1942H305.442C303.126 34.1942 300.901 36.0694 300.471 38.3823H323.022C320.247 42.1847 316.917 45.7893 313.117 49.1042L305.822 41.8031C304.336 40.3145 301.664 40.5173 299.827 42.2576L309.56 51.9436C304.966 55.3314 300.08 58.1938 295.024 60.4576C293.951 60.9762 293.298 62.222 293.598 63.1761L293.652 63.264C293.814 63.7835 294.192 64.1782 294.698 64.349C294.878 64.4109 295.067 64.4399 295.261 64.4399C295.571 64.4399 295.887 64.363 296.187 64.2101C302.036 61.4867 307.417 58.2377 312.184 54.5522L321.598 63.9124C322.363 64.6168 323.607 64.5059 324.472 63.6746C324.956 63.268 325.212 62.7755 325.254 62.196C325.367 61.5846 325.214 61.0691 324.835 60.7574L315.69 51.6519C320.629 47.3669 325.014 42.4934 328.727 37.1584C329.176 36.506 329.285 35.7507 329.02 35.1403C328.764 34.5478 328.187 34.1942 327.477 34.1942H317.507L319.179 25.1836H329.536ZM300.911 24.2879L300.932 24.179C301.137 23.0731 300.399 22.1389 299.321 22.1389H295.497L296.771 15.2703H296.199C294.229 15.2703 292.335 16.8659 291.97 18.834L291.357 22.1389H288.375C286.057 22.1389 283.833 24.0152 283.403 26.329H290.58L287.483 43.0184L280.776 46.3273C280.268 46.5591 279.857 46.9747 279.55 47.5642C279.249 48.1826 279.293 48.6212 279.484 49.2296C279.881 50.1827 281.017 50.5054 282.07 49.9709L286.612 47.711L284.744 57.7776C284.589 58.6169 284.189 59.3122 283.558 59.8447C282.883 60.4132 282.114 60.7019 281.275 60.7019H281.154C278.868 60.7019 276.969 62.5532 276.546 64.8361H280.509C283.385 64.8361 286.132 63.2336 287.866 60.5341C288.376 59.6259 288.709 58.7248 288.885 57.7776L291.166 45.4841L296.453 42.8226C296.918 42.5838 297.317 42.1612 297.608 41.5998C297.921 40.9953 297.852 40.4778 297.721 39.9793C297.301 39.0232 296.142 38.6725 295.089 39.188L292.047 40.7326L294.72 26.329H295.879V26.328H298.544C299.678 26.328 300.694 25.4518 300.911 24.2879ZM229.801 33.7796C230.006 32.6736 231.116 31.7395 232.223 31.7395C233.422 31.7395 234.154 32.6346 233.942 33.7796L233.688 35.1433C232.481 41.6472 231.244 47.0612 229.906 51.6938C228.852 55.7271 227.754 59.1289 226.554 62.0851C226.282 62.6886 225.837 63.1711 225.297 63.4508C224.977 63.6167 224.638 63.7016 224.307 63.7016C224.14 63.7016 223.975 63.6796 223.816 63.6357H223.738C223.158 63.5088 222.756 63.1871 222.552 62.7255C222.358 62.2869 222.366 61.7694 222.577 61.2689C223.722 58.2427 224.826 54.8549 225.859 51.2093V51.2083C227.211 46.4947 228.417 41.2396 229.549 35.1433L229.801 33.7796ZM252.607 39.7579L260.754 42.9209C260.949 42.9988 261.166 43.0378 261.392 43.0378C261.702 43.0378 262.029 42.9649 262.347 42.824C262.868 42.5912 263.297 42.1926 263.507 41.766L263.6 41.6261C264.18 40.5072 263.877 39.3443 262.907 38.9786L254.754 35.8156C253.808 35.4559 252.575 35.9694 251.955 36.9685L251.859 37.1103C251.282 38.2193 251.611 39.3832 252.607 39.7579ZM263.176 29.8003L255.04 26.6422C254.045 26.2666 253.717 25.1037 254.292 23.9947L254.394 23.8778C255.038 22.8438 256.231 22.3352 257.188 22.6989L265.34 25.863C266.295 26.2226 266.612 27.4375 266.031 28.5145L265.94 28.6504C265.714 29.1109 265.253 29.5285 264.697 29.7623C264.412 29.8822 264.122 29.9421 263.85 29.9421C263.607 29.9421 263.376 29.8942 263.176 29.8003ZM246.858 31.7395H246.749C245.641 31.7395 244.533 32.6736 244.327 33.7796L239.187 61.4867C238.984 62.5817 239.735 63.4718 240.86 63.4718H240.97C242.078 63.4718 243.181 62.5637 243.381 61.4867L248.522 33.7796C248.724 32.6926 247.946 31.7395 246.858 31.7395ZM248.658 24.9753H242.456L243.3 20.4255L244.435 20.3426L245.892 20.2427C245.91 20.2412 245.926 20.2386 245.942 20.2361C245.957 20.2336 245.972 20.2312 245.99 20.2297L249.049 20.0059C250.133 19.943 251.17 18.9529 251.311 17.8569L251.335 17.7221C251.422 16.5661 250.592 15.7459 249.458 15.8728L235.606 16.8339C233.422 16.9847 231.455 18.865 231.229 21.017L231.206 21.2388L239.058 20.6783L238.26 24.9753H234.373C232.057 24.9753 229.831 26.8505 229.402 29.1644H237.483L231.384 62.0327C231.179 63.1386 231.943 64.0728 233.05 64.0728H233.159C234.266 64.0728 235.376 63.1386 235.581 62.0327L241.677 29.1644H247.882C249.026 29.1644 250.091 28.2692 250.303 27.1253L250.323 27.0164C250.524 25.9294 249.748 24.9753 248.658 24.9753ZM124.108 46.4824L124.25 46.5323C124.735 46.7481 125.063 47.1737 125.164 47.7083C125.262 48.2288 125.133 48.7972 124.809 49.2678L115.855 63.1129C115.552 63.5994 115.072 63.985 114.54 64.1719C114.3 64.2568 114.058 64.2988 113.824 64.2988C113.533 64.2988 113.254 64.2328 113.003 64.1039L112.873 64.06C111.942 63.5505 111.732 62.3865 112.358 61.3405L121.314 47.5324C121.973 46.5683 123.227 46.1018 124.108 46.4824ZM143.892 50.0807C143.258 49.3045 141.96 49.3045 141.039 50.0807L140.975 50.1357C140.514 50.5233 140.204 51.0388 140.103 51.5863C140.001 52.1338 140.12 52.6503 140.437 53.038L145.206 58.8206C145.519 59.2032 146.004 59.422 146.541 59.422H146.581C147.116 59.41 147.643 59.1952 148.059 58.8206L148.123 58.7656C149.105 57.9384 149.337 56.6896 148.662 55.8623L143.892 50.0807ZM149.45 42.4522C148.913 42.4522 148.428 42.2334 148.115 41.8497L143.717 36.3658C143.403 36.0162 143.275 35.5046 143.375 34.9691C143.471 34.4506 143.772 33.9541 144.205 33.5974L144.311 33.4626C145.26 32.6643 146.512 32.6643 147.164 33.4626L151.56 38.9464C152.212 39.7437 151.979 40.9965 151.031 41.7948L150.968 41.8477C150.55 42.2244 150.023 42.4402 149.49 42.4522H149.45ZM158.375 43.6839H134.664L136.58 33.3596C136.769 32.3385 137.751 31.5103 138.773 31.5103H157.707C158.494 31.5103 159.157 31.801 159.665 32.3595C160.125 32.9869 160.248 33.5883 160.091 34.4335L158.375 43.6839ZM155.729 57.9416C155.574 58.7798 155.175 59.4762 154.543 60.0087C153.857 60.5841 153.111 60.8649 152.26 60.8649H134.348C133.486 60.8649 132.863 60.5871 132.437 60.0087C132.004 59.4772 131.863 58.7808 132.018 57.9416L133.887 47.873H157.598L155.729 57.9416ZM163.203 43.6839H162.57L164.286 34.4335C164.451 33.5474 164.433 32.5913 164.231 31.6621C163.781 29.9697 162.747 28.6999 161.145 27.8837C160.267 27.505 159.397 27.3212 158.484 27.3212H136.934C135.04 27.3212 133.222 28.8538 132.869 30.745L130.47 43.6839H129.837C128.728 43.6839 127.62 44.618 127.415 45.724L127.395 45.8329C127.182 46.9768 127.913 47.873 129.059 47.873H129.692L127.824 57.9416C127.283 60.8559 128.413 63.3046 130.86 64.4935C131.718 64.8391 132.583 65 133.582 65H151.493C152.497 65 153.432 64.8342 154.366 64.4855C156.195 63.7012 157.744 62.3974 158.852 60.699C159.287 59.9217 159.719 59.0496 159.924 57.9416L161.793 47.873H162.425C163.571 47.873 164.634 46.9768 164.847 45.8329L164.867 45.724C165.072 44.618 164.309 43.6839 163.203 43.6839ZM128.223 27.0252L128.121 27.0851C127.047 27.7145 125.852 27.4598 125.399 26.5037L122.765 20.9468C122.312 19.9917 122.798 18.7509 123.87 18.1215L123.973 18.0615C125.011 17.4531 126.257 17.7189 126.694 18.643L129.329 24.1988C129.767 25.1229 129.26 26.4167 128.223 27.0252ZM125.052 40.6848L125.154 40.6249C126.191 40.0174 126.698 38.7226 126.26 37.7995L123.211 31.4125C122.773 30.4883 121.527 30.2226 120.489 30.831L120.387 30.891C119.314 31.5204 118.828 32.7612 119.281 33.7163L122.331 40.1034C122.783 41.0595 123.978 41.3142 125.052 40.6848ZM139.636 20.5035H165.647C166.754 20.5035 167.516 21.4386 167.311 22.5436C167.096 23.7035 165.987 24.6376 164.88 24.6376H135.936C135.287 24.6376 134.768 24.3519 134.474 23.8333C134.14 23.3498 134.125 22.7264 134.439 22.043L135.824 19.1247C136.823 17.0227 139.235 15.7999 141.24 16.3803L141.506 16.4572L139.636 20.5035ZM195.153 59.4827L189.759 55.887C188.914 55.3106 187.653 55.6003 186.817 56.5564L186.763 56.6193L186.742 56.7352C186.401 57.1788 186.228 57.6943 186.254 58.1929C186.279 58.7204 186.53 59.1819 186.941 59.4617L192.333 63.0553C192.614 63.2551 192.95 63.359 193.311 63.359C193.471 63.359 193.636 63.3381 193.801 63.2981C194.347 63.1652 194.866 62.8165 195.232 62.338L195.306 62.271C195.697 61.7895 195.893 61.232 195.859 60.7025C195.826 60.183 195.575 59.7504 195.153 59.4827ZM215.278 49.53H216.885C218.023 49.53 218.744 50.4252 218.528 51.5691L218.507 51.677C218.291 52.821 217.231 53.7151 216.092 53.7151H214.486L213.511 58.8733C213.353 59.7085 213.05 60.4519 212.558 61.2071C211.658 62.7207 210.424 63.7628 208.792 64.3822C208.144 64.6799 207.33 64.8358 206.393 64.8358H199.176C199.608 62.5539 201.798 60.7046 204.069 60.7046H207.174C207.725 60.7046 208.187 60.5498 208.627 60.2181C209.047 59.8194 209.301 59.3848 209.398 58.8733L210.373 53.7151H184.871C185.308 51.4043 187.527 49.53 189.829 49.53H211.164L211.171 49.4971C211.387 48.3541 212.447 47.459 213.586 47.459C214.74 47.459 215.492 48.3921 215.283 49.4971L215.278 49.53ZM186.452 28.5442H182.839L185.344 15.3016H185.235C183.023 15.3016 180.889 17.1029 180.469 19.3249L178.725 28.5442H176.246C174.09 28.5442 172.009 30.3006 171.599 32.4676L171.55 32.7303H177.933L172.224 62.9062C172.011 64.0311 172.725 64.9452 173.813 64.9452H173.923C175.06 64.9452 176.122 64.0501 176.338 62.9062L182.047 32.7303H185.66C186.742 32.7303 187.869 31.7782 188.076 30.6912L188.097 30.5833C188.312 29.4394 187.59 28.5442 186.452 28.5442Z" fill="white"/>
</svg>
