<?xml version="1.0" encoding="utf-8"?>
<!-- Generator: Adobe Illustrator 25.2.3, SVG Export Plug-In . SVG Version: 6.00 Build 0)  -->
<svg version="1.1" id="图层_1" xmlns="http://www.w3.org/2000/svg" xmlns:xlink="http://www.w3.org/1999/xlink" x="0px" y="0px"
	 viewBox="0 0 807.67 272.19" style="enable-background:new 0 0 807.67 272.19;" xml:space="preserve">
<style type="text/css">
	.st3{fill:#EFEFEF;stroke:#EFEFEF;stroke-miterlimit:10;}
	.st4{fill:url(#SVGID_3_);}
	.st5{fill:url(#SVGID_4_);}
</style>
<g>
	<path class="st3" d="M297.48,145.34c-1.71-2.05-3.65-3.79-5.75-5.16c-2.09-1.36-4.15-2.46-6.14-3.29c-2-0.83-3.84-1.46-5.47-1.9
		c-1.64-0.43-2.9-0.75-3.74-0.93c-3.59-0.94-7.16-1.98-10.61-3.08c-3.37-1.07-6.41-2.52-9.03-4.3c-2.58-1.75-4.67-3.98-6.2-6.61
		c-1.51-2.61-2.28-6.01-2.28-10.09c0-3.34,0.61-6.45,1.82-9.23c1.2-2.78,2.89-5.17,5.01-7.11c2.13-1.94,4.67-3.47,7.55-4.54
		c2.89-1.07,6-1.61,9.26-1.61c4.17,0,7.74,0.82,10.6,2.43c2.87,1.62,5.23,3.85,7.03,6.61c1.82,2.79,3.14,6.06,3.93,9.7
		c0.8,3.69,1.21,7.6,1.21,11.65v0.66h5.63v-0.66c0-6.56-0.86-12.18-2.56-16.69c-1.7-4.52-3.95-8.23-6.69-11.01
		c-2.74-2.78-5.79-4.82-9.08-6.05c-3.27-1.22-6.57-1.84-9.79-1.84c-3.89,0-7.66,0.62-11.21,1.83c-3.57,1.22-6.74,3.06-9.43,5.45
		c-2.69,2.4-4.87,5.37-6.48,8.84c-1.62,3.47-2.43,7.46-2.43,11.85v0.44c0.1,5.08,1.19,9.33,3.26,12.63
		c2.05,3.27,4.58,5.93,7.52,7.89c2.91,1.94,6.04,3.44,9.3,4.47c3.22,1.01,6.01,1.81,8.3,2.38c2.55,0.66,5.42,1.48,8.52,2.43
		c3.04,0.94,5.95,2.36,8.66,4.23c2.69,1.86,4.97,4.33,6.78,7.34c1.8,3,2.71,6.92,2.71,11.66c0,3.71-0.75,7.12-2.23,10.13
		c-1.49,3.02-3.47,5.64-5.88,7.77c-2.42,2.14-5.23,3.82-8.35,4.98c-3.12,1.17-6.36,1.76-9.62,1.76c-1.98,0-4.37-0.19-7.1-0.57
		c-2.68-0.37-5.31-1.28-7.81-2.72c-2.49-1.43-4.77-3.59-6.76-6.42c-1.99-2.82-3.33-6.76-3.98-11.71l-0.08-0.57h-5.6l0.05,0.71
		c0.39,5.16,1.65,9.5,3.76,12.88c2.1,3.37,4.68,6.1,7.67,8.1c2.98,2,6.29,3.44,9.85,4.26c3.54,0.82,6.95,1.24,10.14,1.24
		c3.99,0,7.94-0.74,11.74-2.2c3.8-1.46,7.21-3.56,10.13-6.24c2.92-2.68,5.3-5.92,7.05-9.62c1.76-3.71,2.65-7.87,2.65-12.36
		c0-3.89-0.55-7.35-1.62-10.29C300.62,149.93,299.2,147.4,297.48,145.34z M325.31,84.01h-5.34v30.19h-16.82v5.06h16.82v72.45h5.34
		v-72.45h19.55v-5.06h-19.55V84.01z M349.95,112.47h-0.66l-0.15,79.23h5.35v-74.17h26.88v-5.24l-0.7,0.04
		C379.07,112.42,368.73,112.47,349.95,112.47z M452.25,122.78c-3.72-3.34-8.02-5.95-12.76-7.75c-4.75-1.79-9.75-2.7-14.87-2.7
		c-5.7,0-11.12,1.03-16.11,3.07c-4.98,2.04-9.35,4.91-12.99,8.55c-3.63,3.64-6.53,7.99-8.61,12.93c-2.08,4.94-3.14,10.4-3.14,16.21
		c0,5.72,1.03,11.1,3.07,15.99c2.04,4.9,4.89,9.2,8.48,12.79c3.59,3.59,7.91,6.47,12.85,8.55c4.95,2.09,10.45,3.14,16.35,3.14
		c3.86,0,7.71-0.49,11.44-1.46c3.73-0.97,7.27-2.47,10.52-4.46c3.25-1.99,6.27-4.54,8.98-7.6c2.72-3.06,4.98-6.67,6.72-10.74
		l0.39-0.92h-5.88l-0.18,0.38c-3,6.37-7.37,11.3-12.99,14.67c-5.63,3.37-12,5.08-18.95,5.08c-3.66,0-7.61-0.69-11.74-2.05
		c-4.13-1.36-7.98-3.49-11.45-6.35c-3.46-2.85-6.39-6.53-8.69-10.94c-2.21-4.23-3.41-9.32-3.58-15.13h75.84l0.19-2.85
		c-0.29-5.9-1.59-11.33-3.86-16.13C459.03,130.25,455.98,126.12,452.25,122.78z M389.32,148.98c0.35-4.32,1.47-8.4,3.34-12.12
		c1.97-3.94,4.59-7.4,7.78-10.3c3.19-2.9,6.94-5.18,11.17-6.77c4.23-1.59,8.8-2.4,13.6-2.4c4.31,0,8.56,0.85,12.64,2.54
		c4.08,1.68,7.75,4.01,10.9,6.92c3.14,2.9,5.76,6.35,7.78,10.24c1.91,3.67,3.01,7.67,3.27,11.9H389.32z M494.79,115.69
		c-4.99,2.23-9.32,5.25-12.86,8.99c-3.54,3.73-6.29,8.08-8.19,12.94c-1.89,4.84-2.85,10-2.85,15.33c0,5.24,0.93,10.34,2.77,15.18
		c1.84,4.85,4.55,9.2,8.04,12.94c3.49,3.74,7.82,6.79,12.86,9.06c5.05,2.28,10.8,3.44,17.09,3.44c8.23,0,15.5-1.89,21.62-5.63
		c5.56-3.4,10.05-8.03,13.37-13.81v17.57h5.34v-79.38h-40.33C505.46,112.33,499.79,113.46,494.79,115.69z M544.54,166.65
		c-1.68,4.31-4.1,8.13-7.19,11.36c-3.09,3.23-6.81,5.81-11.07,7.69c-4.25,1.87-9.02,2.82-14.18,2.82c-6.01,0-11.33-1.07-15.82-3.17
		c-4.49-2.11-8.27-4.88-11.21-8.24c-2.95-3.37-5.18-7.22-6.63-11.42c-1.45-4.22-2.19-8.5-2.19-12.72c0-5.25,0.93-10.12,2.75-14.48
		c1.83-4.35,4.39-8.12,7.61-11.21c3.23-3.09,7.03-5.54,11.29-7.27c4.26-1.73,8.89-2.61,13.77-2.61h35
		C546.92,145.8,546.21,162.38,544.54,166.65z M668.38,120.14c-2.45-2.45-5.48-4.38-9-5.75c-3.51-1.37-7.65-2.06-12.31-2.06
		c-4.38,0-8.6,0.84-12.55,2.5c-3.96,1.66-7.35,4.04-10.07,7.06c-1.67,1.77-2.92,3.49-3.71,5.12c-0.48,0.99-0.89,1.88-1.22,2.68
		c-0.45-1.27-1.03-2.47-1.72-3.6c-0.92-1.5-1.93-2.91-3.01-4.19c-2.74-3.13-6.11-5.53-10.02-7.15c-3.9-1.61-8.24-2.42-12.9-2.42
		H561.6v79.38h5.35v-74.32h24.49c4.2,0,8.1,0.78,11.59,2.32c3.47,1.53,6.31,3.71,8.43,6.47c1.86,2.51,3.22,5.38,4.06,8.54
		c0.84,3.19,1.27,7.77,1.27,13.63v43.35h5.35v-43.35c0-2.96,0.07-5.53,0.21-7.65c0.14-2.11,0.42-4.03,0.84-5.71
		c0.42-1.67,1-3.21,1.74-4.59c0.74-1.39,1.74-2.91,2.96-4.5c2.31-2.95,5.28-5.13,8.84-6.47c3.6-1.35,7.08-2.04,10.33-2.04
		c7.54,0,13.38,2.11,17.36,6.28c2.78,2.78,4.75,6.3,5.87,10.48c1.13,4.24,1.7,9.02,1.7,14.21v43.35h5.35v-43.35
		c0-5.88-0.69-11.3-2.04-16.13C673.93,127.33,671.6,123.27,668.38,120.14z M727.64,136.99l35.37-52.98h-6.62l-31.99,47.77
		l-31.7-47.77h-6.76l35.37,52.98l-36.67,54.71h6.33l33.43-49.79l33.38,49.5l0.2,0.29h6.62L727.64,136.99z"/>
	<linearGradient id="SVGID_3_" gradientUnits="userSpaceOnUse" x1="38.5286" y1="134.2126" x2="133.8254" y2="134.2126">
		<stop  offset="1.331947e-07" style="stop-color:#63C6F9"/>
		<stop  offset="1" style="stop-color:#171E9E"/>
	</linearGradient>
	<path class="st4" d="M109.71,138.14l-56.43-79.6c0.59-0.74,0.95-1.65,0.95-2.67c0-2.38-1.93-4.31-4.31-4.31s-4.31,1.93-4.31,4.31
		s1.93,4.31,4.31,4.31c0.27,0,0.53-0.03,0.79-0.08l55.26,77.96l-59.75,77.16c-0.41-0.13-0.83-0.21-1.27-0.21
		c-2.38,0-4.31,1.93-4.31,4.31s1.93,4.31,4.31,4.31s4.31-1.93,4.31-4.31c0-0.83-0.25-1.6-0.66-2.26L109.71,138.14z M127.22,163.48
		l-2.43-1.77l-52.52,72.17c-0.35-0.09-0.71-0.16-1.1-0.16c-2.38,0-4.31,1.93-4.31,4.31s1.93,4.31,4.31,4.31s4.31-1.93,4.31-4.31
		c0-0.9-0.28-1.74-0.75-2.43L127.22,163.48z M133.83,172.41l-2.41-1.78L90.43,226.1c-0.35-0.09-0.71-0.16-1.09-0.16
		c-2.38,0-4.31,1.93-4.31,4.31c0,2.38,1.93,4.31,4.31,4.31c2.38,0,4.31-1.93,4.31-4.31c0-0.9-0.28-1.74-0.76-2.43L133.83,172.41z
		 M94.08,60.99c0.44,0,0.85-0.08,1.25-0.21l35.25,46.1l2.38-1.82L97.72,58.97c0.42-0.66,0.67-1.44,0.67-2.29
		c0-2.38-1.93-4.31-4.31-4.31s-4.31,1.93-4.31,4.31S91.7,60.99,94.08,60.99z M78.31,51.56c0.21,0,0.42-0.03,0.63-0.06l46.37,62.43
		l2.41-1.79L81.59,50.03c0.64-0.75,1.04-1.71,1.04-2.77c0-2.38-1.93-4.31-4.31-4.31s-4.31,1.93-4.31,4.31S75.94,51.56,78.31,51.56z
		 M76.4,65.61c0.46,0,0.9-0.09,1.32-0.23l40.98,56.55l2.43-1.76L80.08,63.52c0.39-0.65,0.63-1.4,0.63-2.21
		c0-2.38-1.93-4.31-4.31-4.31s-4.31,1.93-4.31,4.31C72.09,63.68,74.02,65.61,76.4,65.61z M43.68,34.61l68.89,96.38l2.44-1.74
		L46.23,33.01c0.56-0.73,0.91-1.63,0.91-2.62c0-2.38-1.93-4.31-4.31-4.31s-4.31,1.93-4.31,4.31c0,2.38,1.93,4.31,4.31,4.31
		C43.13,34.7,43.41,34.66,43.68,34.61z M68.53,214.07c0-0.97-0.33-1.86-0.88-2.58L115,147.01l-2.42-1.78l-47.45,64.63
		c-0.29-0.06-0.6-0.1-0.91-0.1c-2.38,0-4.31,1.93-4.31,4.31s1.93,4.31,4.31,4.31C66.6,218.38,68.53,216.45,68.53,214.07z
		 M72.84,224.54c0-0.93-0.3-1.78-0.8-2.48l49.09-66.78l-2.42-1.78l-49.13,66.84l0.1,0.07c-0.37-0.1-0.75-0.17-1.14-0.17
		c-2.38,0-4.31,1.93-4.31,4.31s1.93,4.31,4.31,4.31C70.91,228.84,72.84,226.92,72.84,224.54z"/>
	<linearGradient id="SVGID_4_" gradientUnits="userSpaceOnUse" x1="105.9788" y1="137.9286" x2="240.2744" y2="137.9286">
		<stop  offset="1.331947e-07" style="stop-color:#63C6F9"/>
		<stop  offset="1" style="stop-color:#171E9E"/>
	</linearGradient>
	<path class="st5" d="M168.35,217.19l-58.63-79.08l59.53-79.95c0.26,0.05,0.52,0.08,0.78,0.08c2.38,0,4.31-1.93,4.31-4.31
		s-1.93-4.31-4.31-4.31s-4.31,1.93-4.31,4.31c0,1.01,0.36,1.93,0.95,2.66l-60.7,81.51l60.07,81.02c-0.68,1.22-0.76,2.75-0.06,4.08
		c1.1,2.11,3.7,2.93,5.81,1.84c2.11-1.1,2.93-3.7,1.84-5.81C172.62,217.3,170.35,216.46,168.35,217.19z M198.28,241.42l-76.5-102.9
		l76.85-104.19c0.44,0.15,0.91,0.25,1.4,0.25c2.38,0,4.31-1.93,4.31-4.31s-1.93-4.31-4.31-4.31c-2.38,0-4.31,1.93-4.31,4.31
		c0,0.78,0.23,1.51,0.59,2.14l-77.61,105.21l-0.66,0.89l77.8,104.65c-0.85,1.27-1.02,2.93-0.27,4.38c1.1,2.11,3.7,2.93,5.81,1.84
		s2.93-3.7,1.84-5.81C202.27,241.76,200.19,240.9,198.28,241.42z M183.65,217.07c1.1,2.11,3.7,2.93,5.81,1.84
		c2.11-1.1,2.93-3.7,1.84-5.81c-0.95-1.83-3.03-2.69-4.95-2.17l-52.71-73.75l54.01-71.26c0.28,0.06,0.58,0.09,0.88,0.09
		c2.38,0,4.31-1.93,4.31-4.31c0-2.38-1.93-4.31-4.31-4.31s-4.31,1.93-4.31,4.31c0,0.98,0.34,1.87,0.89,2.6l-55.2,72.83l54,75.56
		C183.06,213.95,182.9,215.62,183.65,217.07z M204.07,218.72l-59.41-80.08l61.6-81.32c0.23,0.04,0.45,0.07,0.69,0.07
		c2.38,0,4.31-1.93,4.31-4.31c0-2.38-1.93-4.31-4.31-4.31s-4.31,1.93-4.31,4.31c0,1.04,0.38,1.98,1,2.73l-62.05,81.92l-0.68,0.9
		l60.93,82.13c-0.6,1.19-0.65,2.64,0.02,3.92c1.1,2.11,3.7,2.93,5.81,1.84c2.11-1.1,2.93-3.7,1.84-5.81
		C208.47,218.71,206.11,217.89,204.07,218.72z M234.11,241.45l-77.37-103.03L234.79,34.9c0.38,0.11,0.77,0.18,1.18,0.18
		c2.38,0,4.31-1.93,4.31-4.31s-1.93-4.31-4.31-4.31c-2.38,0-4.31,1.93-4.31,4.31c0,0.87,0.26,1.68,0.71,2.36l-79.38,105.29
		l78.74,104.84c-0.8,1.25-0.95,2.88-0.21,4.3c1.1,2.11,3.7,2.93,5.81,1.84c2.11-1.1,2.93-3.7,1.84-5.81
		C238.18,241.73,236.05,240.87,234.11,241.45z"/>
</g>
</svg>
