<svg width="1920" height="64" viewBox="0 0 1920 64" fill="none" xmlns="http://www.w3.org/2000/svg">
<rect width="1920" height="64" fill="black"/>
<rect width="1920" height="64" fill="#262A3D"/>
<circle cx="1870" cy="32" r="20" fill="#E8EBEF"/>
<path d="M1869.98 41.1951C1875.21 41.1951 1879.91 43.4341 1883.21 46.9903C1882.49 48.0878 1877.01 52.0049 1870.04 51.9854C1863.07 51.9659 1857.23 47.8098 1856.78 46.9903C1860.17 43.2927 1864.97 41.1951 1869.98 41.1951Z" fill="#8E94B4"/>
<path d="M1869.98 36C1871.74 36 1873.18 37.439 1873.18 39.1951V42.3902C1873.18 44.1463 1871.74 45.5854 1869.98 45.5854C1868.22 45.5854 1866.79 44.1463 1866.79 42.3902V39.1951C1866.79 37.439 1868.22 36 1869.98 36Z" fill="#C7CCD6"/>
<path d="M1860.39 32.0049V24.2927C1860.39 22.1366 1862.57 20.0146 1864.75 20.0146H1875.21C1877.39 20.0146 1879.57 22.1317 1879.57 24.2927V32.0049H1860.39Z" fill="#8E94B4"/>
<path d="M1858.79 32.8049C1858.79 34.3415 1860.05 35.6 1861.59 35.6C1863.12 35.6 1864.38 34.3415 1864.38 32.8049C1864.38 31.2683 1863.12 30.0098 1861.59 30.0098C1860.05 30.0098 1858.79 31.2683 1858.79 32.8049ZM1875.58 32.8049C1875.58 34.3415 1876.83 35.6 1878.37 35.6C1879.91 35.6 1881.17 34.3415 1881.17 32.8049C1881.17 31.2683 1879.91 30.0098 1878.37 30.0098C1876.83 30.0098 1875.58 31.2683 1875.58 32.8049Z" fill="#C7CCD6"/>
<path d="M1869.98 22.8146C1874.4 22.8146 1877.97 26.3902 1877.97 30.8049V34C1877.97 38.4146 1874.4 41.9902 1869.98 41.9902C1865.57 41.9902 1861.99 38.4146 1861.99 34V30.8049C1861.99 26.3902 1865.57 22.8146 1869.98 22.8146Z" fill="white"/>
<path d="M1864.19 25.2927V31.9854C1864.19 36.039 1866.08 39.5171 1869.52 41.9951C1867.6 41.9951 1865.37 40.9561 1863.87 39.1366C1862.71 37.6976 1861.99 36.478 1861.99 33.5805C1861.99 32.7024 1861.95 30.9024 1862.01 30.1854C1862.29 26.8927 1864.19 25.2927 1864.19 25.2927Z" fill="#EAECEF"/>
<path d="M1869.98 24.6342C1873.16 24.6342 1875.74 23.1951 1875.74 21.4195V17.3854C1873.08 17.9463 1871.16 18.2244 1869.98 18.2244C1866.8 18.2244 1864.22 19.6634 1864.22 21.439C1864.22 23.2146 1866.8 24.6342 1869.98 24.6342Z" fill="#8E94B4"/>
<path d="M84.952 28.746C85.1427 28.3353 85.3187 27.9027 85.48 27.448C85.656 26.9933 85.8173 26.5313 85.964 26.062C86.1107 25.578 86.2353 25.1087 86.338 24.654C86.4553 24.1847 86.5507 23.7373 86.624 23.312H89.132L88.956 24.236H98.878V26.128H88.494C88.362 26.568 88.2153 27.0153 88.054 27.47H97.888V33.256H98.966V35.126H97.888V38.888C97.888 38.9907 97.888 39.0933 97.888 39.196C97.888 39.284 97.8807 39.372 97.866 39.46H98.68V41.154H97.668C97.492 42.034 97.228 42.7453 96.876 43.288H93.972C94.5147 42.7453 94.9327 42.034 95.226 41.154H85.656C85.744 40.362 85.8173 39.4453 85.876 38.404C85.9493 37.348 86.0153 36.2553 86.074 35.126H84.842V33.256H86.184L86.338 28.746H84.952ZM88.428 35.126C88.384 35.962 88.34 36.754 88.296 37.502C88.252 38.25 88.208 38.9027 88.164 39.46H95.534C95.534 39.372 95.534 39.284 95.534 39.196C95.5487 39.0933 95.556 38.9907 95.556 38.888V35.126H88.428ZM88.626 29.186C88.6113 29.7433 88.5893 30.374 88.56 31.078C88.5453 31.782 88.5233 32.508 88.494 33.256H95.556V29.186H88.626ZM79.122 43.266C79.4007 42.5913 79.672 41.8653 79.936 41.088C80.2 40.3107 80.4493 39.5333 80.684 38.756C80.9187 37.9787 81.1313 37.216 81.322 36.468C81.5273 35.72 81.696 35.0233 81.828 34.378H84.358C84.226 35.0233 84.0647 35.742 83.874 36.534C83.698 37.3113 83.5 38.1033 83.28 38.91C83.0747 39.702 82.8547 40.4793 82.62 41.242C82.3853 42.0047 82.1507 42.6793 81.916 43.266H79.122ZM81.674 33.322C81.3807 32.662 81.0287 31.9507 80.618 31.188C80.2073 30.4253 79.7453 29.626 79.232 28.79H81.806C82.2313 29.45 82.6567 30.176 83.082 30.968C83.522 31.7453 83.9473 32.53 84.358 33.322H81.674ZM81.828 28.086C81.5347 27.3673 81.1533 26.612 80.684 25.82C80.2293 25.0133 79.7673 24.2507 79.298 23.532H81.894C82.1287 23.8693 82.3487 24.2067 82.554 24.544C82.7593 24.8813 82.9647 25.2333 83.17 25.6C83.3753 25.952 83.5807 26.3333 83.786 26.744C83.9913 27.1547 84.2113 27.602 84.446 28.086H81.828ZM91.596 38.91C91.4787 38.3087 91.354 37.7733 91.222 37.304C91.1047 36.8347 90.9507 36.292 90.76 35.676H92.916C93.1213 36.2627 93.2827 36.798 93.4 37.282C93.5173 37.7513 93.6347 38.294 93.752 38.91H91.596ZM91.53 32.728C91.4127 32.156 91.288 31.6427 91.156 31.188C91.024 30.7333 90.8553 30.242 90.65 29.714H92.806C92.9967 30.2273 93.158 30.7113 93.29 31.166C93.422 31.606 93.5613 32.1267 93.708 32.728H91.53ZM112.848 34.708H109.636V35.94H107.502V27.316H112.804V26.084H106.974V24.39H112.804V23.334H114.938V24.39H117.226C117.182 24.1847 117.131 23.9867 117.072 23.796C117.013 23.6053 116.962 23.4513 116.918 23.334H119.03C119.118 23.5687 119.235 23.9207 119.382 24.39H120.834V26.084H114.938V27.316H120.35V35.808H118.216V34.708H114.938V35.742H112.848V34.708ZM102.86 28.108V23.334H105.126V28.108H106.798V30.396H105.126V43.266H102.86V30.396H101.034V28.108H102.86ZM114.696 43.266C115.385 42.6793 115.847 42.1073 116.082 41.55C116.331 40.9927 116.456 40.362 116.456 39.658V38.734H106.798V36.952H116.456V36.028H118.854V36.952H120.856V38.734H118.854V39.658C118.854 40.4647 118.751 41.1613 118.546 41.748C118.341 42.3347 118.047 42.8407 117.666 43.266H114.696ZM109.79 42.672C109.658 42.2173 109.475 41.682 109.24 41.066C109.02 40.45 108.793 39.8853 108.558 39.372H111.132C111.249 39.592 111.367 39.8487 111.484 40.142C111.616 40.4353 111.741 40.736 111.858 41.044C111.975 41.352 112.078 41.6453 112.166 41.924C112.269 42.2173 112.349 42.4667 112.408 42.672H109.79ZM114.938 33.278H118.216V31.804H114.938V33.278ZM114.938 28.922V30.374H118.216V28.922H114.938ZM109.636 33.278H112.848V31.804H109.636V33.278ZM109.636 30.374H112.848V28.922H109.636V30.374ZM124.266 43.266C125.234 42.4007 126.173 41.4473 127.082 40.406C128.006 39.3647 128.879 38.2427 129.7 37.04H123.012V34.972H130.976C131.621 33.8573 132.193 32.706 132.692 31.518C133.191 30.33 133.601 29.1053 133.924 27.844H136.63C135.838 30.484 134.907 32.86 133.836 34.972H142.988V37.04H132.714C131.981 38.2867 131.211 39.4307 130.404 40.472C129.597 41.4987 128.761 42.43 127.896 43.266H124.266ZM139.974 26.656H125.652V28.658H123.122V24.566H131.482C131.394 24.3313 131.299 24.104 131.196 23.884C131.108 23.6493 131.027 23.466 130.954 23.334H134.122C134.195 23.4367 134.283 23.6053 134.386 23.84C134.489 24.0747 134.591 24.3167 134.694 24.566H142.504V29.516H139.974V26.656ZM138.72 43.266C138.133 42.6793 137.481 41.9313 136.762 41.022C136.043 40.1273 135.295 39.1153 134.518 37.986H137.444C138.045 38.778 138.749 39.6507 139.556 40.604C140.363 41.5573 141.221 42.4447 142.13 43.266H138.72ZM126.4 34.136C126.121 33.6373 125.784 33.0653 125.388 32.42C124.992 31.76 124.581 31.166 124.156 30.638H126.796C127.148 31.1073 127.529 31.65 127.94 32.266C128.351 32.882 128.747 33.5053 129.128 34.136H126.4ZM129.304 31.166C129.187 30.9753 129.04 30.7407 128.864 30.462C128.703 30.1833 128.527 29.9047 128.336 29.626C128.145 29.3327 127.947 29.0467 127.742 28.768C127.551 28.4747 127.368 28.218 127.192 27.998H129.898C130.221 28.4233 130.58 28.922 130.976 29.494C131.372 30.066 131.739 30.6233 132.076 31.166H129.304ZM153.042 24.126V42.452H145.496V24.126H153.042ZM160.676 26.172V23.334H163.052V26.172H164.944V28.284H163.052V38.184C163.052 38.5947 163.037 39.02 163.008 39.46C162.979 39.9 162.92 40.3473 162.832 40.802C162.759 41.242 162.656 41.6673 162.524 42.078C162.392 42.5033 162.223 42.8993 162.018 43.266H158.828C159.385 42.606 159.825 41.8507 160.148 41C160.485 40.1347 160.661 39.196 160.676 38.184V28.284H153.834V26.172H160.676ZM150.93 40.472V33.85H147.63V40.472H150.93ZM147.63 31.936H150.93V26.15H147.63V31.936ZM156.386 37.854C156.195 36.5633 155.975 35.236 155.726 33.872C155.491 32.508 155.227 31.2173 154.934 30H157.112C157.391 31.188 157.655 32.4567 157.904 33.806C158.168 35.1553 158.403 36.5047 158.608 37.854H156.386ZM179.112 32.574H173.81V30.286H179.112V23.334H181.752V30.286H186.988V32.574H181.752V43.266H179.112V32.574ZM171.742 27.844V41.088H173.942V43.266H169.102V29.912H167.166V27.844H171.742ZM169.564 27.03C169.417 26.3113 169.263 25.666 169.102 25.094C168.941 24.5073 168.757 23.9207 168.552 23.334H171.148C171.353 23.906 171.544 24.478 171.72 25.05C171.896 25.622 172.072 26.282 172.248 27.03H169.564ZM191.014 43.266C191.425 42.782 191.791 42.2467 192.114 41.66C192.451 41.0733 192.745 40.45 192.994 39.79H189.342V37.898H193.566C193.639 37.6487 193.698 37.4067 193.742 37.172C193.786 36.9227 193.823 36.6733 193.852 36.424H191.102V28.24H206.876V36.424H204.852V37.898H208.636V39.79H204.852V43.266H202.476V39.79H195.524C195.319 40.494 195.077 41.1393 194.798 41.726C194.534 42.3273 194.255 42.8407 193.962 43.266H191.014ZM198.538 27.712C199.095 26.9493 199.616 26.172 200.1 25.38C200.584 24.5733 200.943 23.8913 201.178 23.334H203.664L203.268 24.192H208.812V25.864H205.908C206.099 26.172 206.282 26.4873 206.458 26.81C206.634 27.118 206.795 27.4187 206.942 27.712H204.61C204.493 27.4773 204.339 27.1987 204.148 26.876C203.972 26.5387 203.789 26.2013 203.598 25.864H202.3C202.109 26.1573 201.911 26.458 201.706 26.766C201.501 27.074 201.295 27.3893 201.09 27.712H198.538ZM189.188 27.712C189.408 27.404 189.643 27.0667 189.892 26.7C190.156 26.3187 190.405 25.9373 190.64 25.556C190.889 25.16 191.117 24.7787 191.322 24.412C191.527 24.0307 191.703 23.6713 191.85 23.334H194.358C194.285 23.4807 194.211 23.6273 194.138 23.774C194.065 23.906 193.991 24.0453 193.918 24.192H199.352V25.864H196.47C196.646 26.1573 196.829 26.4653 197.02 26.788C197.211 27.1107 197.387 27.4187 197.548 27.712H195.172C195.055 27.4627 194.901 27.1767 194.71 26.854C194.534 26.5313 194.343 26.2013 194.138 25.864H192.972C192.767 26.2013 192.561 26.5313 192.356 26.854C192.151 27.1767 191.953 27.4627 191.762 27.712H189.188ZM193.412 30.572H204.566V29.67H193.412V30.572ZM193.412 32.772H204.566V31.892H193.412V32.772ZM204.566 34.994V34.114H193.412V34.994H204.566ZM196.25 36.424C196.221 36.6733 196.184 36.9227 196.14 37.172C196.096 37.4067 196.052 37.6487 196.008 37.898H202.476V36.424H196.25Z" fill="url(#paint0_linear_1449_71246)"/>
<path opacity="0.5" fill-rule="evenodd" clip-rule="evenodd" d="M49 29L58.5 34.7L68 40.4L49 52L30 40.8L39.5 35.1L49 29.4V29Z" fill="url(#paint1_linear_1449_71246)"/>
<path opacity="0.5" d="M49 12L30 23.1429V41L49 29V12Z" fill="url(#paint2_linear_1449_71246)"/>
<g opacity="0.92">
<path d="M33 29L38 32V36L33 33V29Z" fill="#1648D5"/>
<path fill-rule="evenodd" clip-rule="evenodd" d="M38 26L35.5 27.5L33 29L38 32L43 29L40.5 27.5L38 26Z" fill="url(#paint3_linear_1449_71246)"/>
<path d="M43 29L38 32V36L43 33V29Z" fill="#6CB2F7"/>
</g>
<g opacity="0.92">
<path d="M42 24L47 27V41L42 38V24Z" fill="#1648D5"/>
<path fill-rule="evenodd" clip-rule="evenodd" d="M47 21L44.5 22.5L42 24L47 27L52 24L49.5 22.5L47 21Z" fill="url(#paint4_linear_1449_71246)"/>
<path d="M52 24L47 27V41L52 38V24Z" fill="#6CB2F7"/>
</g>
<g opacity="0.92">
<path d="M52 20L57 23V47L52 44V20Z" fill="#1648D5"/>
<path fill-rule="evenodd" clip-rule="evenodd" d="M57 17L54.5 18.5L52 20L57 23L62 20L59.5 18.5L57 17Z" fill="url(#paint5_linear_1449_71246)"/>
<path d="M62 20L57 23V47L62 44V20Z" fill="#6CB2F7"/>
</g>
<defs>
<linearGradient id="paint0_linear_1449_71246" x1="230.351" y1="55.634" x2="230.351" y2="19" gradientUnits="userSpaceOnUse">
<stop stop-color="#6991C7"/>
<stop offset="1" stop-color="white"/>
</linearGradient>
<linearGradient id="paint1_linear_1449_71246" x1="64" y1="37.9224" x2="29.5045" y2="40.9481" gradientUnits="userSpaceOnUse">
<stop stop-color="#62A9EE"/>
<stop offset="1" stop-color="#2873EE" stop-opacity="0.19"/>
</linearGradient>
<linearGradient id="paint2_linear_1449_71246" x1="39.5" y1="15" x2="39.5" y2="41" gradientUnits="userSpaceOnUse">
<stop stop-color="#6CB2F7"/>
<stop offset="1" stop-color="#6CB2F7" stop-opacity="0.21"/>
</linearGradient>
<linearGradient id="paint3_linear_1449_71246" x1="38" y1="26" x2="38" y2="32" gradientUnits="userSpaceOnUse">
<stop stop-color="#62A9EE"/>
<stop offset="1" stop-color="#2873EE"/>
</linearGradient>
<linearGradient id="paint4_linear_1449_71246" x1="47" y1="21" x2="47" y2="27" gradientUnits="userSpaceOnUse">
<stop stop-color="#62A9EE"/>
<stop offset="1" stop-color="#2873EE"/>
</linearGradient>
<linearGradient id="paint5_linear_1449_71246" x1="57" y1="17" x2="57" y2="23" gradientUnits="userSpaceOnUse">
<stop stop-color="#62A9EE"/>
<stop offset="1" stop-color="#2873EE"/>
</linearGradient>
</defs>
</svg>
