<?xml version="1.0" standalone="no"?><!DOCTYPE svg PUBLIC "-//W3C//DTD SVG 1.1//EN" "http://www.w3.org/Graphics/SVG/1.1/DTD/svg11.dtd"><svg t="1618998709273" class="icon" viewBox="0 0 1024 1024" version="1.1" xmlns="http://www.w3.org/2000/svg" p-id="1776" xmlns:xlink="http://www.w3.org/1999/xlink" width="200" height="200"><defs><style type="text/css"></style></defs><path d="M118.052571 36.278857a53.00419 53.00419 0 0 0-7.460571 20.528762l-0.536381 9.606095C108.105143 138.971429 146.285714 253.17181 179.053714 289.792l1.219048 1.26781-3.754667 3.023238c-8.728381 7.801905-13.945905 19.163429-14.628571 34.328381l0.048762 5.851428c0.341333 5.753905 1.560381 11.117714 3.315809 16.335238l1.024 2.681905 1.121524 5.315048c16.432762 70.509714 70.217143 144.237714 125.025524 167.497142l1.365333 0.48762-1.852952 4.827428c-5.36381 16.62781-1.121524 36.425143 9.849905 54.759619 4.437333 7.41181 9.898667 14.726095 16.188952 22.040381 8.43581 9.801143 16.725333 17.846857 22.674286 23.064381 68.559238 62.268952 127.75619 79.481905 172.519619 66.267429l5.558857-1.852953 3.608381-1.511619 14.628571-4.632381 16.676572-5.071238-18.236953 76.312381-0.828952 4.876191a36.571429 36.571429 0 0 0 36.376381 40.228571l47.104-0.048762-40.374857 160.426667c-9.752381 38.716952 40.667429 62.854095 64.658285 30.963809l228.205715-302.713904 2.876952-4.388572a36.571429 36.571429 0 0 0-32.036571-54.223238H786.529524l12.04419-19.651048 30.378667-50.761142 18.870857-32.426667 18.090667-31.98781c13.165714-23.747048 23.893333-44.178286 31.597714-60.708571l1.26781-3.023238c6.095238-12.873143 10.678857-24.429714 12.873142-34.03581 16.091429-67.535238-29.013333-107.715048-130.291809-148.041143l-11.50781-4.486095c-27.355429-10.48381-137.313524-48.079238-171.495619-60.269714l-5.217523-1.852952A3745.401905 3745.401905 0 0 1 464.213333 138.337524l-39.302095-16.237714c-37.059048-15.408762-74.947048-31.597714-112.737524-48.030477L214.308571 30.915048l-32.475428-14.628572L176.030476 14.140952C151.454476 7.704381 129.609143 17.359238 118.052571 36.278857z m379.708953 588.946286l-7.070476 3.120762 1.755428-0.975238c-5.266286 1.560381-13.750857 1.609143-26.282666-2.048-18.919619-5.510095-41.252571-18.18819-66.998858-39.984762l-13.165714-11.702857a180.321524 180.321524 0 0 1-8.143238-8.192l-1.999238-2.243048 11.068952-1.755429 37.839238-5.412571 121.514667-15.945143c8.825905-1.121524 16.481524-2.048 22.918095-2.779428 45.494857-5.36381 41.691429-72.655238-4.144762-72.899048l-63.731809 0.487619H449.877333l-34.864762-0.390095c-43.690667-0.633905-75.434667-1.999238-88.84419-4.096l-4.486095-1.121524c-24.576-8.289524-60.65981-52.906667-77.433905-98.694095l5.997714 1.560381c23.990857 6.144 60.611048 14.482286 107.715048 24.722285l86.064762 18.334477 109.763047 22.625523c45.543619 9.264762 62.366476-57.197714 17.944381-70.802285L516.437333 339.870476l-61.927619-19.797333a6675.504762 6675.504762 0 0 1-59.830857-19.651048l-64.999619-22.332952c-54.613333-19.407238-94.598095-35.401143-96.060952-37.010286l-3.218286-4.047238c-15.36-21.601524-35.791238-79.140571-43.934476-126.829714l-1.852953-12.385524 41.545143 18.480762c56.612571 25.014857 114.590476 50.029714 170.666667 73.386667l39.789714 16.432761 40.667429 16.432762c19.797333 7.850667 38.619429 15.213714 56.466286 22.040381l34.32838 12.775619c25.84381 9.45981 134.339048 46.518857 169.935239 59.63581l5.753904 2.145524c76.409905 29.257143 100.985905 49.590857 96.694857 67.535238-0.487619 2.096762-1.755429 5.705143-3.754666 10.483809l-6.192762 14.092191-6.582857 13.360762c-7.41181 14.628571-17.408 33.158095-29.354667 54.272l-14.238476 24.966095a4031.829333 4031.829333 0 0 1-44.227048 74.459428l-15.847619 25.84381-2.194285 2.438095a38.278095 38.278095 0 0 0-3.072 4.632381l-24.771048 43.105524-2.145524 4.388571a36.571429 36.571429 0 0 0 33.840762 50.371048h46.031238l-75.190857 99.766857 7.704381-30.573714 0.877714-4.632381a36.571429 36.571429 0 0 0-36.327619-40.862476l-47.689143-0.048762 21.845334-91.038476a36.571429 36.571429 0 0 0-44.080762-44.129524c-28.91581 6.972952-61.293714 16.091429-97.328762 27.696762z" fill="#3664FF" p-id="1777"></path></svg>