<?xml version="1.0" standalone="no"?><!DOCTYPE svg PUBLIC "-//W3C//DTD SVG 1.1//EN" "http://www.w3.org/Graphics/SVG/1.1/DTD/svg11.dtd"><svg t="1625726333934" class="icon" viewBox="0 0 1024 1024" version="1.1" xmlns="http://www.w3.org/2000/svg" p-id="3586" xmlns:xlink="http://www.w3.org/1999/xlink" width="200" height="200"><defs><style type="text/css"></style></defs><path d="M543.04 160.96c194.24 0 352 157.76 352 352s-157.76 352-352 352-352-157.76-352-352 158.08-352 352-352m0-64c-229.76 0-416 186.24-416 416s186.24 416 416 416 416-186.24 416-416-186.24-416-416-416z" fill="#1890ff" p-id="3587"></path><path d="M462.08 294.08V352h64c22.72-1.28 33.28 12.16 32 40v270.08c0 24-11.2 35.2-33.92 33.92h-161.92c-22.72 1.28-32.64-10.56-30.08-36.16v-270.08c-2.56-26.56 7.68-39.36 30.08-38.08h62.08v-57.6c0-12.16 6.4-17.92 18.88-17.92 11.2 0 17.6 5.76 18.88 17.92z m-92.48 240v108.16c-1.28 9.28 3.84 14.08 15.04 14.08h39.68V534.4h-54.72z m16.96-142.08c-12.48 0-18.24 5.44-16.96 16v86.08h54.72v-102.08h-37.76z m118.72 0h-43.2v102.08h58.24v-88c0-9.28-4.8-14.08-15.04-14.08z m-43.2 142.08v121.92h43.2c8.96 1.28 13.76-4.16 15.04-16v-105.92h-58.24z m254.4-240c32.64-2.56 43.2 14.08 32 49.92-5.12 22.72-13.12 53.44-24.64 92.16-6.4 22.72-9.28 34.56-9.28 36.16-1.28 2.56 1.28 9.28 7.68 20.16 27.52 49.28 40.64 97.92 39.68 145.92 1.28 44.16-29.44 65.92-92.16 65.92-13.76-1.28-20.8-8-20.8-20.16 2.56-13.44 10.56-20.16 24.64-20.16 37.76 4.16 54.72-8 50.88-36.16-1.28-37.44-14.4-78.08-39.68-121.92a163.84 163.84 0 0 1-13.12-25.92c-1.28-1.28 0.64-8.64 5.76-22.08 13.76-36.16 24.64-70.72 32-104 2.56-16-1.92-23.36-13.12-22.08h-54.72c-7.36 1.28-11.2 7.36-11.2 17.92v393.92c-1.28 12.16-7.68 17.92-18.88 17.92-12.48 0-18.88-6.08-18.88-17.92V332.16c-5.12-30.72 8-43.2 39.68-38.08h84.16z" fill="#1890ff" p-id="3588"></path></svg>