<?xml version="1.0" standalone="no"?><!DOCTYPE svg PUBLIC "-//W3C//DTD SVG 1.1//EN" "http://www.w3.org/Graphics/SVG/1.1/DTD/svg11.dtd"><svg t="1625719220504" class="icon" viewBox="0 0 3437 1024" version="1.1" xmlns="http://www.w3.org/2000/svg" p-id="6456" xmlns:xlink="http://www.w3.org/1999/xlink" width="671.2890625" height="200"><defs><style type="text/css"></style></defs><path d="M484.427839 114.463962l24.527992-110.375963Q460.913671 16.351995 407.769689 16.351995h-159.938859Q138.991954 15.845083 73.583976 86.878147t-65.407979 154.330125q0.506912 40.373075 12.263996 62.857067 11.757084 23.514168 29.122903 23.514168 8.175997-0.506912 16.858906-6.131998 9.206173-6.131998 9.206173-15.845083 0-10.726908-12.263996-32.703989-15.845083-29.646166-15.845083-61.826891Q47.518896 150.76539 98.111967 98.651583q50.086159-52.637071 140.529042-57.231981l-64.901067 251.918829q-38.329075 152.286125-55.694893 171.189031-17.38217 19.42617-59.782892 26.065079l-5.625086 23.514168q46.505073-8.175997 87.385058-8.175997l110.882876 4.59491q9.206173 0.506912 18.395994-0.506911l6.638909-24.02108q-15.845083 2.550911-34.241076 2.550911-24.02108-0.506912-59.275981-5.625086 35.778164-99.649055 65.914891-229.9581h80.222885q25.558168 0 33.734165 4.59491t8.682909 17.382171q0 8.175997-3.074175 24.527992h22.483992q10.219997-57.738893 22.990905-110.375964h-22.990905q-6.131998 25.034904-14.814907 30.65999-9.713085 5.625086-38.835987 5.118174h-81.253061q21.977081-90.442882 47.518896-183.453027h120.59596q27.602167 0 35.778164 6.131998 8.682909 7.162174 8.68291 23.514168 0 12.263996-6.131998 43.430898h22.483992z m77.671974 391.434046l18.395994-81.253061q17.38217-72.570152 26.571991-98.111967t33.210901-56.72507q22.990904-31.166902 41.910162-46.505072 18.902906-14.814907 52.130159-26.06508 32.197077-11.757084 40.373075-18.395993 8.175997-7.162174 8.175997-19.42617t-8.175997-19.933081q-9.206173-7.162174-20.946905-7.162174-22.990904 0-65.91489 44.967985-43.430898 44.967985-72.046889 91.473058l18.395994-74.614151q5.625086-20.439993 5.625086-28.615991 0-13.801083-18.395993-13.801083-21.470169 0.506912-63.363979 24.527991-41.386898 24.527992-76.658151 62.350156l13.801084 14.814907q48.549072-50.593071 65.91489-50.593071 8.175997 0 8.682909 9.206173-0.506912 16.858906-40.879987 180.902115l-30.153078 112.926875h63.363979z m180.378852-97.605056q0 51.099983 26.571992 80.74615 27.602167 29.122902 72.570151 29.646166 72.046888 0 137.978131-74.090888 65.91489-73.583976 65.91489-168.114856 0.506912-57.231981-26.06508-90.966146-26.571991-33.210901-68.989065-33.734164-88.398883 0-148.198127 79.209061-59.782892 79.715974-59.782892 177.321029z m231.495187-110.882875q0 77.165062-29.646166 133.366868-30.153078 55.187982-71.033064 55.187982-27.602167 0-43.954161-29.122903-17.38217-28.61599-16.858907-80.222885-0.506912-86.354883 31.166902-139.498866 32.197077-53.143982 70.526152-53.143982 27.602167 0.506912 43.954162 29.646166 15.845083 29.646166 15.845082 83.803972z m123.146872-47.011984q50.086159-48.04216 67.451977-47.518896 7.669085-0.506912 7.669086 7.669085 0 9.713085-20.439994 96.067968l-47.518896 199.29811h59.27598l31.690166-141.035953q8.175997-35.2549 22.483992-67.451978 13.801083-32.197077 53.143983-63.363979 38.329075-30.65999 51.099983-30.65999 13.294172 0.506912 13.294171 13.294172 0 10.219997-6.131998 33.734165l-65.407978 256.530091h59.275981q10.219997-43.954161 29.122902-118.045049 19.933081-74.090887 30.153078-97.605056 11.757084-22.990904 30.153078-41.910162 17.889082-18.395994 39.866163-31.166901 22.483993-12.770908 31.690165-13.294172 12.770908 0 12.263996 14.814907 0.506912 11.757084-21.470169 85.847971-41.386898 137.454866-41.386898 167.607945 0 16.858906 9.206173 31.166901 9.206173 14.814907 25.558167 14.814908 15.845083 0 35.254901-11.757085 20.439993-11.250172 83.803972-70.002888l-13.801084-15.338171q-49.562896 49.562896-64.901066 49.562895-12.770908 0-12.770908-14.814907 0-21.470169 48.549072-178.858116 19.42617-64.901066 19.933081-88.398883-0.506912-16.858906-10.726908-27.078903-10.726908-10.219997-25.558168-9.713085-20.439993 0-56.218157 20.439993-35.778164 20.946905-83.29706 71.033065 12.263996-37.822163 12.263996-59.27598 0-31.166902-27.602167-31.690166-53.143982 0-153.806861 102.706878 7.162174-37.822163 12.770908-56.218157 7.162174-22.990904 7.162173-33.210901 0-13.801083-16.858906-13.801084-24.527992 0-61.826892 20.439993-36.285076 20.946905-75.627974 60.306156l12.263996 16.858907z m570.27581 156.357772q-17.38217-0.506912-28.109079 13.294171-13.801083 18.395994-13.801083 42.417074 0 16.351995 10.219997 26.571992 10.219997 10.726908 25.558167 10.726908 17.889082 0 29.122902-13.801083 11.757084-14.307995 11.757085-39.342899 0-16.858906-10.219997-28.109079-10.219997-11.757084-24.527992-11.757084z m54.157806-235.059922q-17.38217 0.506912-28.109079 13.294172-13.801083 17.38217-13.801083 41.386898 0 16.351995 10.219997 27.078903t25.034903 10.726908q18.902906 0 30.153078-13.801083 11.757084-13.801083 11.757084-39.342899 0-16.858906-10.219996-28.615991-10.219997-10.219997-25.034904-10.726908z" p-id="6457"></path></svg>