<?xml version="1.0" standalone="no"?><!DOCTYPE svg PUBLIC "-//W3C//DTD SVG 1.1//EN" "http://www.w3.org/Graphics/SVG/1.1/DTD/svg11.dtd"><svg t="1619084097907" class="icon" viewBox="0 0 1024 1024" version="1.1" xmlns="http://www.w3.org/2000/svg" p-id="7645" xmlns:xlink="http://www.w3.org/1999/xlink" width="200" height="200"><defs><style type="text/css"></style></defs><path d="M0 0h1024v1024H0z" fill="#FFFFFF" p-id="7646"></path><path d="M947.2 716.8H76.8a25.6 25.6 0 0 0-25.6 25.6v153.6a25.6 25.6 0 0 0 25.6 25.6h870.4a25.6 25.6 0 0 0 25.6-25.6v-153.6a25.6 25.6 0 0 0-25.6-25.6zM204.8 870.4H102.4v-102.4h102.4z m153.6 0h-102.4v-102.4h102.4z m153.6 0h-102.4v-102.4h102.4zM947.2 102.4H76.8a25.6 25.6 0 0 0-25.6 25.6v153.6a25.6 25.6 0 0 0 25.6 25.6h870.4a25.6 25.6 0 0 0 25.6-25.6V128a25.6 25.6 0 0 0-25.6-25.6zM204.8 256H102.4V153.6h102.4z m153.6 0h-102.4V153.6h102.4z m153.6 0h-102.4V153.6h102.4z m435.2 153.6H76.8a25.6 25.6 0 0 0-25.6 25.6v153.6a25.6 25.6 0 0 0 25.6 25.6h870.4a25.6 25.6 0 0 0 25.6-25.6v-153.6a25.6 25.6 0 0 0-25.6-25.6zM204.8 563.2H102.4v-102.4h102.4z m153.6 0h-102.4v-102.4h102.4z m153.6 0h-102.4v-102.4h102.4z" fill="#188CFF" p-id="7647"></path><path d="M947.2 716.8H76.8a25.6 25.6 0 0 0-25.6 25.6v153.6a25.6 25.6 0 0 0 25.6 25.6h870.4a25.6 25.6 0 0 0 25.6-25.6v-153.6a25.6 25.6 0 0 0-25.6-25.6zM204.8 870.4H102.4v-102.4h102.4z m153.6 0h-102.4v-102.4h102.4z m153.6 0h-102.4v-102.4h102.4zM947.2 102.4H76.8a25.6 25.6 0 0 0-25.6 25.6v153.6a25.6 25.6 0 0 0 25.6 25.6h870.4a25.6 25.6 0 0 0 25.6-25.6V128a25.6 25.6 0 0 0-25.6-25.6zM204.8 256H102.4V153.6h102.4z m153.6 0h-102.4V153.6h102.4z m153.6 0h-102.4V153.6h102.4z" fill="#99C7F5" p-id="7648"></path></svg>