<?xml version="1.0" standalone="no"?><!DOCTYPE svg PUBLIC "-//W3C//DTD SVG 1.1//EN" "http://www.w3.org/Graphics/SVG/1.1/DTD/svg11.dtd"><svg t="1619083515543" class="icon" viewBox="0 0 1024 1024" version="1.1" xmlns="http://www.w3.org/2000/svg" p-id="1672" xmlns:xlink="http://www.w3.org/1999/xlink" width="200" height="200"><defs><style type="text/css"></style></defs><path d="M981.333333 165.12A122.453333 122.453333 0 0 0 858.88 42.666667H165.12A122.453333 122.453333 0 0 0 42.666667 165.12v122.453333a121.813333 121.813333 0 0 0 31.36 81.493334A121.813333 121.813333 0 0 0 42.666667 450.773333v122.453334a121.813333 121.813333 0 0 0 31.36 81.706666A121.813333 121.813333 0 0 0 42.666667 736.426667v122.453333A122.453333 122.453333 0 0 0 165.12 981.333333h693.76A122.453333 122.453333 0 0 0 981.333333 858.88v-122.453333a121.813333 121.813333 0 0 0-31.36-81.706667A121.813333 121.813333 0 0 0 981.333333 573.226667v-122.453334a121.813333 121.813333 0 0 0-31.36-81.706666A121.813333 121.813333 0 0 0 981.333333 287.573333zM124.373333 185.6A61.226667 61.226667 0 0 1 185.6 124.373333h652.8a61.226667 61.226667 0 0 1 61.226667 61.226667v81.706667a61.226667 61.226667 0 0 1-61.226667 61.226666H185.6a61.226667 61.226667 0 0 1-61.226667-61.226666z m775.253334 367.146667a61.226667 61.226667 0 0 1-61.226667 61.226666H185.6a61.226667 61.226667 0 0 1-61.226667-61.226666v-81.493334a61.226667 61.226667 0 0 1 61.226667-61.226666h652.8a61.226667 61.226667 0 0 1 61.226667 61.226666z m0 285.653333a61.226667 61.226667 0 0 1-61.226667 61.226667H185.6a61.226667 61.226667 0 0 1-61.226667-61.226667v-81.493333a61.226667 61.226667 0 0 1 61.226667-61.226667h652.8a61.226667 61.226667 0 0 1 61.226667 61.226667z" p-id="1673"></path><path d="M348.8 267.093333H512a40.746667 40.746667 0 1 0 0-81.493333h-163.2a40.746667 40.746667 0 1 0 0 81.706667z" p-id="1674"></path><path d="M216.106667 226.346667m-40.746667 0a40.746667 40.746667 0 1 0 81.493333 0 40.746667 40.746667 0 1 0-81.493333 0Z" p-id="1675"></path><path d="M348.8 471.253333h-132.693333a40.746667 40.746667 0 0 0 0 81.706667h132.693333a40.746667 40.746667 0 0 0 0-81.706667zM613.973333 471.253333h-132.48a40.746667 40.746667 0 0 0 0 81.706667h132.693334a40.746667 40.746667 0 0 0 0-81.706667zM512 756.906667h-163.2a40.746667 40.746667 0 0 0 0 81.706666H512a40.746667 40.746667 0 0 0 0-81.706666z" p-id="1676"></path><path d="M216.106667 797.653333m-40.746667 0a40.746667 40.746667 0 1 0 81.493333 0 40.746667 40.746667 0 1 0-81.493333 0Z" p-id="1677"></path></svg>