<?xml version="1.0" standalone="no"?><!DOCTYPE svg PUBLIC "-//W3C//DTD SVG 1.1//EN" "http://www.w3.org/Graphics/SVG/1.1/DTD/svg11.dtd"><svg t="1638236430006" class="icon" viewBox="0 0 1024 1024" version="1.1" xmlns="http://www.w3.org/2000/svg" p-id="2480" xmlns:xlink="http://www.w3.org/1999/xlink" width="200" height="200"><defs><style type="text/css"></style></defs><path d="M921.261301 91.448732 105.561191 91.448732c-44.595369 0-80.723264 33.869901-80.723264 80.723264l0 561.111356c0 44.595369 33.869901 80.723264 80.723264 80.723264l276.039691 0c0 5.644983-1.693495 10.725469-1.693495 16.370452-1.693495 16.370452-10.725469 33.869901-10.725469 33.869901-1.693495 1.693495-5.644983 7.338479-5.644983 7.338479-7.338479 7.338479-10.725469 16.370452-10.725469 27.095921 0 21.450937 16.370452 33.869901 33.869901 33.869901l257.975744 0c18.063947 0 30.482911-16.370452 30.482911-33.869901 0-10.725469-1.693495-18.063947-10.725469-27.095921 0-1.693495-1.693495-1.693495-1.693495-1.693495-5.644983-5.080485-10.725469-10.725469-16.370452-57.578831l270.394708 0c44.595369 0 80.723264-33.869901 80.723264-80.723264L997.468578 168.785006C1001.984564 127.576626 965.85667 91.448732 921.261301 91.448732zM939.325248 591.594267c0 7.338479-7.338479 16.370452-16.370452 16.370452L105.561191 607.964719c-7.338479 0-16.370452-7.338479-16.370452-16.370452L89.190739 161.446527c0-7.338479 7.338479-16.370452 16.370452-16.370452l819.0871 0c7.338479 0 16.370452 7.338479 16.370452 16.370452l0 430.14774L939.325248 591.594267z" p-id="2481" fill="#1296db"></path></svg>