<?xml version="1.0" standalone="no"?><!DOCTYPE svg PUBLIC "-//W3C//DTD SVG 1.1//EN" "http://www.w3.org/Graphics/SVG/1.1/DTD/svg11.dtd"><svg t="1620921202167" class="icon" viewBox="0 0 1024 1024" version="1.1" xmlns="http://www.w3.org/2000/svg" p-id="3265" xmlns:xlink="http://www.w3.org/1999/xlink" width="200" height="200"><defs><style type="text/css"></style></defs><path d="M512.54816 787.340923c-151.328789 0-274.664858-123.299525-274.664858-274.664859 0-151.292245 123.336069-274.628314 274.664858-274.628314 151.292245 0 274.664858 123.299525 274.664859 274.628314 0 151.365333-123.336069 274.664858-274.664859 274.664859z m0-615.547482a36.068948 36.068948 0 0 1-36.105492-36.068949V36.617109a36.068948 36.068948 0 1 1 72.174441 0v99.619c0 19.368331-16.152457 35.557332-36.068949 35.557332z m0 851.987295a36.068948 36.068948 0 0 1-36.105492-36.105492v-99.619a36.068948 36.068948 0 0 1 72.174441 0v99.619a36.068948 36.068948 0 0 1-36.068949 36.105492z m266.04047-741.587809a35.959316 35.959316 0 0 1-25.325006-10.780486 35.776596 35.776596 0 0 1 0-50.613469l70.529959-70.529959a35.740052 35.740052 0 1 1 50.650013 50.613468l-70.52996 70.52996a35.959316 35.959316 0 0 1-25.325006 10.780486zM175.977731 884.292209a35.959316 35.959316 0 0 1-25.325006-10.780486 35.776596 35.776596 0 0 1 0-50.613468l70.529959-70.52996a35.740052 35.740052 0 1 1 50.613469 50.613469l-70.52996 70.529959a33.035795 33.035795 0 0 1-25.325006 10.780486z m812.081225-336.058813h-99.619a36.068948 36.068948 0 0 1 0-72.17444h99.619a36.068948 36.068948 0 0 1 0 72.17444z m-851.439135 0H37.000821a36.068948 36.068948 0 0 1 0-72.17444h99.619c19.953035 0 36.105492 16.152457 36.105492 36.105492a36.434388 36.434388 0 0 1-36.105492 36.068948z m712.498769 336.058813a35.959316 35.959316 0 0 1-25.288463-10.780486l-70.529959-70.529959a35.776596 35.776596 0 1 1 50.576924-50.650013l70.52996 70.52996a35.740052 35.740052 0 0 1 0 50.650012 33.839763 33.839763 0 0 1-25.288462 10.780486zM246.507691 282.192927a35.959316 35.959316 0 0 1-25.325007-10.780486l-70.529959-69.9818a35.776596 35.776596 0 1 1 50.613468-50.650012l70.52996 70.529959a35.740052 35.740052 0 0 1 0 50.650013c-6.979908 6.468292-16.152457 10.232326-25.288462 10.232326z" fill="#FFA127" p-id="3266"></path></svg>