<svg id="svg" version="1.1" xmlns="http://www.w3.org/2000/svg" xmlns:xlink="http://www.w3.org/1999/xlink" width="400" height="400" viewBox="0, 0, 400,400"><g id="svgg"><path id="path0" d="M106.000 81.374 C 84.522 85.379,68.000 104.310,63.736 129.800 C 62.605 136.562,62.597 267.360,63.727 274.200 C 68.095 300.636,85.611 320.130,107.729 323.170 C 112.119 323.773,283.905 323.772,288.244 323.169 C 310.465 320.078,328.579 299.742,332.191 273.830 C 333.093 267.358,333.108 136.734,332.207 130.317 C 328.676 105.163,311.363 85.159,289.845 81.372 C 285.420 80.594,110.177 80.596,106.000 81.374 M143.102 150.100 L 143.204 184.800 154.602 184.800 L 166.000 184.800 166.000 200.200 L 166.000 215.600 154.602 215.600 L 143.203 215.600 143.102 262.300 L 143.000 309.000 134.891 309.108 C 128.540 309.193,126.738 309.104,126.582 308.698 C 126.473 308.413,126.342 287.394,126.292 261.990 L 126.200 215.800 109.100 215.696 L 92.000 215.591 92.000 200.196 L 92.000 184.800 109.208 184.800 L 126.417 184.800 126.400 150.500 C 126.390 131.635,126.387 115.971,126.391 115.692 C 126.398 115.294,128.203 115.207,134.700 115.292 L 143.000 115.400 143.102 150.100 M209.101 177.700 L 209.203 240.000 223.201 240.000 L 237.200 240.000 237.200 255.400 L 237.200 270.800 223.204 270.800 L 209.208 270.800 209.104 289.900 L 209.000 309.000 200.829 309.109 C 194.559 309.192,192.583 309.099,192.335 308.709 C 192.157 308.429,192.009 299.785,192.006 289.500 L 192.000 270.800 177.400 270.800 L 162.800 270.800 162.800 255.400 L 162.800 240.000 177.400 240.000 L 192.000 240.000 192.000 177.867 C 192.000 143.693,192.124 115.610,192.275 115.459 C 192.426 115.308,196.251 115.233,200.775 115.292 L 209.000 115.400 209.101 177.700 M271.357 115.833 C 271.491 116.181,271.600 121.401,271.600 127.433 L 271.600 138.400 287.000 138.400 L 302.400 138.400 302.400 153.800 L 302.400 169.200 287.000 169.200 L 271.600 169.200 271.594 238.700 C 271.591 276.925,271.443 308.429,271.265 308.709 C 271.017 309.099,269.041 309.192,262.771 309.109 L 254.600 309.000 254.499 239.100 L 254.398 169.200 241.399 169.200 L 228.400 169.200 228.400 153.800 L 228.400 138.400 241.400 138.400 L 254.400 138.400 254.400 127.067 C 254.400 120.833,254.520 115.613,254.667 115.467 C 255.306 114.828,271.104 115.174,271.357 115.833 M235.200 153.800 L 235.200 162.400 265.400 162.400 L 295.600 162.400 295.600 153.800 L 295.600 145.200 265.400 145.200 L 235.200 145.200 235.200 153.800 M98.800 200.200 L 98.800 208.800 129.000 208.800 L 159.200 208.800 159.200 200.200 L 159.200 191.600 129.000 191.600 L 98.800 191.600 98.800 200.200 M169.600 255.400 L 169.600 264.000 200.000 264.000 L 230.400 264.000 230.400 255.400 L 230.400 246.800 200.000 246.800 L 169.600 246.800 169.600 255.400 " stroke="none" fill="#fbfbfb" fill-rule="evenodd"></path><path id="path1" d="M181.045 0.423 C 178.650 0.620,175.230 0.968,173.445 1.196 C 171.660 1.424,169.705 1.605,169.100 1.599 C 168.495 1.593,168.000 1.738,168.000 1.922 C 168.000 2.106,166.068 2.481,163.707 2.755 C 161.346 3.029,159.321 3.389,159.207 3.555 C 159.093 3.720,157.065 4.183,154.700 4.583 C 152.335 4.983,150.400 5.437,150.400 5.591 C 150.400 5.746,149.140 6.097,147.600 6.372 C 146.060 6.647,144.800 7.000,144.800 7.156 C 144.800 7.312,143.675 7.671,142.300 7.953 C 140.925 8.235,139.260 8.710,138.600 9.009 C 137.940 9.308,136.590 9.761,135.600 10.016 C 134.610 10.270,133.575 10.663,133.300 10.888 C 133.025 11.114,132.800 11.164,132.800 11.000 C 132.800 10.836,132.575 10.876,132.300 11.089 C 132.025 11.302,130.945 11.707,129.900 11.990 C 128.855 12.273,128.000 12.625,128.000 12.773 C 128.000 12.920,126.830 13.376,125.400 13.785 C 123.970 14.194,122.800 14.640,122.800 14.777 C 122.800 14.914,121.990 15.265,121.000 15.557 C 120.010 15.849,119.200 16.209,119.200 16.357 C 119.200 16.505,118.380 16.867,117.378 17.163 C 116.376 17.459,115.341 17.917,115.078 18.180 C 114.815 18.442,113.745 18.984,112.700 19.383 C 111.655 19.782,110.800 20.236,110.800 20.391 C 110.800 20.546,110.080 20.889,109.200 21.153 C 108.320 21.416,107.600 21.769,107.600 21.937 C 107.600 22.105,106.700 22.566,105.600 22.961 C 104.500 23.357,103.600 23.809,103.600 23.966 C 103.600 24.122,102.970 24.498,102.200 24.800 C 101.430 25.102,100.800 25.469,100.800 25.614 C 100.800 25.760,99.990 26.213,99.000 26.622 C 98.010 27.030,97.200 27.478,97.200 27.618 C 97.200 27.757,96.705 28.093,96.100 28.363 C 94.996 28.856,91.975 30.787,91.600 31.239 C 91.490 31.372,90.950 31.711,90.400 31.993 C 88.462 32.986,85.600 34.939,85.600 35.267 C 85.600 35.450,85.375 35.600,85.100 35.601 C 84.825 35.601,83.970 36.141,83.200 36.800 C 82.430 37.459,81.635 37.999,81.434 37.999 C 81.077 38.000,80.535 38.445,78.632 40.300 C 78.124 40.795,77.505 41.200,77.258 41.200 C 77.010 41.200,76.582 41.560,76.307 42.000 C 76.032 42.440,75.650 42.800,75.457 42.800 C 75.120 42.800,73.650 43.940,70.938 46.301 C 70.244 46.905,68.732 48.210,67.577 49.200 C 64.856 51.533,51.533 64.856,49.200 67.577 C 48.210 68.732,46.905 70.244,46.301 70.938 C 43.940 73.650,42.800 75.120,42.800 75.457 C 42.800 75.650,42.440 76.032,42.000 76.307 C 41.560 76.582,41.200 77.010,41.200 77.258 C 41.200 77.505,40.795 78.124,40.300 78.632 C 38.445 80.535,38.000 81.077,37.999 81.434 C 37.999 81.635,37.459 82.430,36.800 83.200 C 36.141 83.970,35.601 84.825,35.601 85.100 C 35.600 85.375,35.450 85.600,35.267 85.600 C 34.939 85.600,32.986 88.462,31.993 90.400 C 31.711 90.950,31.372 91.490,31.239 91.600 C 30.787 91.975,28.856 94.996,28.363 96.100 C 28.093 96.705,27.757 97.200,27.618 97.200 C 27.478 97.200,27.030 98.010,26.622 99.000 C 26.213 99.990,25.760 100.800,25.614 100.800 C 25.469 100.800,25.102 101.430,24.800 102.200 C 24.498 102.970,24.122 103.600,23.966 103.600 C 23.809 103.600,23.357 104.500,22.961 105.600 C 22.566 106.700,22.105 107.600,21.937 107.600 C 21.769 107.600,21.416 108.320,21.153 109.200 C 20.889 110.080,20.546 110.800,20.391 110.800 C 20.236 110.800,19.782 111.655,19.383 112.700 C 18.984 113.745,18.442 114.815,18.180 115.078 C 17.917 115.341,17.459 116.376,17.163 117.378 C 16.867 118.380,16.505 119.200,16.357 119.200 C 16.209 119.200,15.849 120.010,15.557 121.000 C 15.265 121.990,14.914 122.800,14.777 122.800 C 14.640 122.800,14.194 123.970,13.785 125.400 C 13.376 126.830,12.920 128.000,12.773 128.000 C 12.625 128.000,12.273 128.855,11.990 129.900 C 11.707 130.945,11.302 132.025,11.089 132.300 C 10.876 132.575,10.836 132.800,11.000 132.800 C 11.164 132.800,11.114 133.025,10.888 133.300 C 10.663 133.575,10.270 134.610,10.016 135.600 C 9.761 136.590,9.308 137.940,9.009 138.600 C 8.710 139.260,8.235 140.925,7.953 142.300 C 7.671 143.675,7.312 144.800,7.156 144.800 C 7.000 144.800,6.647 146.060,6.372 147.600 C 6.097 149.140,5.746 150.400,5.591 150.400 C 5.437 150.400,4.983 152.335,4.583 154.700 C 4.183 157.065,3.720 159.093,3.555 159.207 C 3.389 159.321,3.029 161.346,2.755 163.707 C 2.481 166.068,2.106 168.000,1.922 168.000 C 1.738 168.000,1.591 168.495,1.594 169.100 C 1.598 169.705,1.303 172.540,0.938 175.400 C -0.028 182.965,-0.028 217.035,0.938 224.600 C 1.303 227.460,1.598 230.295,1.594 230.900 C 1.591 231.505,1.738 232.000,1.922 232.000 C 2.106 232.000,2.481 233.932,2.755 236.293 C 3.029 238.654,3.389 240.679,3.555 240.793 C 3.720 240.907,4.183 242.935,4.583 245.300 C 4.983 247.665,5.437 249.600,5.591 249.600 C 5.746 249.600,6.097 250.860,6.372 252.400 C 6.647 253.940,7.000 255.200,7.156 255.200 C 7.312 255.200,7.671 256.325,7.953 257.700 C 8.235 259.075,8.710 260.740,9.009 261.400 C 9.308 262.060,9.761 263.410,10.016 264.400 C 10.270 265.390,10.663 266.425,10.888 266.700 C 11.114 266.975,11.164 267.200,11.000 267.200 C 10.836 267.200,10.876 267.425,11.089 267.700 C 11.302 267.975,11.707 269.055,11.990 270.100 C 12.273 271.145,12.625 272.000,12.773 272.000 C 12.920 272.000,13.376 273.170,13.785 274.600 C 14.194 276.030,14.640 277.200,14.777 277.200 C 14.914 277.200,15.265 278.010,15.557 279.000 C 15.849 279.990,16.209 280.800,16.357 280.800 C 16.505 280.800,16.867 281.620,17.163 282.622 C 17.459 283.624,17.917 284.659,18.180 284.922 C 18.442 285.185,18.984 286.255,19.383 287.300 C 19.782 288.345,20.236 289.200,20.391 289.200 C 20.546 289.200,20.889 289.920,21.153 290.800 C 21.416 291.680,21.769 292.400,21.937 292.400 C 22.105 292.400,22.566 293.300,22.961 294.400 C 23.357 295.500,23.809 296.400,23.966 296.400 C 24.122 296.400,24.498 297.030,24.800 297.800 C 25.102 298.570,25.469 299.200,25.614 299.200 C 25.760 299.200,26.213 300.010,26.622 301.000 C 27.030 301.990,27.478 302.800,27.618 302.800 C 27.757 302.800,28.093 303.295,28.363 303.900 C 28.856 305.004,30.787 308.025,31.239 308.400 C 31.372 308.510,31.711 309.050,31.993 309.600 C 32.986 311.538,34.939 314.400,35.267 314.400 C 35.450 314.400,35.600 314.625,35.601 314.900 C 35.601 315.175,36.141 316.030,36.800 316.800 C 37.459 317.570,37.999 318.365,37.999 318.566 C 38.000 318.923,38.445 319.465,40.300 321.368 C 40.795 321.876,41.200 322.495,41.200 322.742 C 41.200 322.990,41.560 323.418,42.000 323.693 C 42.440 323.968,42.800 324.350,42.800 324.543 C 42.800 324.959,44.035 326.483,49.200 332.444 C 51.606 335.221,64.936 348.535,67.577 350.800 C 68.732 351.790,70.244 353.095,70.938 353.699 C 73.650 356.060,75.120 357.200,75.457 357.200 C 75.650 357.200,76.032 357.560,76.307 358.000 C 76.582 358.440,77.010 358.800,77.258 358.800 C 77.505 358.800,78.124 359.205,78.632 359.700 C 80.535 361.555,81.077 362.000,81.434 362.001 C 81.635 362.001,82.430 362.541,83.200 363.200 C 83.970 363.859,84.825 364.399,85.100 364.399 C 85.375 364.400,85.600 364.550,85.600 364.733 C 85.600 365.061,88.462 367.014,90.400 368.007 C 90.950 368.289,91.490 368.628,91.600 368.761 C 91.975 369.213,94.996 371.144,96.100 371.637 C 96.705 371.907,97.200 372.246,97.200 372.390 C 97.200 372.533,97.830 372.898,98.600 373.200 C 99.370 373.502,100.000 373.869,100.000 374.014 C 100.000 374.160,100.810 374.613,101.800 375.022 C 102.790 375.430,103.600 375.889,103.600 376.042 C 103.600 376.195,104.500 376.643,105.600 377.039 C 106.700 377.434,107.600 377.895,107.600 378.063 C 107.600 378.231,108.320 378.584,109.200 378.847 C 110.080 379.111,110.800 379.454,110.800 379.609 C 110.800 379.764,111.655 380.218,112.700 380.617 C 113.745 381.016,114.815 381.558,115.078 381.820 C 115.341 382.083,116.376 382.541,117.378 382.837 C 118.380 383.133,119.200 383.495,119.200 383.643 C 119.200 383.791,120.010 384.151,121.000 384.443 C 121.990 384.735,122.800 385.086,122.800 385.223 C 122.800 385.360,123.970 385.806,125.400 386.215 C 126.830 386.624,128.000 387.080,128.000 387.227 C 128.000 387.375,128.855 387.727,129.900 388.010 C 130.945 388.293,131.980 388.659,132.200 388.824 C 132.420 388.989,133.680 389.426,135.000 389.794 C 136.320 390.162,137.940 390.704,138.600 390.999 C 139.260 391.293,140.925 391.765,142.300 392.047 C 143.675 392.329,144.800 392.688,144.800 392.844 C 144.800 393.000,146.060 393.353,147.600 393.628 C 149.140 393.903,150.400 394.254,150.400 394.409 C 150.400 394.563,152.335 395.017,154.700 395.417 C 157.065 395.817,159.091 396.276,159.202 396.437 C 159.313 396.599,161.293 396.956,163.602 397.231 C 165.911 397.507,167.892 397.868,168.004 398.035 C 169.580 400.368,230.420 400.368,231.996 398.035 C 232.108 397.868,234.089 397.507,236.398 397.231 C 238.707 396.956,240.687 396.599,240.798 396.437 C 240.909 396.276,242.935 395.817,245.300 395.417 C 247.665 395.017,249.600 394.563,249.600 394.409 C 249.600 394.254,250.860 393.903,252.400 393.628 C 253.940 393.353,255.200 393.000,255.200 392.844 C 255.200 392.688,256.325 392.329,257.700 392.047 C 259.075 391.765,260.740 391.293,261.400 390.999 C 262.060 390.704,263.680 390.162,265.000 389.794 C 266.320 389.426,267.580 388.989,267.800 388.824 C 268.020 388.659,269.055 388.293,270.100 388.010 C 271.145 387.727,272.000 387.375,272.000 387.227 C 272.000 387.080,273.170 386.624,274.600 386.215 C 276.030 385.806,277.200 385.360,277.200 385.223 C 277.200 385.086,278.010 384.735,279.000 384.443 C 279.990 384.151,280.800 383.791,280.800 383.643 C 280.800 383.495,281.620 383.133,282.622 382.837 C 283.624 382.541,284.659 382.083,284.922 381.820 C 285.185 381.558,286.255 381.016,287.300 380.617 C 288.345 380.218,289.200 379.764,289.200 379.609 C 289.200 379.454,289.920 379.111,290.800 378.847 C 291.680 378.584,292.400 378.231,292.400 378.063 C 292.400 377.895,293.300 377.434,294.400 377.039 C 295.500 376.643,296.400 376.195,296.400 376.042 C 296.400 375.889,297.210 375.430,298.200 375.022 C 299.190 374.613,300.000 374.160,300.000 374.014 C 300.000 373.869,300.630 373.502,301.400 373.200 C 302.170 372.898,302.800 372.533,302.800 372.390 C 302.800 372.246,303.295 371.907,303.900 371.637 C 305.004 371.144,308.025 369.213,308.400 368.761 C 308.510 368.628,309.050 368.289,309.600 368.007 C 311.538 367.014,314.400 365.061,314.400 364.733 C 314.400 364.550,314.625 364.400,314.900 364.399 C 315.175 364.399,316.030 363.859,316.800 363.200 C 317.570 362.541,318.365 362.001,318.566 362.001 C 318.923 362.000,319.465 361.555,321.368 359.700 C 321.876 359.205,322.486 358.800,322.723 358.800 C 322.960 358.800,323.390 358.468,323.677 358.063 C 323.965 357.658,324.400 357.253,324.645 357.163 C 325.205 356.958,327.276 355.368,329.025 353.800 C 329.762 353.140,331.300 351.790,332.443 350.800 C 335.137 348.467,348.467 335.137,350.800 332.443 C 351.790 331.300,353.140 329.762,353.800 329.025 C 355.368 327.276,356.958 325.205,357.163 324.645 C 357.253 324.400,357.658 323.965,358.063 323.677 C 358.468 323.390,358.800 322.960,358.800 322.723 C 358.800 322.486,359.205 321.876,359.700 321.368 C 361.555 319.465,362.000 318.923,362.001 318.566 C 362.001 318.365,362.541 317.570,363.200 316.800 C 363.859 316.030,364.399 315.175,364.399 314.900 C 364.400 314.625,364.550 314.400,364.733 314.400 C 365.061 314.400,367.014 311.538,368.007 309.600 C 368.289 309.050,368.628 308.510,368.761 308.400 C 369.213 308.025,371.144 305.004,371.637 303.900 C 371.907 303.295,372.246 302.800,372.390 302.800 C 372.533 302.800,372.898 302.170,373.200 301.400 C 373.502 300.630,373.869 300.000,374.014 300.000 C 374.160 300.000,374.613 299.190,375.022 298.200 C 375.430 297.210,375.889 296.400,376.042 296.400 C 376.195 296.400,376.643 295.500,377.039 294.400 C 377.434 293.300,377.895 292.400,378.063 292.400 C 378.231 292.400,378.584 291.680,378.847 290.800 C 379.111 289.920,379.454 289.200,379.609 289.200 C 379.764 289.200,380.218 288.345,380.617 287.300 C 381.016 286.255,381.558 285.185,381.820 284.922 C 382.083 284.659,382.541 283.624,382.837 282.622 C 383.133 281.620,383.495 280.800,383.643 280.800 C 383.791 280.800,384.151 279.990,384.443 279.000 C 384.735 278.010,385.086 277.200,385.223 277.200 C 385.360 277.200,385.806 276.030,386.215 274.600 C 386.624 273.170,387.080 272.000,387.227 272.000 C 387.375 272.000,387.727 271.145,388.010 270.100 C 388.293 269.055,388.659 268.020,388.824 267.800 C 388.989 267.580,389.426 266.320,389.794 265.000 C 390.162 263.680,390.704 262.060,390.999 261.400 C 391.293 260.740,391.765 259.075,392.047 257.700 C 392.329 256.325,392.688 255.200,392.844 255.200 C 393.000 255.200,393.353 253.940,393.628 252.400 C 393.903 250.860,394.254 249.600,394.409 249.600 C 394.563 249.600,395.017 247.665,395.417 245.300 C 395.817 242.935,396.276 240.909,396.437 240.798 C 396.599 240.687,396.956 238.707,397.231 236.398 C 397.507 234.089,397.868 232.108,398.035 231.996 C 400.368 230.420,400.368 169.580,398.035 168.004 C 397.868 167.892,397.507 165.911,397.231 163.602 C 396.956 161.293,396.599 159.313,396.437 159.202 C 396.276 159.091,395.817 157.065,395.417 154.700 C 395.017 152.335,394.563 150.400,394.409 150.400 C 394.254 150.400,393.903 149.140,393.628 147.600 C 393.353 146.060,393.000 144.800,392.844 144.800 C 392.688 144.800,392.329 143.675,392.047 142.300 C 391.765 140.925,391.293 139.260,390.999 138.600 C 390.704 137.940,390.162 136.320,389.794 135.000 C 389.426 133.680,388.989 132.420,388.824 132.200 C 388.659 131.980,388.293 130.945,388.010 129.900 C 387.727 128.855,387.375 128.000,387.227 128.000 C 387.080 128.000,386.624 126.830,386.215 125.400 C 385.806 123.970,385.360 122.800,385.223 122.800 C 385.086 122.800,384.735 121.990,384.443 121.000 C 384.151 120.010,383.791 119.200,383.643 119.200 C 383.495 119.200,383.133 118.380,382.837 117.378 C 382.541 116.376,382.083 115.341,381.820 115.078 C 381.558 114.815,381.016 113.745,380.617 112.700 C 380.218 111.655,379.764 110.800,379.609 110.800 C 379.454 110.800,379.111 110.080,378.847 109.200 C 378.584 108.320,378.231 107.600,378.063 107.600 C 377.895 107.600,377.434 106.700,377.039 105.600 C 376.643 104.500,376.195 103.600,376.042 103.600 C 375.889 103.600,375.430 102.790,375.022 101.800 C 374.613 100.810,374.160 100.000,374.014 100.000 C 373.869 100.000,373.502 99.370,373.200 98.600 C 372.898 97.830,372.533 97.200,372.390 97.200 C 372.246 97.200,371.907 96.705,371.637 96.100 C 371.144 94.996,369.213 91.975,368.761 91.600 C 368.628 91.490,368.289 90.950,368.007 90.400 C 367.014 88.462,365.061 85.600,364.733 85.600 C 364.550 85.600,364.400 85.375,364.399 85.100 C 364.399 84.825,363.859 83.970,363.200 83.200 C 362.541 82.430,362.001 81.635,362.001 81.434 C 362.000 81.077,361.555 80.535,359.700 78.632 C 359.205 78.124,358.800 77.505,358.800 77.258 C 358.800 77.010,358.440 76.582,358.000 76.307 C 357.560 76.032,357.200 75.650,357.200 75.457 C 357.200 75.120,356.060 73.650,353.699 70.938 C 353.095 70.244,351.790 68.732,350.800 67.577 C 348.535 64.936,335.221 51.606,332.444 49.200 C 326.483 44.035,324.959 42.800,324.543 42.800 C 324.350 42.800,323.968 42.440,323.693 42.000 C 323.418 41.560,322.990 41.200,322.742 41.200 C 322.495 41.200,321.876 40.795,321.368 40.300 C 319.465 38.445,318.923 38.000,318.566 37.999 C 318.365 37.999,317.570 37.459,316.800 36.800 C 316.030 36.141,315.175 35.601,314.900 35.601 C 314.625 35.600,314.400 35.450,314.400 35.267 C 314.400 34.939,311.538 32.986,309.600 31.993 C 309.050 31.711,308.510 31.372,308.400 31.239 C 308.025 30.787,305.004 28.856,303.900 28.363 C 303.295 28.093,302.800 27.757,302.800 27.618 C 302.800 27.478,301.990 27.030,301.000 26.622 C 300.010 26.213,299.200 25.760,299.200 25.614 C 299.200 25.469,298.570 25.102,297.800 24.800 C 297.030 24.498,296.400 24.122,296.400 23.966 C 296.400 23.809,295.500 23.357,294.400 22.961 C 293.300 22.566,292.400 22.105,292.400 21.937 C 292.400 21.769,291.680 21.416,290.800 21.153 C 289.920 20.889,289.200 20.546,289.200 20.391 C 289.200 20.236,288.345 19.782,287.300 19.383 C 286.255 18.984,285.185 18.442,284.922 18.180 C 284.659 17.917,283.624 17.459,282.622 17.163 C 281.620 16.867,280.800 16.505,280.800 16.357 C 280.800 16.209,279.990 15.849,279.000 15.557 C 278.010 15.265,277.200 14.914,277.200 14.777 C 277.200 14.640,276.030 14.194,274.600 13.785 C 273.170 13.376,272.000 12.920,272.000 12.773 C 272.000 12.625,271.145 12.273,270.100 11.990 C 269.055 11.707,267.975 11.302,267.700 11.089 C 267.425 10.876,267.200 10.836,267.200 11.000 C 267.200 11.164,266.975 11.114,266.700 10.888 C 266.425 10.663,265.390 10.270,264.400 10.016 C 263.410 9.761,262.060 9.308,261.400 9.009 C 260.740 8.710,259.075 8.235,257.700 7.953 C 256.325 7.671,255.200 7.312,255.200 7.156 C 255.200 7.000,253.940 6.647,252.400 6.372 C 250.860 6.097,249.600 5.746,249.600 5.591 C 249.600 5.437,247.665 4.983,245.300 4.583 C 242.935 4.183,240.907 3.720,240.793 3.555 C 240.679 3.389,238.654 3.029,236.293 2.755 C 233.932 2.481,232.000 2.106,232.000 1.922 C 232.000 1.738,231.505 1.589,230.900 1.591 C 230.295 1.593,227.640 1.323,225.000 0.991 C 219.261 0.269,187.861 -0.137,181.045 0.423 M286.307 80.038 C 308.890 82.242,327.081 100.991,332.472 127.618 L 333.400 132.200 333.400 201.800 C 333.400 275.403,333.464 272.637,331.594 280.400 C 325.866 304.191,308.012 321.806,287.400 324.003 C 282.558 324.518,113.442 324.518,108.600 324.003 C 84.980 321.486,65.173 298.526,62.790 270.898 C 61.855 260.064,62.494 131.684,63.505 127.200 C 66.781 112.673,72.723 101.541,81.733 93.053 C 83.804 91.102,88.873 87.186,90.000 86.666 C 90.330 86.514,91.590 85.841,92.800 85.171 C 97.717 82.448,103.719 80.599,109.418 80.053 C 114.244 79.591,281.579 79.577,286.307 80.038 M126.800 150.600 L 126.800 185.200 109.400 185.200 L 92.000 185.200 92.000 200.200 L 92.000 215.200 108.767 215.200 C 117.989 215.200,125.819 215.309,126.167 215.443 C 126.739 215.662,126.800 220.141,126.800 262.051 L 126.800 308.417 134.607 308.308 L 142.414 308.200 142.404 261.944 C 142.394 220.028,142.453 215.665,143.029 215.444 C 143.379 215.310,148.691 215.200,154.833 215.200 L 166.000 215.200 166.000 200.206 L 166.000 185.212 154.300 185.106 L 142.600 185.000 142.498 150.500 L 142.396 116.000 134.598 116.000 L 126.800 116.000 126.800 150.600 M192.701 178.100 L 192.600 240.200 177.900 240.305 L 163.200 240.410 163.200 255.400 L 163.200 270.390 177.900 270.495 L 192.600 270.600 192.704 289.500 L 192.808 308.400 200.600 308.400 L 208.392 308.400 208.496 289.500 L 208.600 270.600 222.700 270.495 L 236.800 270.390 236.800 255.400 L 236.800 240.410 222.700 240.305 L 208.600 240.200 208.499 178.100 L 208.397 116.000 200.600 116.000 L 192.803 116.000 192.701 178.100 M255.106 127.300 L 255.000 138.600 241.700 138.705 L 228.400 138.811 228.400 153.800 L 228.400 168.789 241.700 168.895 L 255.000 169.000 255.096 238.600 L 255.193 308.200 262.996 308.308 L 270.800 308.417 270.800 238.608 L 270.800 168.800 286.600 168.800 L 302.400 168.800 302.400 153.805 L 302.400 138.809 286.700 138.705 L 271.000 138.600 270.894 127.300 L 270.788 116.000 263.000 116.000 L 255.212 116.000 255.106 127.300 M296.000 153.800 L 296.000 162.800 265.400 162.800 L 234.800 162.800 234.800 153.800 L 234.800 144.800 265.400 144.800 L 296.000 144.800 296.000 153.800 M159.600 200.200 L 159.600 209.200 129.000 209.200 L 98.400 209.200 98.400 200.200 L 98.400 191.200 129.000 191.200 L 159.600 191.200 159.600 200.200 M230.600 255.400 L 230.600 264.200 200.000 264.200 L 169.400 264.200 169.292 255.810 C 169.232 251.196,169.272 247.190,169.380 246.908 C 169.538 246.496,175.567 246.415,200.088 246.497 L 230.600 246.600 230.600 255.400 " stroke="none" fill="#333333" fill-rule="evenodd"></path><path id="path2" d="M105.800 81.009 C 102.490 81.626,97.013 83.358,95.600 84.235 C 94.937 84.646,94.869 84.760,95.400 84.573 C 95.840 84.418,97.664 83.774,99.452 83.142 C 101.241 82.511,103.581 81.779,104.652 81.517 C 106.116 81.159,129.059 80.985,197.000 80.817 L 287.400 80.593 198.000 80.540 C 125.974 80.497,108.056 80.588,105.800 81.009 M289.000 81.223 C 291.026 81.642,292.663 81.623,291.000 81.200 C 290.340 81.032,289.260 80.894,288.600 80.893 C 287.591 80.892,287.655 80.945,289.000 81.223 M296.000 82.957 C 298.090 83.685,300.160 84.410,300.600 84.568 C 301.123 84.756,301.053 84.640,300.400 84.235 C 299.334 83.573,293.481 81.589,292.679 81.617 C 292.416 81.626,293.910 82.229,296.000 82.957 M302.800 85.663 C 303.570 86.130,305.460 87.305,307.000 88.275 C 308.540 89.245,309.294 89.610,308.676 89.085 C 307.428 88.026,302.157 84.796,301.695 84.807 C 301.533 84.810,302.030 85.196,302.800 85.663 M88.800 87.879 C 85.220 90.224,77.289 97.876,74.875 101.314 C 72.854 104.191,73.565 103.567,76.381 99.993 C 79.850 95.588,84.749 91.050,89.232 88.086 C 91.300 86.719,92.814 85.612,92.596 85.626 C 92.378 85.640,90.670 86.654,88.800 87.879 M315.212 94.957 C 316.869 96.741,319.006 99.235,319.960 100.500 C 320.915 101.765,321.776 102.800,321.873 102.800 C 322.379 102.800,318.960 98.633,315.800 95.399 C 312.717 92.244,312.633 92.181,315.212 94.957 M72.158 105.500 C 71.566 106.545,70.838 107.799,70.541 108.286 C 69.844 109.427,69.833 110.028,70.528 108.989 C 71.490 107.550,73.610 103.600,73.420 103.600 C 73.318 103.600,72.749 104.455,72.158 105.500 M324.400 107.200 C 324.849 108.080,325.306 108.800,325.416 108.800 C 325.526 108.800,325.249 108.080,324.800 107.200 C 324.351 106.320,323.894 105.600,323.784 105.600 C 323.674 105.600,323.951 106.320,324.400 107.200 M326.828 111.800 C 326.828 112.020,327.086 112.650,327.400 113.200 C 327.714 113.750,327.972 114.020,327.972 113.800 C 327.972 113.580,327.714 112.950,327.400 112.400 C 327.086 111.850,326.828 111.580,326.828 111.800 M66.844 116.444 C 66.598 117.151,66.466 117.800,66.552 117.885 C 66.638 117.971,66.909 117.462,67.156 116.756 C 67.402 116.049,67.534 115.400,67.448 115.315 C 67.362 115.229,67.091 115.738,66.844 116.444 M126.246 115.825 C 126.111 116.177,126.011 116.676,126.025 116.933 C 126.039 117.190,126.213 116.995,126.412 116.500 C 126.771 115.609,126.851 115.600,134.785 115.600 L 142.796 115.600 142.901 150.100 L 143.007 184.600 143.003 150.000 L 143.000 115.400 134.746 115.292 C 127.481 115.197,126.462 115.261,126.246 115.825 M192.188 115.692 C 192.082 115.971,192.041 144.100,192.099 178.200 L 192.203 240.200 192.301 177.900 L 192.400 115.600 200.599 115.600 L 208.797 115.600 208.901 177.700 L 209.004 239.800 209.002 177.600 L 209.000 115.400 200.691 115.292 C 194.260 115.208,192.337 115.299,192.188 115.692 M254.581 115.705 C 254.474 115.983,254.438 121.248,254.500 127.405 L 254.613 138.600 254.707 127.092 L 254.800 115.583 262.900 115.692 L 271.000 115.800 271.209 127.200 L 271.419 138.600 271.509 127.533 C 271.559 121.446,271.491 116.181,271.357 115.833 C 271.033 114.987,254.903 114.865,254.581 115.705 M65.049 121.815 C 64.912 122.173,64.815 122.766,64.834 123.133 C 64.853 123.500,65.027 123.269,65.221 122.620 C 65.598 121.358,65.465 120.733,65.049 121.815 M330.868 123.000 C 330.862 123.440,331.011 124.160,331.200 124.600 C 331.638 125.619,331.638 124.568,331.200 123.200 C 330.943 122.396,330.877 122.357,330.868 123.000 M63.693 128.800 C 63.693 129.570,63.775 129.885,63.876 129.500 C 63.976 129.115,63.976 128.485,63.876 128.100 C 63.775 127.715,63.693 128.030,63.693 128.800 M332.093 129.200 C 332.093 129.970,332.175 130.285,332.276 129.900 C 332.376 129.515,332.376 128.885,332.276 128.500 C 332.175 128.115,332.093 128.430,332.093 129.200 M332.493 132.000 C 332.493 132.770,332.575 133.085,332.676 132.700 C 332.776 132.315,332.776 131.685,332.676 131.300 C 332.575 130.915,332.493 131.230,332.493 132.000 M62.942 136.600 C 62.941 138.580,63.008 139.440,63.092 138.512 C 63.176 137.584,63.177 135.964,63.095 134.912 C 63.012 133.860,62.943 134.620,62.942 136.600 M332.995 202.200 C 332.995 239.820,333.042 255.151,333.100 236.268 C 333.157 217.386,333.157 186.606,333.100 167.868 C 333.042 149.131,332.995 164.580,332.995 202.200 M234.970 153.800 C 234.971 158.640,235.029 160.565,235.099 158.078 C 235.169 155.591,235.169 151.631,235.098 149.278 C 235.028 146.925,234.970 148.960,234.970 153.800 M295.770 153.800 C 295.771 158.640,295.829 160.565,295.899 158.078 C 295.969 155.591,295.969 151.631,295.898 149.278 C 295.828 146.925,295.770 148.960,295.770 153.800 M254.598 239.000 L 254.600 309.000 262.771 309.109 C 269.041 309.192,271.017 309.099,271.265 308.709 C 271.443 308.429,271.546 276.880,271.496 238.600 L 271.403 169.000 271.202 238.800 L 271.000 308.600 263.000 308.600 L 255.000 308.600 254.798 238.800 L 254.596 169.000 254.598 239.000 M98.588 200.200 L 98.600 209.000 129.000 209.000 L 159.400 209.000 159.412 200.200 L 159.425 191.400 159.304 200.100 L 159.184 208.800 129.000 208.800 L 98.816 208.800 98.696 200.100 L 98.575 191.400 98.588 200.200 M142.799 262.000 L 142.600 308.600 134.538 308.600 C 130.104 308.600,126.559 308.735,126.662 308.900 C 127.004 309.453,142.802 309.260,143.016 308.700 C 143.120 308.425,143.159 287.320,143.102 261.800 L 142.998 215.400 142.799 262.000 M184.900 264.300 C 193.205 264.360,206.795 264.360,215.100 264.300 C 223.405 264.239,216.610 264.190,200.000 264.190 C 183.390 264.190,176.595 264.239,184.900 264.300 M62.942 267.800 C 62.941 269.780,63.008 270.640,63.092 269.712 C 63.176 268.784,63.177 267.164,63.095 266.112 C 63.012 265.060,62.943 265.820,62.942 267.800 M192.100 289.400 C 192.052 299.740,192.157 308.429,192.335 308.709 C 192.583 309.099,194.559 309.192,200.829 309.109 L 209.000 309.000 209.008 289.800 L 209.016 270.600 208.808 289.600 L 208.600 308.600 200.600 308.600 L 192.600 308.600 192.394 289.600 L 192.188 270.600 192.100 289.400 M332.493 272.000 C 332.493 272.770,332.575 273.085,332.676 272.700 C 332.776 272.315,332.776 271.685,332.676 271.300 C 332.575 270.915,332.493 271.230,332.493 272.000 M332.101 275.000 C 332.105 275.880,332.187 276.193,332.283 275.695 C 332.379 275.198,332.375 274.478,332.275 274.095 C 332.175 273.713,332.096 274.120,332.101 275.000 M63.628 275.433 C 63.644 276.075,63.816 276.960,64.010 277.400 C 64.247 277.934,64.286 277.602,64.127 276.400 C 63.846 274.280,63.588 273.780,63.628 275.433 M64.650 280.400 C 64.790 281.170,65.061 282.160,65.254 282.600 C 65.494 283.149,65.524 282.961,65.350 282.000 C 65.210 281.230,64.939 280.240,64.746 279.800 C 64.506 279.251,64.476 279.439,64.650 280.400 M330.846 280.867 C 330.821 281.234,330.696 281.864,330.570 282.267 C 330.352 282.962,330.363 282.963,330.797 282.287 C 331.048 281.896,331.173 281.266,331.073 280.887 C 330.911 280.268,330.888 280.266,330.846 280.867 M327.665 290.217 C 326.995 291.688,327.123 292.002,327.847 290.665 C 328.186 290.040,328.388 289.454,328.296 289.363 C 328.205 289.271,327.921 289.656,327.665 290.217 M68.034 290.600 C 68.034 290.820,68.378 291.630,68.800 292.400 C 69.222 293.170,69.566 293.620,69.566 293.400 C 69.566 293.180,69.222 292.370,68.800 291.600 C 68.378 290.830,68.034 290.380,68.034 290.600 M325.200 295.600 C 324.751 296.480,324.474 297.200,324.584 297.200 C 324.694 297.200,325.151 296.480,325.600 295.600 C 326.049 294.720,326.326 294.000,326.216 294.000 C 326.106 294.000,325.649 294.720,325.200 295.600 M70.800 296.400 C 71.249 297.280,71.706 298.000,71.816 298.000 C 71.926 298.000,71.649 297.280,71.200 296.400 C 70.751 295.520,70.294 294.800,70.184 294.800 C 70.074 294.800,70.351 295.520,70.800 296.400 M73.477 300.831 C 73.875 301.508,74.456 302.273,74.768 302.531 C 75.080 302.789,74.832 302.235,74.215 301.300 C 72.920 299.337,72.409 299.012,73.477 300.831 M321.785 301.300 C 321.168 302.235,320.920 302.789,321.232 302.531 C 321.833 302.034,323.364 299.600,323.076 299.600 C 322.983 299.600,322.402 300.365,321.785 301.300 M76.433 304.800 C 80.309 310.120,88.613 316.866,94.802 319.722 C 98.004 321.200,103.544 322.990,103.879 322.655 C 103.990 322.544,103.298 322.253,102.340 322.010 C 93.129 319.667,84.400 313.847,76.832 305.000 C 75.150 303.033,75.143 303.030,76.433 304.800 M318.774 305.300 C 317.810 306.455,317.339 307.147,317.726 306.838 C 318.504 306.218,320.968 303.200,320.696 303.200 C 320.602 303.200,319.737 304.145,318.774 305.300 M314.165 310.237 C 312.644 311.687,310.275 313.683,308.900 314.672 C 307.525 315.661,306.400 316.556,306.400 316.661 C 306.400 316.765,307.435 316.120,308.700 315.225 C 310.988 313.608,317.614 307.654,317.165 307.619 C 317.035 307.608,315.685 308.787,314.165 310.237 M304.200 317.790 C 303.320 318.332,302.725 318.781,302.877 318.788 C 303.224 318.803,306.000 317.179,306.000 316.960 C 306.000 316.700,305.876 316.757,304.200 317.790 M300.800 319.452 C 300.030 319.794,297.600 320.678,295.400 321.417 C 293.200 322.156,291.695 322.770,292.054 322.780 C 293.374 322.820,302.400 319.513,302.400 318.990 C 302.400 318.740,302.418 318.735,300.800 319.452 M105.600 323.193 C 106.588 323.516,109.889 323.735,109.567 323.456 C 109.475 323.376,108.320 323.211,107.000 323.088 C 105.509 322.949,104.979 322.989,105.600 323.193 M288.000 323.200 L 286.200 323.480 287.800 323.500 C 288.680 323.511,289.850 323.376,290.400 323.200 C 291.663 322.795,290.602 322.795,288.000 323.200 M154.300 323.900 C 178.335 323.957,217.665 323.957,241.700 323.900 C 265.735 323.843,246.070 323.796,198.000 323.796 C 149.930 323.796,130.265 323.843,154.300 323.900 " stroke="none" fill="#9c9c9c" fill-rule="evenodd"></path><path id="path3" d="M154.300 80.300 C 178.335 80.357,217.665 80.357,241.700 80.300 C 265.735 80.243,246.070 80.196,198.000 80.196 C 149.930 80.196,130.265 80.243,154.300 80.300 M80.788 94.300 L 78.200 97.000 80.900 94.412 C 82.385 92.988,83.600 91.773,83.600 91.712 C 83.600 91.417,83.193 91.792,80.788 94.300 M314.783 94.100 C 315.764 95.145,316.619 96.000,316.683 96.000 C 316.984 96.000,316.666 95.641,314.900 93.983 L 313.000 92.200 314.783 94.100 M126.498 150.296 L 126.400 184.792 109.100 184.900 L 91.800 185.009 109.113 185.104 C 122.665 185.179,126.467 185.091,126.616 184.700 C 126.721 184.425,126.759 168.810,126.701 150.000 L 126.595 115.800 126.498 150.296 M270.976 127.200 C 270.976 133.470,271.032 136.035,271.099 132.900 C 271.167 129.765,271.167 124.635,271.099 121.500 C 271.032 118.365,270.976 120.930,270.976 127.200 M208.592 155.600 C 208.592 176.830,208.641 185.515,208.700 174.900 C 208.759 164.285,208.759 146.915,208.700 136.300 C 208.641 125.685,208.592 134.370,208.592 155.600 M62.595 202.200 C 62.595 237.180,62.642 251.431,62.700 233.868 C 62.758 216.306,62.758 187.686,62.700 170.268 C 62.642 152.851,62.595 167.220,62.595 202.200 M333.395 202.000 C 333.395 236.430,333.442 250.515,333.500 233.300 C 333.558 216.085,333.558 187.915,333.500 170.700 C 333.442 153.485,333.395 167.570,333.395 202.000 M250.070 145.100 C 258.359 145.160,272.039 145.160,280.470 145.100 C 288.902 145.040,282.120 144.990,265.400 144.990 C 248.680 144.990,241.782 145.039,250.070 145.100 M250.070 162.700 C 258.359 162.760,272.039 162.760,280.470 162.700 C 288.902 162.640,282.120 162.590,265.400 162.590 C 248.680 162.590,241.782 162.639,250.070 162.700 M234.925 169.099 C 238.624 169.166,244.564 169.165,248.125 169.099 C 251.686 169.033,248.660 168.979,241.400 168.979 C 234.140 168.979,231.226 169.033,234.925 169.099 M279.074 169.099 C 283.294 169.164,290.314 169.164,294.674 169.100 C 299.033 169.035,295.580 168.982,287.000 168.982 C 278.420 168.982,274.853 169.035,279.074 169.099 M270.996 238.400 C 270.996 276.570,271.043 292.185,271.100 273.100 C 271.157 254.015,271.157 222.785,271.100 203.700 C 271.043 184.615,270.996 200.230,270.996 238.400 M148.924 185.099 C 152.183 185.167,157.403 185.166,160.524 185.099 C 163.646 185.031,160.980 184.976,154.600 184.977 C 148.220 184.977,145.666 185.032,148.924 185.099 M208.587 217.600 C 208.587 230.030,208.638 235.115,208.700 228.900 C 208.762 222.685,208.762 212.515,208.700 206.300 C 208.638 200.085,208.587 205.170,208.587 217.600 M126.593 261.600 C 126.593 287.010,126.641 297.405,126.700 284.700 C 126.759 271.995,126.759 251.205,126.700 238.500 C 126.641 225.795,126.593 236.190,126.593 261.600 M162.982 240.502 C 162.877 240.777,162.839 247.662,162.900 255.802 L 163.010 270.600 163.105 255.505 L 163.200 240.410 177.700 240.300 L 192.200 240.190 177.687 240.095 C 166.351 240.021,163.133 240.110,162.982 240.502 M222.895 240.297 L 236.790 240.410 236.903 255.505 L 237.015 270.600 237.007 255.400 L 237.000 240.200 223.000 240.192 L 209.000 240.184 222.895 240.297 M184.900 246.700 C 193.205 246.760,206.795 246.760,215.100 246.700 C 223.405 246.639,216.610 246.590,200.000 246.590 C 183.390 246.590,176.595 246.639,184.900 246.700 M208.584 289.200 C 208.584 299.210,208.636 303.305,208.700 298.300 C 208.763 293.295,208.763 285.105,208.700 280.100 C 208.636 275.095,208.584 279.190,208.584 289.200 M126.748 308.509 C 126.918 308.679,130.555 308.768,134.829 308.708 L 142.600 308.598 134.519 308.399 C 130.075 308.290,126.578 308.339,126.748 308.509 M200.600 308.400 L 192.600 308.626 200.476 308.713 C 205.392 308.767,208.446 308.650,208.600 308.400 C 208.736 308.180,208.792 308.039,208.724 308.087 C 208.656 308.135,205.000 308.276,200.600 308.400 M263.000 308.400 L 255.000 308.626 262.876 308.713 C 267.792 308.767,270.846 308.650,271.000 308.400 C 271.136 308.180,271.192 308.039,271.124 308.087 C 271.056 308.135,267.400 308.276,263.000 308.400 M108.900 323.876 C 109.285 323.976,109.915 323.976,110.300 323.876 C 110.685 323.775,110.370 323.693,109.600 323.693 C 108.830 323.693,108.515 323.775,108.900 323.876 M285.700 323.876 C 286.085 323.976,286.715 323.976,287.100 323.876 C 287.485 323.775,287.170 323.693,286.400 323.693 C 285.630 323.693,285.315 323.775,285.700 323.876 " stroke="none" fill="#7d7a7c" fill-rule="evenodd"></path><path id="path4" d="M155.900 79.900 C 179.055 79.957,216.945 79.957,240.100 79.900 C 263.255 79.843,244.310 79.796,198.000 79.796 C 151.690 79.796,132.745 79.843,155.900 79.900 M108.705 80.283 C 109.202 80.379,109.922 80.375,110.305 80.275 C 110.687 80.175,110.280 80.096,109.400 80.101 C 108.520 80.105,108.207 80.187,108.705 80.283 M285.905 80.283 C 286.402 80.379,287.122 80.375,287.505 80.275 C 287.887 80.175,287.480 80.096,286.600 80.101 C 285.720 80.105,285.407 80.187,285.905 80.283 M310.800 90.125 C 310.800 90.194,311.385 90.779,312.100 91.425 L 313.400 92.600 312.225 91.300 C 311.130 90.088,310.800 89.816,310.800 90.125 M134.500 115.895 L 142.400 116.017 142.400 150.385 C 142.400 169.287,142.535 184.836,142.700 184.938 C 142.865 185.040,142.910 169.526,142.800 150.462 L 142.600 115.800 134.600 115.787 L 126.600 115.773 134.500 115.895 M192.587 116.100 C 192.267 116.949,192.181 240.335,192.500 240.138 C 192.665 240.036,192.800 212.067,192.800 177.985 L 192.800 116.017 200.700 115.900 L 208.600 115.782 200.687 115.691 C 194.656 115.622,192.730 115.719,192.587 116.100 M255.067 115.867 C 254.920 116.013,254.800 121.141,254.800 127.261 L 254.800 138.389 241.700 138.503 L 228.600 138.617 241.800 138.608 L 255.000 138.600 255.106 127.308 L 255.212 116.017 263.106 115.899 L 271.000 115.782 263.167 115.691 C 258.858 115.641,255.213 115.720,255.067 115.867 M62.509 137.200 C 62.509 138.190,62.587 138.595,62.682 138.100 C 62.778 137.605,62.778 136.795,62.682 136.300 C 62.587 135.805,62.509 136.210,62.509 137.200 M333.320 137.600 C 333.320 138.810,333.395 139.305,333.487 138.700 C 333.578 138.095,333.578 137.105,333.487 136.500 C 333.395 135.895,333.320 136.390,333.320 137.600 M278.900 138.700 C 283.245 138.764,290.355 138.764,294.700 138.700 C 299.045 138.635,295.490 138.582,286.800 138.582 C 278.110 138.582,274.555 138.635,278.900 138.700 M254.800 238.320 L 255.000 307.800 255.101 238.621 C 255.157 200.573,255.067 169.307,254.901 169.141 C 254.736 168.975,254.690 200.106,254.800 238.320 M113.730 191.500 C 122.271 191.560,136.131 191.560,144.530 191.500 C 152.928 191.440,145.940 191.390,129.000 191.390 C 112.060 191.390,105.188 191.440,113.730 191.500 M100.527 215.500 C 105.327 215.564,113.067 215.563,117.727 215.499 C 122.387 215.436,118.460 215.383,109.000 215.383 C 99.540 215.383,95.727 215.436,100.527 215.500 M148.924 215.499 C 152.183 215.567,157.403 215.566,160.524 215.499 C 163.646 215.431,160.980 215.376,154.600 215.377 C 148.220 215.377,145.666 215.432,148.924 215.499 M142.593 261.600 C 142.593 287.010,142.641 297.405,142.700 284.700 C 142.759 271.995,142.759 251.205,142.700 238.500 C 142.641 225.795,142.593 236.190,142.593 261.600 M169.379 246.910 C 169.271 247.191,169.232 251.196,169.292 255.810 L 169.402 264.200 169.601 255.300 C 169.796 246.583,169.777 245.873,169.379 246.910 M230.399 255.319 L 230.599 264.200 230.707 255.628 C 230.767 250.914,230.678 246.917,230.508 246.747 C 230.339 246.578,230.290 250.435,230.399 255.319 M333.320 266.400 C 333.320 267.610,333.395 268.105,333.487 267.500 C 333.578 266.895,333.578 265.905,333.487 265.300 C 333.395 264.695,333.320 265.190,333.320 266.400 M62.509 267.200 C 62.509 268.190,62.587 268.595,62.682 268.100 C 62.778 267.605,62.778 266.795,62.682 266.300 C 62.587 265.805,62.509 266.210,62.509 267.200 M177.696 270.697 L 192.392 270.810 192.502 289.505 L 192.612 308.200 192.606 289.400 L 192.600 270.600 177.800 270.592 L 163.000 270.585 177.696 270.697 M208.661 270.700 C 208.492 270.973,219.362 270.966,232.000 270.685 C 234.750 270.624,230.666 270.535,222.924 270.487 C 215.182 270.439,208.764 270.535,208.661 270.700 M328.465 289.417 C 327.795 290.888,327.923 291.202,328.647 289.865 C 328.986 289.240,329.188 288.654,329.096 288.563 C 329.005 288.471,328.721 288.856,328.465 289.417 M315.200 309.800 C 313.561 311.450,312.310 312.800,312.420 312.800 C 312.530 312.800,313.961 311.450,315.600 309.800 C 317.239 308.150,318.490 306.800,318.380 306.800 C 318.270 306.800,316.839 308.150,315.200 309.800 M81.600 310.925 C 81.600 310.994,82.185 311.579,82.900 312.225 L 84.200 313.400 83.025 312.100 C 81.930 310.888,81.600 310.616,81.600 310.925 M303.500 318.629 C 302.005 319.440,302.096 319.778,303.600 319.000 C 304.260 318.659,304.800 318.294,304.800 318.190 C 304.800 317.932,304.757 317.947,303.500 318.629 M154.300 324.300 C 178.335 324.357,217.665 324.357,241.700 324.300 C 265.735 324.243,246.070 324.196,198.000 324.196 C 149.930 324.196,130.265 324.243,154.300 324.300 " stroke="none" fill="#5c5858" fill-rule="evenodd"></path></g></svg>