<svg id="svg" version="1.1" xmlns="http://www.w3.org/2000/svg" xmlns:xlink="http://www.w3.org/1999/xlink" width="400" height="400" viewBox="0, 0, 400,400"><g id="svgg"><path id="path0" d="M107.083 110.047 C 86.175 112.061,68.343 126.541,63.544 145.400 L 62.628 149.000 62.493 199.800 C 62.397 235.773,62.488 251.534,62.804 253.800 C 63.288 257.260,64.206 261.319,64.795 262.600 C 64.997 263.040,65.694 264.602,66.343 266.071 C 71.966 278.795,84.138 288.415,100.000 292.673 L 104.200 293.800 195.200 293.915 C 257.813 293.995,287.218 293.898,289.462 293.606 C 311.079 290.787,328.296 275.422,331.824 255.800 C 332.680 251.036,332.679 152.993,331.823 148.126 C 328.236 127.746,309.809 112.007,287.200 110.013 C 281.551 109.514,112.276 109.547,107.083 110.047 M297.767 135.443 C 298.337 135.661,298.400 138.833,298.400 167.208 L 298.400 198.730 299.980 198.997 C 300.850 199.144,304.405 199.208,307.880 199.140 C 315.767 198.985,315.200 198.561,315.200 204.615 L 315.200 209.584 306.900 209.692 L 298.600 209.800 298.400 246.200 L 298.200 282.600 293.657 282.714 C 290.650 282.789,288.926 282.671,288.557 282.365 C 288.088 281.975,288.000 276.200,288.000 245.994 L 288.000 210.087 286.966 209.827 C 286.397 209.684,282.895 209.591,279.184 209.619 C 270.926 209.682,271.600 210.146,271.600 204.400 C 271.600 198.577,270.851 199.046,280.190 199.021 L 287.800 199.000 287.902 167.638 C 287.975 145.277,288.133 136.122,288.451 135.738 C 288.916 135.178,296.455 134.939,297.767 135.443 M104.800 142.400 L 104.800 148.800 112.751 148.800 C 122.349 148.800,121.664 148.342,121.513 154.657 L 121.400 159.400 113.200 159.600 L 105.000 159.800 104.899 221.500 L 104.797 283.200 99.799 283.200 C 97.049 283.200,94.756 283.155,94.703 283.100 C 94.650 283.045,94.515 255.280,94.403 221.400 L 94.200 159.800 86.088 159.692 L 77.977 159.583 78.088 154.292 L 78.200 149.000 86.300 148.892 L 94.400 148.783 94.400 142.658 C 94.400 135.331,93.850 136.000,99.867 136.000 L 104.800 136.000 104.800 142.400 M155.503 161.100 L 155.606 186.000 164.103 186.006 C 174.507 186.014,173.652 185.502,173.513 191.632 L 173.400 196.600 164.502 196.708 L 155.604 196.815 155.502 239.908 L 155.400 283.000 150.302 283.112 L 145.204 283.224 145.102 240.112 L 145.000 197.000 137.488 196.891 L 129.977 196.782 130.088 191.491 L 130.200 186.200 137.700 186.091 L 145.200 185.982 145.200 160.979 L 145.200 135.976 150.300 136.088 L 155.400 136.200 155.503 161.100 M204.400 151.800 L 204.400 167.600 212.600 167.600 L 220.800 167.600 220.800 173.000 L 220.800 178.400 212.601 178.400 L 204.403 178.400 204.301 230.700 L 204.200 283.000 199.200 283.000 L 194.200 283.000 194.099 230.708 L 193.997 178.417 185.899 178.308 L 177.800 178.200 177.800 173.000 L 177.800 167.800 185.900 167.692 L 194.000 167.583 194.000 152.058 C 194.000 143.520,194.120 136.413,194.267 136.267 C 194.413 136.120,196.753 136.000,199.467 136.000 L 204.400 136.000 204.400 151.800 M253.501 189.100 L 253.603 242.000 261.401 242.000 L 269.200 242.000 269.200 247.400 L 269.200 252.800 261.405 252.800 L 253.610 252.800 253.505 267.900 L 253.400 283.000 248.400 283.000 L 243.400 283.000 243.295 267.900 L 243.190 252.800 235.428 252.800 C 225.528 252.800,226.400 253.284,226.400 247.790 C 226.400 241.398,225.501 242.000,235.043 242.000 L 243.200 242.000 243.200 188.988 L 243.200 135.976 248.300 136.088 L 253.400 136.200 253.501 189.100 M80.000 154.400 L 80.000 158.000 99.800 158.000 L 119.600 158.000 119.600 154.400 L 119.600 150.800 99.800 150.800 L 80.000 150.800 80.000 154.400 M179.369 169.737 C 179.255 170.033,179.216 171.608,179.281 173.237 L 179.400 176.200 199.300 176.304 L 219.200 176.407 219.200 172.804 L 219.200 169.200 199.387 169.200 C 183.170 169.200,179.537 169.298,179.369 169.737 M131.882 188.300 C 131.570 188.868,131.611 194.201,131.931 194.704 C 132.183 195.100,136.432 195.186,151.826 195.104 L 171.400 195.000 171.516 191.500 L 171.631 188.000 151.839 188.000 C 140.954 188.000,131.973 188.135,131.882 188.300 M273.600 204.392 L 273.600 207.985 293.001 208.092 C 303.672 208.152,312.582 208.140,312.801 208.067 C 313.027 207.991,313.200 206.383,313.200 204.367 L 313.200 200.800 293.400 200.800 L 273.600 200.800 273.600 204.392 M228.667 243.867 C 228.520 244.013,228.400 245.633,228.400 247.467 L 228.400 250.800 248.200 250.800 L 268.000 250.800 268.000 247.200 L 268.000 243.600 248.467 243.600 C 237.723 243.600,228.813 243.720,228.667 243.867 " stroke="none" fill="#fafafa" fill-rule="evenodd"></path><path id="path1" d="M183.400 0.255 C 176.561 0.777,168.178 1.708,168.004 1.965 C 167.892 2.132,165.911 2.493,163.602 2.769 C 161.293 3.044,159.313 3.401,159.202 3.563 C 159.091 3.724,157.065 4.183,154.700 4.583 C 152.335 4.983,150.400 5.437,150.400 5.591 C 150.400 5.746,149.140 6.097,147.600 6.372 C 146.060 6.647,144.800 7.000,144.800 7.156 C 144.800 7.312,143.675 7.671,142.300 7.953 C 140.925 8.235,139.260 8.707,138.600 9.001 C 137.940 9.296,136.320 9.838,135.000 10.206 C 133.680 10.574,132.420 11.011,132.200 11.176 C 131.980 11.341,130.945 11.707,129.900 11.990 C 128.855 12.273,128.000 12.625,128.000 12.773 C 128.000 12.920,126.830 13.376,125.400 13.785 C 123.970 14.194,122.800 14.640,122.800 14.777 C 122.800 14.914,121.990 15.265,121.000 15.557 C 120.010 15.849,119.200 16.209,119.200 16.357 C 119.200 16.505,118.380 16.867,117.378 17.163 C 116.376 17.459,115.341 17.917,115.078 18.180 C 114.815 18.442,113.745 18.984,112.700 19.383 C 111.655 19.782,110.800 20.236,110.800 20.391 C 110.800 20.546,110.080 20.889,109.200 21.153 C 108.320 21.416,107.600 21.769,107.600 21.937 C 107.600 22.105,106.700 22.566,105.600 22.961 C 104.500 23.357,103.600 23.809,103.600 23.966 C 103.600 24.122,102.970 24.498,102.200 24.800 C 101.430 25.102,100.800 25.469,100.800 25.614 C 100.800 25.760,99.990 26.213,99.000 26.622 C 98.010 27.030,97.200 27.478,97.200 27.618 C 97.200 27.757,96.705 28.093,96.100 28.363 C 94.996 28.856,91.975 30.787,91.600 31.239 C 91.490 31.372,90.950 31.711,90.400 31.993 C 88.462 32.986,85.600 34.939,85.600 35.267 C 85.600 35.450,85.375 35.600,85.100 35.601 C 84.825 35.601,83.970 36.141,83.200 36.800 C 82.430 37.459,81.635 37.999,81.434 37.999 C 81.077 38.000,80.535 38.445,78.632 40.300 C 78.124 40.795,77.505 41.200,77.258 41.200 C 77.010 41.200,76.582 41.560,76.307 42.000 C 76.032 42.440,75.650 42.800,75.457 42.800 C 75.120 42.800,73.650 43.940,70.938 46.301 C 70.244 46.905,68.732 48.210,67.577 49.200 C 64.856 51.533,51.533 64.856,49.200 67.577 C 48.210 68.732,46.905 70.244,46.301 70.938 C 43.940 73.650,42.800 75.120,42.800 75.457 C 42.800 75.650,42.440 76.032,42.000 76.307 C 41.560 76.582,41.200 77.010,41.200 77.258 C 41.200 77.505,40.795 78.124,40.300 78.632 C 38.445 80.535,38.000 81.077,37.999 81.434 C 37.999 81.635,37.459 82.430,36.800 83.200 C 36.141 83.970,35.601 84.825,35.601 85.100 C 35.600 85.375,35.450 85.600,35.267 85.600 C 34.939 85.600,32.986 88.462,31.993 90.400 C 31.711 90.950,31.372 91.490,31.239 91.600 C 30.787 91.975,28.856 94.996,28.363 96.100 C 28.093 96.705,27.757 97.200,27.618 97.200 C 27.478 97.200,27.030 98.010,26.622 99.000 C 26.213 99.990,25.760 100.800,25.614 100.800 C 25.469 100.800,25.102 101.430,24.800 102.200 C 24.498 102.970,24.122 103.600,23.966 103.600 C 23.809 103.600,23.357 104.500,22.961 105.600 C 22.566 106.700,22.105 107.600,21.937 107.600 C 21.769 107.600,21.416 108.320,21.153 109.200 C 20.889 110.080,20.546 110.800,20.391 110.800 C 20.236 110.800,19.782 111.655,19.383 112.700 C 18.984 113.745,18.442 114.815,18.180 115.078 C 17.917 115.341,17.459 116.376,17.163 117.378 C 16.867 118.380,16.505 119.200,16.357 119.200 C 16.209 119.200,15.849 120.010,15.557 121.000 C 15.265 121.990,14.914 122.800,14.777 122.800 C 14.640 122.800,14.194 123.970,13.785 125.400 C 13.376 126.830,12.920 128.000,12.773 128.000 C 12.625 128.000,12.273 128.855,11.990 129.900 C 11.707 130.945,11.341 131.980,11.176 132.200 C 11.011 132.420,10.574 133.680,10.206 135.000 C 9.838 136.320,9.296 137.940,9.001 138.600 C 8.707 139.260,8.235 140.925,7.953 142.300 C 7.671 143.675,7.312 144.800,7.156 144.800 C 7.000 144.800,6.647 146.060,6.372 147.600 C 6.097 149.140,5.746 150.400,5.591 150.400 C 5.437 150.400,4.983 152.335,4.583 154.700 C 4.183 157.065,3.724 159.091,3.563 159.202 C 3.401 159.313,3.044 161.293,2.769 163.602 C 2.493 165.911,2.132 167.892,1.965 168.004 C -0.368 169.580,-0.368 230.420,1.965 231.996 C 2.132 232.108,2.493 234.089,2.769 236.398 C 3.044 238.707,3.401 240.687,3.563 240.798 C 3.724 240.909,4.183 242.935,4.583 245.300 C 4.983 247.665,5.437 249.600,5.591 249.600 C 5.746 249.600,6.097 250.860,6.372 252.400 C 6.647 253.940,7.000 255.200,7.156 255.200 C 7.312 255.200,7.671 256.325,7.953 257.700 C 8.235 259.075,8.707 260.740,9.001 261.400 C 9.296 262.060,9.838 263.680,10.206 265.000 C 10.574 266.320,11.011 267.580,11.176 267.800 C 11.341 268.020,11.707 269.055,11.990 270.100 C 12.273 271.145,12.625 272.000,12.773 272.000 C 12.920 272.000,13.376 273.170,13.785 274.600 C 14.194 276.030,14.640 277.200,14.777 277.200 C 14.914 277.200,15.265 278.010,15.557 279.000 C 15.849 279.990,16.209 280.800,16.357 280.800 C 16.505 280.800,16.867 281.620,17.163 282.622 C 17.459 283.624,17.917 284.659,18.180 284.922 C 18.442 285.185,18.984 286.255,19.383 287.300 C 19.782 288.345,20.236 289.200,20.391 289.200 C 20.546 289.200,20.889 289.920,21.153 290.800 C 21.416 291.680,21.769 292.400,21.937 292.400 C 22.105 292.400,22.566 293.300,22.961 294.400 C 23.357 295.500,23.809 296.400,23.966 296.400 C 24.122 296.400,24.498 297.030,24.800 297.800 C 25.102 298.570,25.469 299.200,25.614 299.200 C 25.760 299.200,26.213 300.010,26.622 301.000 C 27.030 301.990,27.478 302.800,27.618 302.800 C 27.757 302.800,28.093 303.295,28.363 303.900 C 28.856 305.004,30.787 308.025,31.239 308.400 C 31.372 308.510,31.711 309.050,31.993 309.600 C 32.986 311.538,34.939 314.400,35.267 314.400 C 35.450 314.400,35.600 314.625,35.601 314.900 C 35.601 315.175,36.141 316.030,36.800 316.800 C 37.459 317.570,37.999 318.365,37.999 318.566 C 38.000 318.923,38.445 319.465,40.300 321.368 C 40.795 321.876,41.200 322.495,41.200 322.742 C 41.200 322.990,41.560 323.418,42.000 323.693 C 42.440 323.968,42.800 324.350,42.800 324.543 C 42.800 324.959,44.035 326.483,49.200 332.444 C 51.606 335.221,64.936 348.535,67.577 350.800 C 68.732 351.790,70.244 353.095,70.938 353.699 C 73.650 356.060,75.120 357.200,75.457 357.200 C 75.650 357.200,76.032 357.560,76.307 358.000 C 76.582 358.440,77.010 358.800,77.258 358.800 C 77.505 358.800,78.124 359.205,78.632 359.700 C 80.535 361.555,81.077 362.000,81.434 362.001 C 81.635 362.001,82.430 362.541,83.200 363.200 C 83.970 363.859,84.825 364.399,85.100 364.399 C 85.375 364.400,85.600 364.550,85.600 364.733 C 85.600 365.061,88.462 367.014,90.400 368.007 C 90.950 368.289,91.490 368.628,91.600 368.761 C 91.975 369.213,94.996 371.144,96.100 371.637 C 96.705 371.907,97.200 372.246,97.200 372.390 C 97.200 372.533,97.830 372.898,98.600 373.200 C 99.370 373.502,100.000 373.869,100.000 374.014 C 100.000 374.160,100.810 374.613,101.800 375.022 C 102.790 375.430,103.600 375.889,103.600 376.042 C 103.600 376.195,104.500 376.643,105.600 377.039 C 106.700 377.434,107.600 377.895,107.600 378.063 C 107.600 378.231,108.320 378.584,109.200 378.847 C 110.080 379.111,110.800 379.454,110.800 379.609 C 110.800 379.764,111.655 380.218,112.700 380.617 C 113.745 381.016,114.815 381.558,115.078 381.820 C 115.341 382.083,116.376 382.541,117.378 382.837 C 118.380 383.133,119.200 383.495,119.200 383.643 C 119.200 383.791,120.010 384.151,121.000 384.443 C 121.990 384.735,122.800 385.086,122.800 385.223 C 122.800 385.360,123.970 385.806,125.400 386.215 C 126.830 386.624,128.000 387.080,128.000 387.227 C 128.000 387.375,128.855 387.727,129.900 388.010 C 130.945 388.293,131.980 388.659,132.200 388.824 C 132.420 388.989,133.680 389.426,135.000 389.794 C 136.320 390.162,137.940 390.704,138.600 390.999 C 139.260 391.293,140.925 391.765,142.300 392.047 C 143.675 392.329,144.800 392.688,144.800 392.844 C 144.800 393.000,146.060 393.353,147.600 393.628 C 149.140 393.903,150.400 394.254,150.400 394.409 C 150.400 394.563,152.335 395.017,154.700 395.417 C 157.065 395.817,159.091 396.276,159.202 396.437 C 159.313 396.599,161.293 396.956,163.602 397.231 C 165.911 397.507,167.892 397.868,168.004 398.035 C 169.580 400.368,230.420 400.368,231.996 398.035 C 232.108 397.868,234.089 397.507,236.398 397.231 C 238.707 396.956,240.687 396.599,240.798 396.437 C 240.909 396.276,242.935 395.817,245.300 395.417 C 247.665 395.017,249.600 394.563,249.600 394.409 C 249.600 394.254,250.860 393.903,252.400 393.628 C 253.940 393.353,255.200 393.000,255.200 392.844 C 255.200 392.688,256.325 392.329,257.700 392.047 C 259.075 391.765,260.740 391.293,261.400 390.999 C 262.060 390.704,263.680 390.162,265.000 389.794 C 266.320 389.426,267.580 388.989,267.800 388.824 C 268.020 388.659,269.055 388.293,270.100 388.010 C 271.145 387.727,272.000 387.375,272.000 387.227 C 272.000 387.080,273.170 386.624,274.600 386.215 C 276.030 385.806,277.200 385.360,277.200 385.223 C 277.200 385.086,278.010 384.735,279.000 384.443 C 279.990 384.151,280.800 383.791,280.800 383.643 C 280.800 383.495,281.620 383.133,282.622 382.837 C 283.624 382.541,284.659 382.083,284.922 381.820 C 285.185 381.558,286.255 381.016,287.300 380.617 C 288.345 380.218,289.200 379.764,289.200 379.609 C 289.200 379.454,289.920 379.111,290.800 378.847 C 291.680 378.584,292.400 378.231,292.400 378.063 C 292.400 377.895,293.300 377.434,294.400 377.039 C 295.500 376.643,296.400 376.195,296.400 376.042 C 296.400 375.889,297.210 375.430,298.200 375.022 C 299.190 374.613,300.000 374.160,300.000 374.014 C 300.000 373.869,300.630 373.502,301.400 373.200 C 302.170 372.898,302.800 372.533,302.800 372.390 C 302.800 372.246,303.295 371.907,303.900 371.637 C 305.004 371.144,308.025 369.213,308.400 368.761 C 308.510 368.628,309.050 368.289,309.600 368.007 C 311.538 367.014,314.400 365.061,314.400 364.733 C 314.400 364.550,314.625 364.400,314.900 364.399 C 315.175 364.399,316.030 363.859,316.800 363.200 C 317.570 362.541,318.365 362.001,318.566 362.001 C 318.923 362.000,319.465 361.555,321.368 359.700 C 321.876 359.205,322.486 358.800,322.723 358.800 C 322.960 358.800,323.390 358.468,323.677 358.063 C 323.965 357.658,324.400 357.253,324.645 357.163 C 325.205 356.958,327.276 355.368,329.025 353.800 C 329.762 353.140,331.300 351.790,332.443 350.800 C 335.137 348.467,348.467 335.137,350.800 332.443 C 351.790 331.300,353.140 329.762,353.800 329.025 C 355.368 327.276,356.958 325.205,357.163 324.645 C 357.253 324.400,357.658 323.965,358.063 323.677 C 358.468 323.390,358.800 322.960,358.800 322.723 C 358.800 322.486,359.205 321.876,359.700 321.368 C 361.555 319.465,362.000 318.923,362.001 318.566 C 362.001 318.365,362.541 317.570,363.200 316.800 C 363.859 316.030,364.399 315.175,364.399 314.900 C 364.400 314.625,364.550 314.400,364.733 314.400 C 365.061 314.400,367.014 311.538,368.007 309.600 C 368.289 309.050,368.628 308.510,368.761 308.400 C 369.213 308.025,371.144 305.004,371.637 303.900 C 371.907 303.295,372.246 302.800,372.390 302.800 C 372.533 302.800,372.898 302.170,373.200 301.400 C 373.502 300.630,373.869 300.000,374.014 300.000 C 374.160 300.000,374.613 299.190,375.022 298.200 C 375.430 297.210,375.889 296.400,376.042 296.400 C 376.195 296.400,376.643 295.500,377.039 294.400 C 377.434 293.300,377.895 292.400,378.063 292.400 C 378.231 292.400,378.584 291.680,378.847 290.800 C 379.111 289.920,379.454 289.200,379.609 289.200 C 379.764 289.200,380.218 288.345,380.617 287.300 C 381.016 286.255,381.558 285.185,381.820 284.922 C 382.083 284.659,382.541 283.624,382.837 282.622 C 383.133 281.620,383.495 280.800,383.643 280.800 C 383.791 280.800,384.151 279.990,384.443 279.000 C 384.735 278.010,385.086 277.200,385.223 277.200 C 385.360 277.200,385.806 276.030,386.215 274.600 C 386.624 273.170,387.080 272.000,387.227 272.000 C 387.375 272.000,387.727 271.145,388.010 270.100 C 388.293 269.055,388.659 268.020,388.824 267.800 C 388.989 267.580,389.426 266.320,389.794 265.000 C 390.162 263.680,390.704 262.060,390.999 261.400 C 391.293 260.740,391.765 259.075,392.047 257.700 C 392.329 256.325,392.688 255.200,392.844 255.200 C 393.000 255.200,393.353 253.940,393.628 252.400 C 393.903 250.860,394.254 249.600,394.409 249.600 C 394.563 249.600,395.017 247.665,395.417 245.300 C 395.817 242.935,396.276 240.909,396.437 240.798 C 396.599 240.687,396.956 238.707,397.231 236.398 C 397.507 234.089,397.868 232.108,398.035 231.996 C 400.368 230.420,400.368 169.580,398.035 168.004 C 397.868 167.892,397.507 165.911,397.231 163.602 C 396.956 161.293,396.599 159.313,396.437 159.202 C 396.276 159.091,395.817 157.065,395.417 154.700 C 395.017 152.335,394.563 150.400,394.409 150.400 C 394.254 150.400,393.903 149.140,393.628 147.600 C 393.353 146.060,393.000 144.800,392.844 144.800 C 392.688 144.800,392.329 143.675,392.047 142.300 C 391.765 140.925,391.293 139.260,390.999 138.600 C 390.704 137.940,390.162 136.320,389.794 135.000 C 389.426 133.680,388.989 132.420,388.824 132.200 C 388.659 131.980,388.293 130.945,388.010 129.900 C 387.727 128.855,387.375 128.000,387.227 128.000 C 387.080 128.000,386.624 126.830,386.215 125.400 C 385.806 123.970,385.360 122.800,385.223 122.800 C 385.086 122.800,384.735 121.990,384.443 121.000 C 384.151 120.010,383.791 119.200,383.643 119.200 C 383.495 119.200,383.133 118.380,382.837 117.378 C 382.541 116.376,382.083 115.341,381.820 115.078 C 381.558 114.815,381.016 113.745,380.617 112.700 C 380.218 111.655,379.764 110.800,379.609 110.800 C 379.454 110.800,379.111 110.080,378.847 109.200 C 378.584 108.320,378.231 107.600,378.063 107.600 C 377.895 107.600,377.434 106.700,377.039 105.600 C 376.643 104.500,376.195 103.600,376.042 103.600 C 375.889 103.600,375.430 102.790,375.022 101.800 C 374.613 100.810,374.160 100.000,374.014 100.000 C 373.869 100.000,373.502 99.370,373.200 98.600 C 372.898 97.830,372.533 97.200,372.390 97.200 C 372.246 97.200,371.907 96.705,371.637 96.100 C 371.144 94.996,369.213 91.975,368.761 91.600 C 368.628 91.490,368.289 90.950,368.007 90.400 C 367.014 88.462,365.061 85.600,364.733 85.600 C 364.550 85.600,364.400 85.375,364.399 85.100 C 364.399 84.825,363.859 83.970,363.200 83.200 C 362.541 82.430,362.001 81.635,362.001 81.434 C 362.000 81.077,361.555 80.535,359.700 78.632 C 359.205 78.124,358.800 77.505,358.800 77.258 C 358.800 77.010,358.440 76.582,358.000 76.307 C 357.560 76.032,357.200 75.650,357.200 75.457 C 357.200 75.120,356.060 73.650,353.699 70.938 C 353.095 70.244,351.790 68.732,350.800 67.577 C 348.535 64.936,335.221 51.606,332.444 49.200 C 326.483 44.035,324.959 42.800,324.543 42.800 C 324.350 42.800,323.968 42.440,323.693 42.000 C 323.418 41.560,322.990 41.200,322.742 41.200 C 322.495 41.200,321.876 40.795,321.368 40.300 C 319.465 38.445,318.923 38.000,318.566 37.999 C 318.365 37.999,317.570 37.459,316.800 36.800 C 316.030 36.141,315.175 35.601,314.900 35.601 C 314.625 35.600,314.400 35.450,314.400 35.267 C 314.400 34.939,311.538 32.986,309.600 31.993 C 309.050 31.711,308.510 31.372,308.400 31.239 C 308.025 30.787,305.004 28.856,303.900 28.363 C 303.295 28.093,302.800 27.757,302.800 27.618 C 302.800 27.478,301.990 27.030,301.000 26.622 C 300.010 26.213,299.200 25.760,299.200 25.614 C 299.200 25.469,298.570 25.102,297.800 24.800 C 297.030 24.498,296.400 24.122,296.400 23.966 C 296.400 23.809,295.500 23.357,294.400 22.961 C 293.300 22.566,292.400 22.105,292.400 21.937 C 292.400 21.769,291.680 21.416,290.800 21.153 C 289.920 20.889,289.200 20.546,289.200 20.391 C 289.200 20.236,288.345 19.782,287.300 19.383 C 286.255 18.984,285.185 18.442,284.922 18.180 C 284.659 17.917,283.624 17.459,282.622 17.163 C 281.620 16.867,280.800 16.505,280.800 16.357 C 280.800 16.209,279.990 15.849,279.000 15.557 C 278.010 15.265,277.200 14.914,277.200 14.777 C 277.200 14.640,276.030 14.194,274.600 13.785 C 273.170 13.376,272.000 12.920,272.000 12.773 C 272.000 12.625,271.145 12.273,270.100 11.990 C 269.055 11.707,268.020 11.341,267.800 11.176 C 267.580 11.011,266.320 10.574,265.000 10.206 C 263.680 9.838,262.060 9.296,261.400 9.001 C 260.740 8.707,259.075 8.235,257.700 7.953 C 256.325 7.671,255.200 7.312,255.200 7.156 C 255.200 7.000,253.940 6.647,252.400 6.372 C 250.860 6.097,249.600 5.746,249.600 5.591 C 249.600 5.437,247.665 4.983,245.300 4.583 C 242.935 4.183,240.909 3.724,240.798 3.563 C 240.687 3.401,238.707 3.044,236.398 2.769 C 234.089 2.493,232.109 2.133,231.997 1.968 C 231.200 0.788,193.729 -0.533,183.400 0.255 M290.612 109.789 C 313.755 113.543,330.781 130.477,332.824 151.773 C 333.586 159.722,333.101 253.556,332.280 256.885 C 327.584 275.934,313.902 288.785,293.078 293.703 L 289.400 294.572 200.600 294.710 C 110.406 294.849,106.699 294.800,100.609 293.387 C 80.739 288.779,65.768 274.003,62.572 255.845 C 61.697 250.873,61.726 152.878,62.604 147.844 C 66.020 128.251,83.636 112.610,105.800 109.489 C 109.664 108.945,287.184 109.233,290.612 109.789 M288.702 167.700 L 288.600 199.400 280.400 199.600 L 272.200 199.800 272.087 204.492 L 271.975 209.184 280.287 209.292 L 288.600 209.400 288.702 245.700 L 288.804 282.000 293.400 282.000 L 297.996 282.000 298.098 245.700 L 298.200 209.400 306.300 209.292 L 314.400 209.183 314.400 204.792 C 314.400 202.376,314.400 200.265,314.401 200.100 C 314.402 199.935,310.757 199.710,306.301 199.600 L 298.200 199.400 298.098 167.700 L 297.995 136.000 293.400 136.000 L 288.805 136.000 288.702 167.700 M95.200 142.757 C 95.200 150.378,96.228 149.600,86.155 149.600 L 78.375 149.600 78.487 154.300 L 78.600 159.000 86.800 159.200 L 95.000 159.400 95.200 221.000 L 95.400 282.600 99.800 282.600 L 104.200 282.600 104.400 221.000 L 104.600 159.400 112.700 159.292 L 120.800 159.183 120.800 154.400 L 120.800 149.617 112.700 149.508 L 104.600 149.400 104.490 142.900 L 104.380 136.400 99.790 136.400 L 95.200 136.400 95.200 142.757 M145.503 161.500 L 145.400 186.600 137.900 186.709 L 130.400 186.818 130.400 191.600 L 130.400 196.382 137.900 196.491 L 145.400 196.600 145.600 239.600 L 145.800 282.600 150.298 282.713 L 154.796 282.826 154.898 239.713 L 155.000 196.600 163.900 196.492 L 172.800 196.385 172.800 191.600 L 172.800 186.815 163.900 186.708 L 155.000 186.600 154.897 161.500 L 154.794 136.400 150.200 136.400 L 145.606 136.400 145.503 161.500 M194.705 152.100 L 194.600 167.800 186.400 168.000 L 178.200 168.200 178.087 172.900 C 177.976 177.557,177.983 177.600,178.887 177.611 C 179.389 177.616,182.860 177.625,186.600 177.629 C 190.340 177.634,193.715 177.731,194.100 177.846 C 194.762 178.043,194.800 180.894,194.800 230.440 L 194.800 282.826 199.300 282.713 L 203.800 282.600 203.896 230.469 C 203.948 201.797,204.088 178.182,204.206 177.991 C 204.324 177.800,207.521 177.643,211.310 177.641 C 215.100 177.639,218.695 177.629,219.300 177.619 L 220.400 177.600 220.400 172.808 L 220.400 168.016 212.182 167.908 L 203.963 167.800 203.990 152.100 L 204.017 136.400 199.413 136.400 L 194.809 136.400 194.705 152.100 M243.600 188.900 C 243.605 217.775,243.607 241.625,243.604 241.900 C 243.601 242.284,241.689 242.400,235.388 242.400 L 227.175 242.400 227.288 247.300 C 227.380 251.310,227.509 252.210,228.000 252.254 C 228.330 252.283,231.973 252.328,236.095 252.354 L 243.590 252.400 243.695 267.500 L 243.800 282.600 248.300 282.713 L 252.800 282.826 252.800 267.613 L 252.800 252.400 261.000 252.400 L 269.200 252.400 269.200 247.408 L 269.200 242.417 261.100 242.308 L 253.000 242.200 252.899 189.300 L 252.797 136.400 248.194 136.400 L 243.591 136.400 243.600 188.900 M119.914 154.304 L 120.028 158.407 99.714 158.304 L 79.400 158.200 79.284 154.660 C 79.115 149.503,76.974 149.976,99.952 150.096 L 119.800 150.200 119.914 154.304 M219.514 172.900 L 219.400 177.000 200.000 177.111 C 176.372 177.246,178.800 177.710,178.800 173.059 C 178.800 171.010,178.920 169.213,179.067 169.067 C 179.213 168.920,188.400 168.800,199.481 168.800 L 219.628 168.800 219.514 172.900 M171.351 187.437 C 171.889 187.643,172.000 188.363,172.000 191.643 L 172.000 195.600 151.600 195.600 L 131.200 195.600 131.200 191.633 C 131.200 188.830,131.347 187.610,131.700 187.472 C 132.446 187.182,170.598 187.148,171.351 187.437 M306.900 200.314 L 313.600 200.400 313.600 204.400 L 313.600 208.400 293.200 208.400 L 272.800 208.400 272.800 204.680 C 272.800 202.634,272.972 200.789,273.183 200.580 C 273.538 200.227,290.025 200.096,306.900 200.314 M268.600 247.400 L 268.600 251.400 248.400 251.400 L 228.200 251.400 228.086 247.296 L 227.972 243.193 248.286 243.296 L 268.600 243.400 268.600 247.400 " stroke="none" fill="#333333" fill-rule="evenodd"></path><path id="path2" d="M107.705 109.487 C 108.314 109.579,109.214 109.577,109.705 109.482 C 110.197 109.387,109.700 109.311,108.600 109.314 C 107.500 109.317,107.097 109.395,107.705 109.487 M285.305 109.487 C 285.914 109.579,286.814 109.577,287.305 109.482 C 287.797 109.387,287.300 109.311,286.200 109.314 C 285.100 109.317,284.697 109.395,285.305 109.487 M308.800 116.150 C 308.800 116.244,309.441 116.699,310.224 117.161 C 311.007 117.623,311.536 117.820,311.399 117.598 C 311.131 117.164,308.800 115.866,308.800 116.150 M74.987 124.500 L 72.600 127.000 75.100 124.613 C 77.422 122.395,77.783 122.000,77.487 122.000 C 77.426 122.000,76.301 123.125,74.987 124.500 M288.679 135.855 C 288.525 136.008,288.400 150.323,288.400 167.667 L 288.400 199.200 280.424 199.200 C 276.037 199.200,272.363 199.335,272.261 199.500 C 272.159 199.665,275.793 199.710,280.337 199.600 L 288.600 199.400 288.702 167.700 L 288.805 136.000 293.400 136.000 L 297.995 136.000 298.101 166.900 L 298.207 197.800 298.204 166.800 L 298.200 135.800 293.579 135.688 C 291.037 135.626,288.832 135.701,288.679 135.855 M97.715 136.296 C 98.988 136.376,100.968 136.375,102.115 136.294 C 103.262 136.214,102.220 136.149,99.800 136.150 C 97.380 136.151,96.442 136.216,97.715 136.296 M150.497 136.293 L 154.794 136.426 154.897 161.513 L 155.000 186.600 163.900 186.708 L 172.800 186.815 172.800 191.600 L 172.800 196.385 163.900 196.492 L 155.000 196.600 154.997 239.600 L 154.995 282.600 155.099 239.708 L 155.204 196.815 164.102 196.708 L 173.000 196.600 173.000 191.600 L 173.000 186.600 164.103 186.492 L 155.206 186.385 155.103 161.292 L 155.000 136.200 150.600 136.180 L 146.200 136.161 150.497 136.293 M194.590 136.500 C 194.273 137.362,194.184 167.934,194.500 167.738 C 194.665 167.636,194.800 160.549,194.800 151.989 L 194.800 136.426 199.300 136.299 L 203.800 136.171 199.287 136.086 C 195.978 136.023,194.726 136.133,194.590 136.500 M246.900 136.294 C 247.945 136.376,249.655 136.376,250.700 136.294 C 251.745 136.212,250.890 136.144,248.800 136.144 C 246.710 136.144,245.855 136.212,246.900 136.294 M94.963 142.800 C 94.963 146.430,95.023 147.915,95.098 146.100 C 95.172 144.285,95.172 141.315,95.098 139.500 C 95.023 137.685,94.963 139.170,94.963 142.800 M252.896 189.076 C 252.843 218.158,252.935 242.036,253.100 242.138 C 253.371 242.306,253.370 205.404,253.096 155.200 C 253.039 144.750,252.949 159.994,252.896 189.076 M104.661 149.300 C 104.763 149.465,108.431 149.600,112.811 149.600 L 120.775 149.600 120.908 154.500 L 121.040 159.400 121.020 154.400 L 121.000 149.400 112.737 149.200 C 108.193 149.090,104.559 149.135,104.661 149.300 M82.300 149.498 C 84.555 149.570,88.245 149.570,90.500 149.498 C 92.755 149.427,90.910 149.369,86.400 149.369 C 81.890 149.369,80.045 149.427,82.300 149.498 M332.493 150.400 C 332.493 151.170,332.575 151.485,332.676 151.100 C 332.776 150.715,332.776 150.085,332.676 149.700 C 332.575 149.315,332.493 149.630,332.493 150.400 M89.928 150.300 C 95.498 150.363,104.498 150.362,109.928 150.300 C 115.358 150.237,110.800 150.185,99.800 150.186 C 88.800 150.186,84.358 150.237,89.928 150.300 M62.109 152.000 C 62.109 152.990,62.187 153.395,62.282 152.900 C 62.378 152.405,62.378 151.595,62.282 151.100 C 62.187 150.605,62.109 151.010,62.109 152.000 M79.344 154.400 C 79.344 156.490,79.412 157.345,79.494 156.300 C 79.576 155.255,79.576 153.545,79.494 152.500 C 79.412 151.455,79.344 152.310,79.344 154.400 M332.994 202.000 C 332.994 228.730,333.042 239.665,333.100 226.300 C 333.158 212.935,333.158 191.065,333.100 177.700 C 333.042 164.335,332.994 175.270,332.994 202.000 M78.661 159.300 C 78.763 159.465,82.437 159.600,86.824 159.600 L 94.800 159.600 94.800 220.976 C 94.800 254.733,94.935 282.436,95.100 282.538 C 95.265 282.640,95.310 254.976,95.200 221.062 L 95.000 159.400 86.737 159.200 C 82.193 159.090,78.559 159.135,78.661 159.300 M104.661 159.500 C 104.558 159.665,106.843 159.753,109.737 159.696 C 119.595 159.501,120.613 159.359,112.724 159.279 C 108.392 159.236,104.763 159.335,104.661 159.500 M220.486 172.673 L 220.400 177.547 219.300 177.713 L 218.200 177.880 219.313 177.940 C 220.779 178.019,220.850 177.735,220.699 172.376 L 220.571 167.800 220.486 172.673 M178.971 169.332 C 178.859 169.624,178.821 171.469,178.887 173.432 L 179.007 177.000 179.203 172.899 C 179.398 168.832,179.364 168.307,178.971 169.332 M199.400 176.800 L 179.400 177.011 199.276 177.106 C 212.199 177.167,219.239 177.060,219.400 176.800 C 219.536 176.580,219.592 176.442,219.524 176.494 C 219.456 176.546,210.400 176.684,199.400 176.800 M182.882 177.896 C 184.358 177.973,186.878 177.973,188.482 177.897 C 190.087 177.821,188.880 177.758,185.800 177.758 C 182.720 177.757,181.407 177.819,182.882 177.896 M203.949 178.300 C 203.472 178.909,203.478 178.940,204.000 178.543 C 204.330 178.292,204.960 177.998,205.400 177.889 C 206.160 177.703,206.157 177.690,205.349 177.646 C 204.881 177.621,204.251 177.915,203.949 178.300 M209.282 177.896 C 210.758 177.973,213.278 177.973,214.882 177.897 C 216.487 177.821,215.280 177.758,212.200 177.758 C 209.120 177.757,207.807 177.819,209.282 177.896 M194.594 230.200 C 194.594 259.020,194.642 270.751,194.700 256.269 C 194.758 241.787,194.758 218.207,194.700 203.869 C 194.642 189.531,194.594 201.380,194.594 230.200 M137.800 186.400 L 130.200 186.627 137.676 186.713 C 142.325 186.767,145.246 186.649,145.400 186.400 C 145.536 186.180,145.592 186.039,145.524 186.087 C 145.456 186.134,141.980 186.275,137.800 186.400 M143.500 187.500 C 148.615 187.563,156.985 187.563,162.100 187.500 C 167.215 187.436,163.030 187.385,152.800 187.385 C 142.570 187.385,138.385 187.436,143.500 187.500 M131.340 192.400 C 131.340 194.270,131.409 195.035,131.493 194.100 C 131.577 193.165,131.577 191.635,131.493 190.700 C 131.409 189.765,131.340 190.530,131.340 192.400 M133.200 196.674 C 139.598 196.962,145.510 196.975,145.339 196.700 C 145.237 196.535,141.878 196.435,137.876 196.478 C 133.874 196.521,131.770 196.609,133.200 196.674 M298.163 198.890 C 298.240 199.276,300.273 199.449,306.495 199.600 C 311.022 199.710,314.641 199.665,314.539 199.500 C 314.437 199.335,310.778 199.200,306.410 199.200 C 301.384 199.200,298.392 199.049,298.263 198.790 C 298.151 198.565,298.106 198.610,298.163 198.890 M273.233 200.560 C 272.931 200.924,272.815 202.423,272.901 204.860 L 273.034 208.600 273.117 204.720 C 273.186 201.503,273.320 200.770,273.900 200.432 C 274.285 200.208,274.397 200.019,274.149 200.012 C 273.901 200.005,273.489 200.252,273.233 200.560 M290.482 200.296 C 291.958 200.373,294.478 200.373,296.082 200.297 C 297.687 200.221,296.480 200.158,293.400 200.158 C 290.320 200.157,289.007 200.219,290.482 200.296 M314.484 204.700 L 314.400 209.200 306.424 209.200 C 302.037 209.200,298.364 209.335,298.261 209.500 C 298.159 209.665,301.757 209.748,306.256 209.684 C 312.441 209.597,314.485 209.444,314.633 209.057 C 314.741 208.776,314.771 206.668,314.699 204.373 L 314.569 200.200 314.484 204.700 M280.398 209.496 L 288.396 209.617 288.498 245.908 L 288.600 282.200 293.400 282.200 L 298.200 282.200 298.203 246.500 L 298.206 210.800 298.101 246.400 L 297.996 282.000 293.400 282.000 L 288.804 282.000 288.702 245.700 L 288.600 209.400 280.500 209.387 L 272.399 209.375 280.398 209.496 M232.120 242.298 C 234.055 242.372,237.115 242.371,238.920 242.297 C 240.724 242.223,239.140 242.163,235.400 242.164 C 231.660 242.164,230.184 242.225,232.120 242.298 M258.900 242.297 C 260.605 242.372,263.395 242.372,265.100 242.297 C 266.805 242.222,265.410 242.161,262.000 242.161 C 258.590 242.161,257.195 242.222,258.900 242.297 M226.870 247.276 C 226.831 249.848,226.935 252.037,227.100 252.140 C 227.265 252.242,227.352 250.858,227.292 249.063 C 227.098 243.183,226.941 242.518,226.870 247.276 M268.327 247.225 L 268.453 251.215 248.247 251.107 C 237.133 251.048,228.176 251.137,228.344 251.304 C 228.511 251.471,237.637 251.561,248.624 251.504 L 268.600 251.400 268.716 247.636 C 268.780 245.566,268.690 243.729,268.516 243.554 C 268.342 243.379,268.257 245.032,268.327 247.225 M62.114 251.800 C 62.117 252.900,62.195 253.303,62.287 252.695 C 62.379 252.086,62.377 251.186,62.282 250.695 C 62.187 250.203,62.111 250.700,62.114 251.800 M252.982 267.600 C 252.982 276.070,253.035 279.535,253.099 275.300 C 253.164 271.065,253.164 264.135,253.099 259.900 C 253.035 255.665,252.982 259.130,252.982 267.600 M332.493 253.600 C 332.493 254.370,332.575 254.685,332.676 254.300 C 332.776 253.915,332.776 253.285,332.676 252.900 C 332.575 252.515,332.493 252.830,332.493 253.600 M319.586 279.500 L 317.400 281.800 319.700 279.614 C 321.837 277.582,322.183 277.200,321.886 277.200 C 321.824 277.200,320.789 278.235,319.586 279.500 M306.400 288.800 C 305.630 289.222,305.144 289.574,305.320 289.583 C 305.744 289.605,308.000 288.432,308.000 288.190 C 308.000 287.928,307.977 287.937,306.400 288.800 M153.332 294.700 C 177.715 294.757,217.495 294.757,241.732 294.700 C 265.969 294.643,246.020 294.596,197.400 294.596 C 148.780 294.596,128.949 294.643,153.332 294.700 " stroke="none" fill="#787677" fill-rule="evenodd"></path><path id="path3" d="M153.932 109.500 C 177.985 109.557,217.225 109.557,241.132 109.500 C 265.039 109.443,245.360 109.396,197.400 109.396 C 149.440 109.396,129.879 109.443,153.932 109.500 M104.399 142.519 L 104.598 149.000 104.710 142.831 C 104.771 139.438,104.682 136.521,104.511 136.350 C 104.340 136.178,104.289 138.954,104.399 142.519 M145.384 136.500 C 145.279 136.775,145.239 148.070,145.296 161.600 L 145.400 186.200 145.600 161.100 C 145.710 147.295,145.749 136.000,145.687 136.000 C 145.626 136.000,145.489 136.225,145.384 136.500 M243.394 188.600 C 243.394 217.200,243.442 228.841,243.500 214.469 C 243.558 200.097,243.558 176.697,243.500 162.469 C 243.442 148.241,243.394 160.000,243.394 188.600 M78.153 154.200 C 78.153 156.840,78.218 157.868,78.297 156.484 C 78.375 155.101,78.374 152.941,78.295 151.684 C 78.216 150.428,78.152 151.560,78.153 154.200 M62.194 201.800 C 62.194 228.420,62.241 239.369,62.300 226.131 C 62.358 212.893,62.358 191.113,62.300 177.731 C 62.242 164.349,62.194 175.180,62.194 201.800 M104.595 221.000 C 104.595 254.660,104.642 268.371,104.700 251.469 C 104.758 234.566,104.758 207.026,104.700 190.269 C 104.642 173.511,104.595 187.340,104.595 221.000 M181.720 167.898 C 183.655 167.972,186.715 167.971,188.520 167.897 C 190.324 167.823,188.740 167.763,185.000 167.764 C 181.260 167.764,179.784 167.825,181.720 167.898 M208.321 167.899 C 210.588 167.970,214.188 167.970,216.321 167.898 C 218.455 167.826,216.600 167.768,212.200 167.768 C 207.800 167.768,206.055 167.827,208.321 167.899 M183.700 169.098 C 186.065 169.169,189.935 169.169,192.300 169.098 C 194.665 169.028,192.730 168.970,188.000 168.970 C 183.270 168.970,181.335 169.028,183.700 169.098 M207.100 169.098 C 209.355 169.170,213.045 169.170,215.300 169.098 C 217.555 169.027,215.710 168.969,211.200 168.969 C 206.690 168.969,204.845 169.027,207.100 169.098 M130.153 191.400 C 130.153 194.040,130.218 195.068,130.297 193.684 C 130.375 192.301,130.374 190.141,130.295 188.884 C 130.216 187.628,130.152 188.760,130.153 191.400 M145.393 239.800 C 145.393 263.340,145.441 272.911,145.500 261.069 C 145.559 249.227,145.559 229.967,145.500 218.269 C 145.441 206.571,145.393 216.260,145.393 239.800 M228.140 247.200 C 228.140 249.070,228.209 249.835,228.293 248.900 C 228.377 247.965,228.377 246.435,228.293 245.500 C 228.209 244.565,228.140 245.330,228.140 247.200 M243.381 268.200 C 243.380 276.120,243.434 279.417,243.499 275.526 C 243.565 271.635,243.565 265.155,243.500 261.126 C 243.434 257.097,243.381 260.280,243.381 268.200 " stroke="none" fill="#949494" fill-rule="evenodd"></path><path id="path4" d="M107.705 109.887 C 108.314 109.979,109.214 109.977,109.705 109.882 C 110.197 109.787,109.700 109.711,108.600 109.714 C 107.500 109.717,107.097 109.795,107.705 109.887 M285.305 109.887 C 285.914 109.979,286.814 109.977,287.305 109.882 C 287.797 109.787,287.300 109.711,286.200 109.714 C 285.100 109.717,284.697 109.795,285.305 109.887 M85.500 116.629 C 84.005 117.440,84.096 117.778,85.600 117.000 C 86.260 116.659,86.800 116.294,86.800 116.190 C 86.800 115.932,86.757 115.947,85.500 116.629 M74.987 124.900 L 72.600 127.400 75.100 125.013 C 77.422 122.795,77.783 122.400,77.487 122.400 C 77.426 122.400,76.301 123.525,74.987 124.900 M320.400 125.725 C 320.400 125.794,320.985 126.379,321.700 127.025 L 323.000 128.200 321.825 126.900 C 320.730 125.688,320.400 125.416,320.400 125.725 M66.581 136.437 C 66.229 137.118,66.012 137.745,66.099 137.832 C 66.186 137.919,66.556 137.362,66.922 136.595 C 67.744 134.870,67.459 134.738,66.581 136.437 M288.454 135.735 C 287.943 136.350,287.591 199.200,288.098 199.200 C 288.261 199.200,288.441 184.935,288.498 167.500 L 288.600 135.800 293.200 135.580 L 297.800 135.360 293.349 135.280 C 290.041 135.220,288.784 135.337,288.454 135.735 M94.667 136.267 C 94.520 136.413,94.400 139.293,94.400 142.667 L 94.400 148.800 86.424 148.800 C 82.037 148.800,78.363 148.935,78.261 149.100 C 78.159 149.265,81.793 149.310,86.337 149.200 L 94.600 149.000 94.800 142.499 C 94.910 138.924,94.985 135.999,94.967 135.999 C 94.948 136.000,94.813 136.120,94.667 136.267 M155.200 161.138 L 155.400 186.200 164.000 186.212 L 172.600 186.223 164.100 186.104 L 155.600 185.984 155.600 161.216 C 155.600 147.593,155.465 136.364,155.300 136.262 C 155.135 136.160,155.090 147.354,155.200 161.138 M194.183 136.501 C 194.077 136.777,194.038 143.932,194.095 152.401 L 194.201 167.800 194.400 151.900 C 194.510 143.155,194.549 136.000,194.487 136.000 C 194.426 136.000,194.288 136.225,194.183 136.501 M204.182 151.800 C 204.182 160.600,204.235 164.143,204.300 159.673 C 204.364 155.204,204.364 148.004,204.299 143.673 C 204.235 139.343,204.182 143.000,204.182 151.800 M253.200 189.120 L 253.400 242.200 253.501 189.421 C 253.557 160.393,253.467 136.507,253.301 136.341 C 253.136 136.176,253.090 159.926,253.200 189.120 M108.700 149.098 C 110.955 149.170,114.645 149.170,116.900 149.098 C 119.155 149.027,117.310 148.969,112.800 148.969 C 108.290 148.969,106.445 149.027,108.700 149.098 M62.493 150.400 C 62.493 151.170,62.575 151.485,62.676 151.100 C 62.776 150.715,62.776 150.085,62.676 149.700 C 62.575 149.315,62.493 149.630,62.493 150.400 M121.198 154.481 C 121.089 157.276,121.141 159.421,121.313 159.248 C 121.486 159.075,121.575 156.788,121.511 154.167 L 121.396 149.400 121.198 154.481 M79.772 150.930 C 79.658 151.225,79.618 152.982,79.683 154.833 L 79.800 158.200 99.700 158.206 L 119.600 158.211 99.800 158.102 L 80.000 157.993 80.000 154.396 L 80.000 150.800 99.784 150.800 L 119.569 150.800 119.708 154.100 L 119.847 157.400 119.823 154.000 L 119.800 150.600 99.889 150.496 C 83.522 150.411,79.941 150.488,79.772 150.930 M332.594 202.000 C 332.594 228.730,332.642 239.665,332.700 226.300 C 332.758 212.935,332.758 191.065,332.700 177.700 C 332.642 164.335,332.594 175.270,332.594 202.000 M94.300 198.900 C 94.355 220.515,94.447 248.190,94.504 260.400 C 94.560 272.610,94.650 254.925,94.703 221.100 C 94.757 187.275,94.665 159.600,94.500 159.600 C 94.335 159.600,94.245 177.285,94.300 198.900 M177.773 168.127 C 177.661 168.417,177.623 170.532,177.688 172.827 L 177.805 177.000 178.003 172.299 C 178.198 167.652,178.167 167.099,177.773 168.127 M197.500 169.089 C 198.215 169.178,199.385 169.178,200.100 169.089 C 200.815 169.001,200.230 168.928,198.800 168.928 C 197.370 168.928,196.785 169.001,197.500 169.089 M219.272 174.107 L 219.200 176.415 199.200 176.307 C 188.200 176.248,179.200 176.335,179.200 176.500 C 179.200 176.665,188.206 176.800,199.213 176.800 C 221.546 176.800,219.755 177.069,219.496 173.749 L 219.344 171.800 219.272 174.107 M177.703 177.600 C 177.840 178.103,179.164 178.217,185.932 178.308 L 193.997 178.417 194.099 230.708 L 194.200 283.000 198.967 283.113 C 201.588 283.176,203.875 283.086,204.048 282.913 C 204.221 282.741,202.122 282.655,199.383 282.723 L 194.403 282.846 194.301 230.523 L 194.200 178.200 186.218 178.091 C 180.471 178.013,178.139 177.845,177.888 177.491 C 177.635 177.135,177.584 177.165,177.703 177.600 M204.185 178.500 C 204.080 178.775,204.041 202.220,204.099 230.600 L 204.203 282.200 204.302 230.308 L 204.400 178.416 212.700 178.300 L 221.000 178.183 212.687 178.091 C 206.337 178.022,204.330 178.118,204.185 178.500 M130.261 186.300 C 130.158 186.465,132.353 186.553,135.137 186.496 C 144.479 186.304,145.456 186.157,137.924 186.078 C 133.812 186.035,130.363 186.135,130.261 186.300 M173.198 191.481 C 173.089 194.386,173.141 196.621,173.313 196.449 C 173.485 196.276,173.574 193.899,173.511 191.167 L 173.397 186.200 173.198 191.481 M131.600 187.900 C 131.600 188.173,146.881 188.168,164.800 187.889 C 168.650 187.829,162.755 187.740,151.700 187.690 C 140.645 187.641,131.600 187.735,131.600 187.900 M131.703 194.800 C 131.881 195.453,171.600 195.955,171.600 195.304 C 171.600 195.137,162.748 195.048,151.928 195.108 C 136.393 195.192,132.181 195.108,131.898 194.708 C 131.628 194.325,131.580 194.348,131.703 194.800 M155.298 239.723 L 155.200 282.846 150.199 282.723 C 147.449 282.655,145.199 282.735,145.199 282.900 C 145.201 283.450,155.204 283.254,155.416 282.700 C 155.520 282.425,155.559 262.940,155.501 239.400 L 155.396 196.600 155.298 239.723 M271.754 204.400 C 271.754 207.150,271.818 208.275,271.896 206.900 C 271.974 205.525,271.974 203.275,271.896 201.900 C 271.818 200.525,271.754 201.650,271.754 204.400 M314.955 204.600 C 314.956 207.460,315.020 208.578,315.097 207.083 C 315.174 205.589,315.174 203.249,315.096 201.883 C 315.018 200.518,314.955 201.740,314.955 204.600 M273.372 200.930 C 273.258 201.225,273.218 202.982,273.283 204.833 L 273.400 208.200 292.600 208.206 L 311.800 208.212 292.700 208.102 L 273.600 207.992 273.600 204.396 L 273.600 200.800 293.400 200.800 L 313.200 200.800 313.200 204.367 C 313.200 206.404,313.024 208.021,312.790 208.137 C 312.565 208.249,312.610 208.293,312.890 208.237 C 313.260 208.162,313.400 207.099,313.400 204.367 L 313.400 200.600 293.489 200.496 C 277.122 200.411,273.541 200.488,273.372 200.930 M287.300 209.876 C 287.960 210.048,288.000 212.104,288.000 245.949 C 288.000 273.331,288.114 281.954,288.480 282.320 C 289.014 282.854,297.818 283.018,298.139 282.500 C 298.241 282.335,296.137 282.200,293.462 282.200 L 288.600 282.200 288.498 245.900 L 288.396 209.600 287.498 209.646 C 286.821 209.681,286.772 209.738,287.300 209.876 M226.554 247.600 C 226.554 250.350,226.618 251.475,226.696 250.100 C 226.774 248.725,226.774 246.475,226.696 245.100 C 226.618 243.725,226.554 244.850,226.554 247.600 M228.652 243.516 C 228.544 243.690,229.118 243.767,229.928 243.687 C 232.142 243.469,232.405 243.267,230.524 243.232 C 229.602 243.214,228.759 243.342,228.652 243.516 M241.100 243.500 C 245.995 243.563,254.005 243.563,258.900 243.500 C 263.795 243.436,259.790 243.384,250.000 243.384 C 240.210 243.384,236.205 243.436,241.100 243.500 M268.081 247.107 L 268.000 250.815 248.038 250.707 C 237.059 250.648,228.160 250.735,228.262 250.900 C 228.626 251.489,268.002 251.259,268.230 250.667 C 268.342 250.373,268.373 248.618,268.299 246.767 L 268.163 243.400 268.081 247.107 M231.100 252.698 C 233.355 252.770,237.045 252.770,239.300 252.698 C 241.555 252.627,239.710 252.569,235.200 252.569 C 230.690 252.569,228.845 252.627,231.100 252.698 M253.467 252.667 C 253.320 252.813,253.200 259.638,253.200 267.833 C 253.200 277.610,253.059 282.803,252.790 282.937 C 252.565 283.049,252.610 283.094,252.890 283.037 C 253.290 282.956,253.423 279.692,253.505 267.875 L 253.610 252.817 261.505 252.699 L 269.400 252.582 261.567 252.491 C 257.258 252.441,253.613 252.520,253.467 252.667 M328.865 265.417 C 328.195 266.888,328.323 267.202,329.047 265.865 C 329.386 265.240,329.588 264.654,329.496 264.563 C 329.405 264.471,329.121 264.856,328.865 265.417 M319.387 279.300 L 317.000 281.800 319.500 279.413 C 320.875 278.099,322.000 276.974,322.000 276.913 C 322.000 276.617,321.605 276.978,319.387 279.300 M77.600 281.333 C 77.600 281.443,78.320 282.103,79.200 282.800 C 80.080 283.497,80.800 283.977,80.800 283.867 C 80.800 283.757,80.080 283.097,79.200 282.400 C 78.320 281.703,77.600 281.223,77.600 281.333 M314.800 283.249 C 313.406 284.471,313.405 284.472,314.688 283.619 C 315.396 283.148,316.082 282.591,316.212 282.381 C 316.597 281.757,316.277 281.954,314.800 283.249 M99.600 282.800 L 94.600 283.038 99.700 283.119 C 102.887 283.170,104.800 283.050,104.800 282.800 C 104.800 282.580,104.755 282.436,104.700 282.481 C 104.645 282.526,102.350 282.669,99.600 282.800 M243.553 282.915 C 243.727 283.088,245.744 283.177,248.035 283.112 L 252.200 282.996 247.718 282.798 C 245.253 282.689,243.379 282.742,243.553 282.915 M81.200 284.146 C 81.200 284.256,81.740 284.730,82.400 285.200 C 83.060 285.670,83.600 285.964,83.600 285.854 C 83.600 285.744,83.060 285.270,82.400 284.800 C 81.740 284.330,81.200 284.036,81.200 284.146 M84.000 286.135 C 84.000 286.406,86.874 288.059,87.046 287.887 C 87.126 287.808,86.473 287.339,85.596 286.846 C 84.718 286.352,84.000 286.033,84.000 286.135 M307.100 288.027 C 306.275 288.463,305.600 288.908,305.600 289.018 C 305.600 289.127,306.320 288.849,307.200 288.400 C 308.080 287.951,308.800 287.497,308.800 287.392 C 308.800 287.130,308.797 287.131,307.100 288.027 M96.600 292.000 C 97.040 292.189,97.670 292.344,98.000 292.344 C 98.378 292.344,98.304 292.217,97.800 292.000 C 97.360 291.811,96.730 291.656,96.400 291.656 C 96.022 291.656,96.096 291.783,96.600 292.000 M152.732 294.300 C 177.445 294.357,217.765 294.357,242.332 294.300 C 266.899 294.243,246.680 294.197,197.400 294.197 C 148.120 294.197,128.019 294.243,152.732 294.300 " stroke="none" fill="#9c9c9c" fill-rule="evenodd"></path></g></svg>