<?xml version="1.0" standalone="no"?><!DOCTYPE svg PUBLIC "-//W3C//DTD SVG 1.1//EN" "http://www.w3.org/Graphics/SVG/1.1/DTD/svg11.dtd"><svg t="1721919310491" class="icon" viewBox="0 0 1024 1024" version="1.1" xmlns="http://www.w3.org/2000/svg" p-id="12755" xmlns:xlink="http://www.w3.org/1999/xlink" width="200" height="200"><path d="M409.6 64l-0.064 128H505.6V64h76.8v128h96V64h76.8v128H896v140.736l128 0.064v76.8l-128-0.064v96l128 0.064v76.8l-128-0.064v96l128 0.064v76.8l-128-0.064V896h-140.8v128h-76.8v-128H582.4v128H505.6v-128H409.536l0.064 128H332.8l-0.064-128H192v-140.864L64 755.2v-76.8l128-0.064v-96L64 582.4V505.6l128-0.064v-96L64 409.6V332.8l128-0.064V192h140.736L332.8 64h76.8z m409.6 204.8H268.8v550.4h550.4V268.8zM448 435.2l64 198.4h-51.2L448 588.8h-57.6l-12.8 44.8h-51.2l64-198.4H448z m153.6-6.4c44.8 0 83.2 12.8 83.2 64 0 44.8-38.4 70.4-76.8 70.4h-25.6v64h-51.2V428.8h70.4z m166.4 0v198.4h-51.2V428.8h51.2z m-352 38.4c-6.4 19.2-12.8 44.8-12.8 64l-6.4 19.2h38.4l-6.4-19.2c-5.12-15.36-10.24-34.816-12.096-51.84L416 467.2z m172.8 0h-19.2v57.6h25.6c25.6 0 32-12.8 32-32s-12.8-25.6-38.4-25.6z" fill="#1677ff" p-id="12756"></path></svg>