<svg t="1694652889725" class="icon" viewBox="0 0 1024 1024" version="1.1" xmlns="http://www.w3.org/2000/svg" p-id="15332" width="200" height="200"><path d="M284.804 360.254L462.757 255.48a7.676 7.676 0 0 0 0-13.241L283.589 137.334a7.484 7.484 0 0 0-7.548 0L98.153 242.238a7.676 7.676 0 0 0 0 13.24l179.103 104.84a7.484 7.484 0 0 0 7.548 0z m464.39 0L927.148 255.48a7.676 7.676 0 0 0 0-13.241L748.043 137.334a7.484 7.484 0 0 0-7.612 0L562.543 242.238a7.676 7.676 0 0 0 0 13.24l179.104 104.84a7.484 7.484 0 0 0 7.612 0z m-22.963 39.403l-0.64 208.528a7.676 7.676 0 0 1-3.71 6.589 7.484 7.484 0 0 1-7.547 0l-179.168-104.84a7.676 7.676 0 0 1-3.838-6.589l0.64-208.527c0-5.95 6.332-9.595 11.321-6.653L722.457 393.07a7.676 7.676 0 0 1 3.838 6.588z m-429.465 0l0.64 208.528c0 5.885 6.268 9.531 11.258 6.589l179.167-104.84a7.676 7.676 0 0 0 3.838-6.589l-0.64-208.527a7.676 7.676 0 0 0-3.837-6.653 7.484 7.484 0 0 0-7.484 0L300.54 393.07a7.676 7.676 0 0 0-3.838 6.588zM719.45 694.922l2.494 0.896a7.676 7.676 0 0 1 3.774 6.588l0.64 208.528a7.676 7.676 0 0 1-3.838 6.653l-179.104 104.84a7.548 7.548 0 0 1-11.386-6.589l-0.64-208.528a7.676 7.676 0 0 1 3.839-6.652l179.104-104.84a7.484 7.484 0 0 1 7.611 0z m-410.851 0.896l179.167 104.904a7.676 7.676 0 0 1 3.838 6.588l-0.64 208.528a7.676 7.676 0 0 1-3.837 6.588 7.484 7.484 0 0 1-7.484 0l-179.232-104.84a7.676 7.676 0 0 1-3.838-6.588l0.64-208.528c0-5.948 6.332-9.594 11.322-6.652z m643.814-137.206l2.494 0.895a7.676 7.676 0 0 1 3.774 6.653l0.576 208.464a7.676 7.676 0 0 1-3.774 6.588L776.38 886.116a7.548 7.548 0 0 1-11.386-6.653l-0.64-208.528c0-2.75 1.472-5.245 3.839-6.652l179.103-104.84a7.484 7.484 0 0 1 7.612 0z m-876.777 0.895l179.168 104.904c2.366 1.28 3.837 3.838 3.837 6.588l-0.64 208.528a7.676 7.676 0 0 1-3.837 6.589 7.484 7.484 0 0 1-7.484 0L67.513 781.276a7.676 7.676 0 0 1-3.774-6.588l0.64-208.528c0-5.885 6.268-9.595 11.258-6.653z m436.885-18.358l2.559 0.896 179.103 104.903a7.676 7.676 0 0 1 0 13.177L516.296 764.901a7.676 7.676 0 0 1-7.548 0L329.58 660.125a7.676 7.676 0 0 1 0-13.24L507.47 542.108a7.484 7.484 0 0 1 7.548 0zM951.71 287.206l2.43 0.96a7.676 7.676 0 0 1 3.839 6.652l0.575 208.527a7.676 7.676 0 0 1-3.838 6.589l-179.103 104.84a7.548 7.548 0 0 1-11.322-6.589l-0.64-208.528c0-2.75 1.407-5.309 3.838-6.652l179.104-104.84a7.484 7.484 0 0 1 7.548 0z m-875.306 1.023l179.104 104.904c2.43 1.279 3.838 3.838 3.838 6.588l-0.64 208.528a7.676 7.676 0 0 1-3.774 6.589 7.484 7.484 0 0 1-7.548 0L68.281 509.998a7.676 7.676 0 0 1-3.838-6.589l0.64-208.527c0-5.95 6.268-9.595 11.321-6.653zM512.586 0.128l2.43 0.895 179.168 104.84a7.676 7.676 0 0 1 0 13.241L516.296 223.88a7.356 7.356 0 0 1-7.548 0L329.58 119.04a7.676 7.676 0 0 1 0-13.24L507.47 1.022a7.484 7.484 0 0 1 7.548 0z" p-id="15333"></path></svg>
