<?xml version="1.0" standalone="no"?><!DOCTYPE svg PUBLIC "-//W3C//DTD SVG 1.1//EN" "http://www.w3.org/Graphics/SVG/1.1/DTD/svg11.dtd"><svg t="1683216927308" class="icon" viewBox="0 0 1025 1024" version="1.1" xmlns="http://www.w3.org/2000/svg" p-id="35715" xmlns:xlink="http://www.w3.org/1999/xlink" width="200.1953125" height="200"><path d="M391.518603 331.339211l301.143903 301.101315 150.635835-150.550657a212.942938 212.942938 0 0 0-301.186492-301.186492L391.518603 331.339211zM692.705095 512l-180.660789-180.703377 90.287806-90.372983a127.765763 127.765763 0 1 1 180.703377 180.660789l-90.287806 90.415571z" fill="#1677ff" p-id="35716"></path><path d="M451.738866 391.559474L512.001718 451.779737 451.738866 512l-60.220263-60.220263zM572.221981 512l60.220262 60.262851-60.220262 60.220263L512.001718 572.262851zM210.815226 752.966229l60.220263 60.220262-210.813508 210.813509-60.220263-60.220263zM963.781455 0l60.220263 60.220263-210.813509 210.813508-60.220263-60.220262z" fill="#1677ff" p-id="35717"></path><path d="M632.442243 692.703377L331.298341 391.559474l-150.593246 150.593246a212.942938 212.942938 0 0 0 301.101314 301.143903l150.635834-150.593246zM331.255752 512l180.660789 180.703377-90.287806 90.372983a127.765763 127.765763 0 1 1-180.703377-180.703377L331.213163 512z" fill="#1677ff" p-id="35718"></path></svg>
