<?xml version="1.0" standalone="no"?><!DOCTYPE svg PUBLIC "-//W3C//DTD SVG 1.1//EN" "http://www.w3.org/Graphics/SVG/1.1/DTD/svg11.dtd"><svg t="1709024206856" class="icon" viewBox="0 0 1024 1024" version="1.1" xmlns="http://www.w3.org/2000/svg" p-id="4211" xmlns:xlink="http://www.w3.org/1999/xlink" width="200" height="200"><path d="M975.292814 48.762787c-65.054118-65.01705-170.864362-65.01705-235.918479 0L71.003511 717.133611c-0.315077 0.315077-0.500416 0.70429-0.778425 1.0379-0.389213 0.444814-0.722824 0.926697-1.074968 1.408579a18.014986 18.014986 0 0 0-2.316742 4.429611c-0.166805 0.481882-0.407747 0.908163-0.537485 1.390046l-0.222407 0.556018-65.517466 275.228959a18.367131 18.367131 0 0 0-0.407747 3.743855c0 0.240941-0.074136 0.463348-0.074135 0.70429a18.441267 18.441267 0 0 0 1.760724 7.469176c0.908163 1.983131 2.038733 3.892127 3.632651 5.486045a18.64514 18.64514 0 0 0 17.384833 4.930028l275.228959-65.517466c0.500416-0.111204 0.945231-0.389213 1.427113-0.556019a18.255928 18.255928 0 0 0 5.560181-3.002497c0.444814-0.352145 0.908163-0.61162 1.334444-1.000833 0.148271-0.148271 0.333611-0.222407 0.481882-0.370679L975.274281 284.681267c65.054118-65.054118 65.054118-170.882896 0.018533-235.91848z m-26.206986 26.206987c46.112434 46.130968 50.041629 118.561593 12.047059 169.344579l-181.391638-181.391638c50.80152-37.99457 123.232145-34.065376 169.344579 12.047059z m-91.742986 275.228959l-183.485973-183.485973 26.206986-26.206986 183.485973 183.485973-26.206986 26.206986zM92.020995 932.034606a18.515403 18.515403 0 0 0-26.206986 0l-14.03019 14.03019 47.335674-198.832072 81.957068-9.100163-10.54581 94.930824c-0.074136 0.70429 0.185339 1.352977 0.185339 2.038733 0 0.70429-0.259475 1.334443-0.185339 2.038733 0.074136 0.61162 0.389213 1.112036 0.51895 1.705122a18.83048 18.83048 0 0 0 4.540815 8.766552c0.889629 0.945231 1.853394 1.74219 2.909828 2.483547 0.834027 0.574552 1.630986 1.112036 2.557683 1.556851 1.22324 0.574552 2.502081 0.908163 3.836525 1.22324 0.70429 0.166805 1.278842 0.556018 2.001665 0.648688a18.200326 18.200326 0 0 0 2.020199 0.111203h0.074136a18.441267 18.441267 0 0 0 2.020199-0.111203l94.930824-10.54581-9.100163 81.957068-198.850607 47.335674 14.03019-14.03019a18.533937 18.533937 0 0 0 0-26.206987z m232.600905-101.547439L739.374335 415.716199a18.515403 18.515403 0 1 0-26.206987-26.206986L298.414914 804.280181l-88.46248 9.822986 9.822987-88.462479 414.789502-414.752435a18.515403 18.515403 0 1 0-26.206986-26.206986L193.568434 699.433701l-58.99352 6.561014L647.649882 192.919747l183.485973 183.485972-513.074968 513.074969 6.561013-58.993521z m585.134914-532.702407l-183.485972-183.485973 26.22552-26.22552 183.485973 183.485973-26.225521 26.22552z" fill="" p-id="4212"></path></svg>
