<?xml version="1.0" standalone="no"?><!DOCTYPE svg PUBLIC "-//W3C//DTD SVG 1.1//EN"
        "http://www.w3.org/Graphics/SVG/1.1/DTD/svg11.dtd">
<svg t="1618998703919" class="icon" viewBox="0 0 1024 1024" version="1.1"
     xmlns="http://www.w3.org/2000/svg" p-id="1636" xmlns:xlink="http://www.w3.org/1999/xlink"
     width="200" height="200">
    <defs>
        <style type="text/css"></style>
    </defs>
    <path d="M361.2 992.8c-27-2.5-53.6-7.5-79.6-15-42.9-12.8-83-33.4-118.5-60.8-14.8-11.5-46.4-43.1-59.3-59.3-47.8-60.2-72.2-125.8-74.6-201C28 621.3 32.5 586 42.4 552c2.7-9.2 2.9-10.3 2.3-21.3-0.7-15.1 0.7-30.2 4-44.9 2.5-9.8 9.3-24.5 13.7-29.9l2.7-3.2-0.4 17.5c-0.5 25-0.4 25.1 7.5 11.1 18.1-32.5 41.5-61.7 69.2-86.5 7.8-7.1 14.8-13.6 15.6-14.4 0.8-0.8 3.6-7.2 6.4-14 8.3-20.7 15.8-32 23.9-36.1 7-3.6 13.4-1.8 14.9 4.2 0.3 2.9 0.2 5.8-0.3 8.7-0.4 2.1-0.6 4.3-0.5 6.4 0.2 0 6.3-3.2 13.6-7 26.2-14 44.9-22 84.3-35.9 13-4.6 25.3-9.1 27.2-9.9 11.1-4.7 17.1-20.4 16-41.8-0.1-7-1.5-13.8-4.1-20.3-1.5-4.3-3.1-8.6-4.9-12.8-2-3.9-1.7-4.6 1.5-3.7 9.4 2.7 20.6 11.7 27.6 22.3 4.1 6.2 11 21 11 23.8 0 2.3 1.4 1.2 4.5-3.4 12.4-18.3 12.4-39 0.2-59.9-4.5-7.6-17.3-20.2-26-25.6-11.1-6.8-17.9-8.9-29.8-8.7-9.2 0.1-10.1-0.1-12.8-2.3-3.3-2.8-5.2-8.8-4.4-13.8 1-5.7 10.7-24.1 17.3-33 7.8-10.5 25.6-27.5 36.9-35.6 36.7-26.1 82.7-41.8 136.2-46.7 12.9-1.2 13.4-1.3 16-4.1 2.5-2.7 3.3-2.9 8.9-2.9 5.4 0 6.8 0.5 12.8 3.9 6.3 3.7 7 3.9 9.6 2.7 2-0.9 5.3-1.1 11.3-0.7 6.8 0.4 8.9 0.3 10.6-1 3.1-2.2 6.9-1.9 12.5 1 2.7 1.3 10.6 3.7 17.6 5.2 33 7.3 59.4 17.5 84.6 32.8 4.5 2.7 8.3 4.9 8.5 4.9 0.4 0-0.1-3.5-1.3-9.9l-0.5-2.7 6.1 3.6c8 4.8 15.3 12.4 19.3 20 2.8 5.4 3.4 6 4.9 5.1 1.2-0.7 2.6-0.8 4.4-0.1 2.2 0.8 3.7 3 8 11.8 3 6 5.7 11.1 6 11.5 0.4 0.4 3.4-2.3 6.7-6 7.1-7.7 13.6-12.1 22.1-15 8-2.7 12.9-2.1 16.5 1.9 3.6 4 3.6 9.3-0.2 17.2-7.2 15.3-10.5 29.3-9.3 40l0.7 5.5 4.3-3.1c4-2.8 4.9-3.1 12.3-3.1 7.7 0 16.1 2.3 16.1 4.5-1.3 2.3-2.8 4.4-4.5 6.4-7.4 9.1-9.3 14.2-9.1 25.2 0.1 10.1 0.6 12.4 7.1 34.9 2.4 8.2 5.2 19 6.1 23.9 0.4 3.1 1.2 6.1 2.4 8.9 1.6 0 12.6-9.1 19.2-15.9 4-4 7.5-7.3 7.8-7.3 1.3 0 3.7 7.6 4.7 15.1 1.2 8.9 0.3 17.4-2.9 27.8-1.9 6.3-2 6.8-0.5 9.9 2.5 5.2 2.8 10.7 1.1 17.9-2.8 12.2-8 20.5-21.4 34.5l-6.9 7.2-1.1 9.7c-0.6 5.4-2 13.4-3.1 17.8-0.8 2.8-1.3 5.7-1.4 8.6 0.3 0.3 1.2-0.1 2-0.8 2.1-1.8 8.7-0.8 15.2 2.3 13.4 6.4 39.1 29.8 49.2 44.9l5.4 8.1 8.7 2.2c35.6 9 63.2 34.8 78.5 73.3 4.8 12.1 8.2 27.5 10.6 47.7 0.8 6.2 2.4 11.7 7.2 23.7 3.4 8.6 6.8 18 7.4 20.9 1.7 7.8 0.7 17.8-2.4 25.2-1.5 3.5-3.5 9.3-4.5 12.9-3.7 13-9.6 21.4-19.6 27.9-3.2 2.1-8.2 4.4-11.1 5.2-5.5 1.5-24.1 10.1-24.1 11.1 0 0.3 1.3 0.9 2.9 1.2 8.9 1.8 20.5 10.1 23.4 16.9 0.6 1.4 2.9 4.9 5.2 7.9 8.6 11.3 10.7 21.6 7.6 37.9l-1.6 8.6 2.5 3.1c8.9 10.9 16.5 25 19.2 35.9 3.9 15.2 3.9 30.1-0.2 52.4l-1.8 9.5 3.2 4.7c6.2 9 7.4 17.5 4.3 29.7-7.8 30.3-30.8 52.7-62.9 61.2l-6.3 1.6v8.4c0 6.4-0.5 9.4-2 12.8-2.6 5.7-7.2 10.2-12.9 12.8-9 4-22.5-0.3-29-9.3-3.3-4.4-3.6-4.5-8.4-4.5-3.1-0.1-6.1-0.6-9.1-1.5-10-3.5-14.6-10.3-14.8-22l-0.2-6.8-6.3-3.8a95.5 95.5 0 0 1-22.7-18.4l-6-6.6 3.1 6.2c13.5 26.8-1.8 55.9-34 64.5-6.6 1.8-11.6 2.1-39.9 2.8-43.1 1.4-362.4 1.2-376.3 0.1z m543.4-16.1c4.1-3.5 5.8-12.6 3.2-17.4-2.3-4.6-5.6-6-15.5-6.8-11.1-0.8-14.2-2.4-14.2-7.2 0-6.2 1-6.4 25.8-6.8 24-0.3 31.3-1.5 41.8-6.8 9.3-4.7 21-19.2 22.1-27.4l0.5-3.8-6.6 1.9c-25.1 7-59 8.3-83.8 3.2-26.8-5.6-51.5-20.9-60.2-37.3l-2.2-4.1-1.2 2.8c-1 4.4-1.4 8.9-1.2 13.4-0.1 9.9 0.1 11.1 2.9 16.9 5.8 12.3 18.5 24.2 33.9 31.9 8 4.1 8.2 4.2 7.7 7.2l-1.7 9.7c-1.5 8.5-0.6 13.1 3.3 17.6 4.1 4.7 10.1 7.2 16.3 7 3.8 0 6.1 0.6 7.7 1.8 8.2 6.5 16.8 8.2 21.4 4.2z m-201.3-7.4c18.7-2.7 24.7-2.8 34.7-0.6 20.5 4.5 41.7 0.9 51-8.8 6.1-6.4 8-16.5 4.2-22.7-4.7-7.6-16.9-12.9-30.4-12.9-9.4 0-14.3 1.4-30.7 8.4-4.9 2.2-10 4.1-15.2 5.8-7 1.4-10.7-2.5-10.7-11.2 0-9.3 2.6-12.4 22.5-26.6 17.2-12.1 27.4-26 29.9-40.6 1.1-6.8-0.1-16.2-2.5-18.4-3.8-1.8-7.8-3.3-11.9-4.3-33.4-9.8-48.8-22.6-63.3-52.6-5.8-11.7-10.5-24-14.1-36.6-1.7-5.9-3.8-11.8-6.1-17.5-10.9-23.9-37.3-45.6-67.7-55.4-12.9-4.2-21-5.6-41.6-7.4-7.6-0.6-15.1-1.4-22.7-2.3l-4.8-0.7 6.8-3.5c8.3-4.2 14.3-6.2 23.2-7.4 12.6-1.9 21.2-2.2 30.5-1.2 37.1 4.2 65.1 23.3 84.8 57.9 7.3 12.9 12.6 26 17.7 44.3 5.9 21.2 11.3 31.9 21.5 42.6 16.5 17.5 38.6 25.3 71.2 25.3 7.2 0 16.1-0.5 19.8-1 15.2-2.1 31-7.6 42.6-14.6 12.8-7.7 24.7-21.8 28.6-33.8 1.2-3.6 2.6-6.6 3.1-6.6s4.2 0.7 8 1.6c6.6 1.6 7.6 1.6 15.5 0 12.8-2.4 16.2-2.2 19.5 1.3 4.9 5.2 11.1 6.2 18.1 2.8 2.8-1.5 5.2-3.5 7.2-6 2.3-3.2 2.8-4.7 2.6-8.3-0.3-4.3-0.4-4.4-7.8-9.3-2.6-1.6-5.1-3.3-7.5-5.3 1.2-1.3 2.6-2.4 4.1-3.2 3.1-2 5-2.6 7.7-2.3 4.1 0.4 4.2-0.2 0.2-7.9-3.4-7-9.1-12.7-16.2-15.9-13.6-6.6-28.9-6.6-46.1 0-10.3 4-11.9 4.1-18.9 1-9.3-4.1-18.7-5.6-31.6-4.8-15.8 1-26.2-0.7-30.2-4.7l-2.9-2.9 12.7-1.2c19.7-1.8 25.4-3.5 42.9-13.2 10.8-6 17.2-7.6 33.4-8.5 23.3-1.3 34.4-5.3 40.6-14.6 2.2-3.3 3.3-4.3 4.3-3.6 13.7 3.5 27.6-4.8 31.1-18.6 0.1-0.3 0.2-0.7 0.2-1 0.6-3.4 0.5-3.6-9.6-12.5-3.6-3-7.1-6.2-10.3-9.7 0-0.4 1.6-2 3.4-3.7 5.8-5 9.9-4.2 21.5 4.3 2 1.5 2.2 1.5 2.2-0.2 0-3.8-2.4-10.1-9.2-24.5-8-16.9-8.7-18.9-10.2-32.3-4.8-41.4-27.2-76.1-62-96.4-2.8-1.7-5.6-3.3-8.5-4.6-1.5 1.9-2.8 4.1-3.7 6.4-1.8 3.6-4.1 7.1-6.8 10.1-3 3.1-4.3 3.8-7.3 3.8-4.3 0-7.2-2.2-7.2-5.4 0-1.2 1.3-4.9 2.9-8.3 4.8-10.4 6.2-17.7 4.8-26-3.2-19.2-21.3-40.9-43.9-52.7-8.9-4.6-9.9-4.4-10.4 1.2-0.6 6.5 0.8 19.7 3.1 28.6 1 4.1 4.7 13.9 8.1 21.8 8.8 20.1 11.4 29 11.5 37.8 0.2 3.7-0.4 7.4-1.6 10.9-2.6 5.2-6.5 9.6-11.3 12.9-3.3 1.7-7 1.8-6.3 0.2 5.1-11.7 6.8-17.3 7.2-24.5 0.6-10.1-0.8-14.7-9.4-32.3-8.6-17.7-11-27.4-10.5-41.9l0.4-10.2-2.3 4.6c-3.1 5.6-6.5 11.1-10 16.5-12.3 19-16.2 29.2-16.2 42 0 11.8 4.6 28.3 11.2 40.2 1.3 2.3 2.2 4.4 1.9 4.7-2.2-1.2-4.2-2.8-5.8-4.7-5.4-5.1-13.1-18.2-13.1-22.3 0-2.7-1.8-2.2-9.7 2.8-14.7 9.5-25.3 19-39.2 35.6-20.4 24.2-48.1 42.2-82.1 53.4-8 2.6-34 9.6-57.8 15.5-65.2 16.2-88 24.2-118.2 41.6-59.7 34.4-90.9 80.5-97.1 143.4-2.2 22.5 0.9 56.7 7.4 81.2 1 3.7-5.2-4.5-9.1-12.1-7-13.4-11.5-29.9-13.7-50.7-2-18.5 0.2-55.5 4.5-75.3l0.6-2.8-14.4 0.6c-35.6 1.5-65.1 11.6-89.2 30.6-3.6 2.8-7.1 5.8-10.3 9.1l-2.4 2.9 0.6-2.8c1.1-5.1 6.8-16.3 11.5-22.3 9.7-12.8 29.1-24.9 49.4-31 5.3-1.6 21.6-5.6 36.2-8.9 14.6-3.2 27.3-6.1 28.2-6.4 0.8-0.2 3.6-4.3 6.2-9.1s7.2-12.2 10.3-16.5c3.1-4.4 5.5-8.1 5.3-8.3-5.3 0.4-10.5 1.1-15.7 2-8.4 1.3-27.1 3.9-41.4 5.8-28.9 3.8-45.2 6.8-60.4 11.2C216 679 189.1 705 175 750.4l-3.6 11.7 1.9 5.5c3 9 13.3 29 20.1 39.1 26.7 39.8 68.6 72.1 119.9 92.5 11.7 4.6 13 5.4 19.1 11.4 3.6 3.5 6.4 6.5 6.2 6.7-0.7 0.8-30.3-7-43.1-11.3a273.66 273.66 0 0 1-85.1-46.1c-5.6-4.3-11.5-8.2-17.8-11.4-20.9-10.7-40-24.7-56.4-41.6-7.8-8.1-14.4-17.2-19.6-27l-4.1-7.7 5.9 5.4c12.9 11.8 31.5 23.9 40.7 26.5 2.1 0.6 2 0.2-1.8-6.5-5.7-10.2-10.6-20.7-14.6-31.7-2.6-7.2-6.4-13.9-11.3-19.8-30.1-39.1-52-78.3-67.4-120.3l-4.7-13-0.8 4.3c-0.7 7.2-1 14.4-1 21.7l-0.2 17.4 5.6 15.5c5.8 15.9 26.8 72.3 28.6 77.1 0.6 1.4 0.8 2.7 0.6 2.7s-3.7-4.2-7.6-9.3c-9.2-11.6-19.5-27-21.3-31.9l-1.5-3.8 0.6 3.4c4.1 21.7 10.3 42.9 18.7 63.3 23.6 55.4 62.4 103.9 109.5 137.1 45.9 32.3 108.3 55 163.5 59.5 5.3 0.4 83.8 0.8 174.4 0.9 141.5 0 166.2-0.2 174.9-1.4zM771.1 701c-10.7-2.2-21-5.9-30.6-11.1-18.5-10.9-31.7-29.9-33-47.6-0.4-6.2-0.4-6.3 0.9-2.9 8.4 21.3 24.5 38.4 46.8 49.6 10.2 5.2 15.9 7.2 27.8 10.3l10.6 2.7-8.7-0.1c-4.6 0-9.2-0.3-13.8-0.9z m105.8-96.5c-9.7-2.3-20.5-11-23.5-18.9-1.9-6.3-1.6-13.1 0.8-19.3l1.5-2.8 0.7 3.9c1.8 9.7 8.6 17.9 18.4 22.3 2.9 1.3 10.3 3.2 16.5 4.3 9.2 1.6 15.1 3.3 18.7 5.5 0.3 0.2 0.6-4.2 0.7-9.6 0.2-9.5 0.2-9.8-1.4-7.5-3.3 4.9-8 8.7-10.9 8.7-3.8 0-20.6-6.1-25.3-9.2-5.8-3.8-7.6-7.5-7.6-15.4 0-5.6-0.4-7.1-2.2-9l-2.2-2.3 4.6-4.2c7.6-6.9 12.3-8.7 22.9-8.7 10.3 0 14.8 1.6 22 7.8 10.3 8.9 13.8 30.5 7.8 48.4l-2.2 6.6-17.9 0.2c-7 0.1-14.2-0.2-21.4-0.8z m11.7-34.2c3.4-1.7 5.4-5.5 5.3-10-0.1-2.8-0.9-4.2-3.6-6.7-5.6-5.2-13.2-3.7-16.5 3.2-4.3 9.2 5.6 18.3 14.8 13.5z m-81.9 345.5c-4.7-7.4-8.2-15.6-10.3-24.1-3.2-14.3-0.3-37.3 6.1-48.4l2.4-4.3-8 0.6c-4.2 0.3-8.5 0.6-12.7 0.6h-4.6v7.1c0 14.2-6.6 31.6-17 44.6l-5.4 6.8 9.9 0.7c5.4 0.4 12.7 1.5 16.3 2.6 7.2 2.2 16.3 7.7 21.3 13 4 4.3 4.7 4.6 2 0.8zM939.2 882c7.2-2.9 13.2-8.2 16.8-15.1 3.5-7 7.2-25.7 7.9-39.3 0.4-8.7 0.2-12.9-1.1-18.8-1.6-7.5-7.4-20.9-11-25.4l-1.8-2.3-4.7 3.4c-10.5 7.5-18.8 8.7-29.4 4-5.2-2.2-8-2.8-16-3.1l-9.8-0.4-3.2 5.6a86.49 86.49 0 0 1-40.8 37.1l-7.4 3.4-0.7 5.2c-2.7 21.1 11.4 35.7 42.3 43.6 16.2 4.1 21.6 4.7 38.4 4.5 12.8-0.2 15.8-0.6 20.5-2.4z m-777-149.7c8.9-42.9 41.4-71.6 96.6-85.3 13.8-3.4 36.5-7.9 77.8-15.4 54.2-9.8 70.9-15 90.8-28.3l12.1-8-50.9-0.3c-62.4-0.4-70.6 0.4-95 8.4-15.4 5.2-30.5 11.9-72.3 32.5-19.9 9.8-36.3 17.7-36.5 17.5-0.4-0.4 15-13.9 22.9-20 25.8-20.4 68.1-43.9 95.2-52.9 46.2-15.5 81.7-18.4 156.6-13.1l35.8 2.5 14-3.5c13.7-3.4 27.7-6.1 54.1-10.3 4.5-0.6 9-1.5 13.4-2.5 0.2-0.2-0.4-0.6-1.4-1-5.2-1.8-10.1-4.2-14.6-7.3-2.1-1.3-4.2-2.8-6-4.4 0-0.2 12.5-0.2 27.8-0.1 27.8 0.3 27.8 0.3 37.6-2.3 60.4-16.3 110-60.8 136.5-122.5 5.5-12.9 15.1-40.4 14.4-41.1-0.3-0.3-3.5 1.3-7.2 3.5-9.3 5.7-29 15.5-40.4 20-28.3 11.4-58.3 18.1-88.8 20l-8.6 0.6-6.8 6.4c-24.1 22.7-60.5 44.3-93.7 55.8-18.5 6.4-30 9-89.6 20.3-29.5 5.6-63 12.2-74.4 14.5-83.2 17.5-136.4 39.4-165.2 68-9.8 9.7-15 17.2-20.8 29.4-2.9 6.2-6 11-10.6 16.1-8 9.3-13.8 20.4-17 32.3-3.7 15-2.1 36.9 4.3 55.6 2.3 6.7 8.2 20.4 8.8 20.4 0.3-1.7 0.8-3.6 1.1-5.5z m-33-34.9l-1-14.7-10.5-15.7c-6.5-9.8-12.8-19.6-18.8-29.7-10.9-19.1-21-38.5-30.3-58.4l-2.1-4.8 0.5 3.9c1 7.3 6 27.1 9.5 37.9 8.4 25.3 20 49.4 34.6 71.7 6.3 9.5 18.2 25.3 18.7 24.8 0.1-5-0.1-10-0.6-15z m-0.4-56.3c-3.1-15.9-1.6-37.5 3.5-50.3 2.1-5.4 6.6-14.3 7.1-14.3 0.2 0 1.8 3.8 3.5 8.4 3.1 8.5 7.2 16.7 8.5 16.7 0.4 0 2.4-2.9 4.4-6.4 2-3.5 6.4-10 9.8-14.5l6.2-8.2-3.8-2.4c-12.3-7.8-23.5-25.6-28.4-44.9-4.7-19.1-6.2-48.3-3.5-72.2 0.6-4.1 0.9-8.2 0.9-12.3-0.7-0.6-14.1 16.1-22.5 27.8a319.2 319.2 0 0 0-34.8 63.9L75.4 543l4.2 11.8c12.3 33.8 29.3 65.6 50.5 94.6-0.2-2.7-0.6-5.5-1.3-8.3z m59.1-75.5c-2.8-11.7-4-27-4-54.4 0-26.3 0.2-30.2 2.3-41.6 2.7-14.8 7.7-31.9 12.2-41.8 3.3-7.2 13-23.8 13.6-23.3-0.6 7-1.4 13.9-2.4 20.8-4.3 32.4-5.2 44.4-4.5 63.1 0.8 21.4 4.6 48.3 6.9 48.3 0.9 0 1.2-4.5 1.1-20-0.5-24 2.7-47.9 9.7-70.8 8-28.1 25-65.1 40.6-88.4 1.2-1.7 2.3-3.5 3.2-5.4 0-0.3-2.5-0.2-5.6 0.2-37.1 5.7-67.2 30.6-82.3 68l-3.7 9.3 0.4-6.6c1.3-18.9 5-45.4 7.6-54.1 0.3-1-0.6 0.4-2 3-11.1 20.6-21.7 79.5-21.7 120.9 0 30.3 5.4 52.2 16.3 66.7 5.2 7 13.5 11 12.3 6.1z m51.3-36.9c8.5-4.2 20.2-7.5 71.3-20.4 22.3-5.6 45.8-11.9 52.2-14 23.7-7.7 45.2-20.7 63.1-38 18.6-17.9 24.8-27.4 30.7-46.8 2.7-9 2.7-9 4.4-6.8 7.4 9.9 7.3 33.5-0.2 48.3-1 2-1.5 3.7-1.1 3.7 2 0 12.7-7.9 17.1-12.7 11.7-12.5 17.1-23.9 26.6-55.9 1.4-5 3-10 4.8-14.8 0.8-1 4.3 7.1 6.4 15 1.1 4.2 1.6 9.7 1.6 17.7-0.1 13.2-2.5 23.3-8.6 35.4l-3.5 6.8 5.2-2.8c12.5-6.7 35.2-34.5 44.9-55 5.8-11 8.7-23.3 8.4-35.7 0.1-17.1-3.5-28.3-13.8-43.3-13.5-19.5-44-42.2-70.6-52.7-4.1-1.6-6.8-3.7-11.4-8.9-3.3-3.7-5.6-6.7-5.1-6.7 1.2 0 19 4.8 31 8.4 28.4 8.4 50.6 20.9 67.8 37.9 19.8 19.6 29.3 40.3 29.1 63.8-0.1 20.8-7.4 39.8-23.6 61.1-2 2.5-3.9 5.2-5.6 7.9 0 0.8 15.5-6.1 25.1-11.2 12.2-6.4 31.9-19.7 39.4-26.5 10.5-9.5 24.5-33 30.6-51.2 5.8-17.5 6.7-36.2 2.5-54.1-3.7-14.5-13.3-31.3-25.1-44.2l-5.1-5.6h4.9c2.7 0 5.1-0.4 5.4-0.9 1.2-1.9-1.6-6-6-8.8-7.5-4.7-10.6-5.2-24.4-3.4-15.5 2-40.2 2-52.1 0-10.3-1.7-21.8-5.3-27.4-8.6l-3.8-2.3 35.1-0.5c26.8-0.4 37.1-0.9 43.3-2.1 9-1.7 15.3-4.1 17.4-6.7 1.2-1.4 0.9-2.1-2.4-5.6-10.8-11.1-30.9-24.9-51.1-35.2-34.7-17.7-73.2-26.8-112.1-26.5-15.6 0-34.6 1.6-43 3.6l-2.4 0.6 2.9-3.1c3.8-4 16.4-10.2 25.8-12.6 16.5-4.2 39.4-5.6 61.7-4 31.1 2.3 53.5 8 83.6 21.4 6.4 2.8 12.4 5.1 13.4 5 2.4-0.2 5.4-3 6.9-6.5l1.2-2.9 3 6.5c1.6 3.6 3 7 3 7.6 0 2.4 1.8-0.3 2.9-4.4 0.4-1.7 1.1-3.4 2.1-4.9 1-0.6 3.5 5 6.7 14.9l2.3 7 5-4.9c5.9-5.8 6.1-5.6 6.9 7l0.5 8.4 4.4-2.8c2.5-1.5 4.7-2.4 5.1-2.1 0.3 0.4 1.5 3.7 2.7 7.4 3.5 10.9 8.2 19.9 13.8 26.2 3.2 3.8 6.1 8 8.5 12.3 1.9 3.5 3.8 6.2 4.2 6.1 1.5-0.5 8.2-12.4 11.4-20.2 0.9-2.7 2.2-5.2 3.8-7.5 1.3 0 2.1 10.7 1.6 22.8-0.3 4-0.3 8 0 11.9 1.8-1 3.4-2.1 5-3.4 1.6-1.3 3.4-2.5 5.4-3.4 2.1 0-2.5 30.2-5.8 38.9-1.3 3.2 1.4 1.6 7.7-4.7 3.5-3.5 6.4-5.8 6.4-5.1 0 2.5-5.7 23.6-7.7 28.8-1.9 4.4-4 8.8-6.3 13-3.9 7-7.1 14.4-9.5 22l-0.7 2.7 4.7-3.2c5.2-3.5 7.6-4.6 35.9-15.7 25-9.8 39.1-16.6 44.7-21.7 6-5.4 9.4-11.9 9.4-18.5v-5l-2.8 3.8c-5.3 7.3-17.9 17.7-29.6 24.5l-3.9 2.3 3-3.3c12.8-14.1 21.6-33.6 21.6-48.4 0-5.3-1.4-13-3.1-17.2-1.2-3-1.3-2.9-8.4 14.6-8.2 20.3-16.1 36.5-21.4 44.3-7.8 11.5-19.4 21.9-26.5 23.7-2.4 0.6-2.6 0.5-1.7-1.2 1.6-3.1 3.9-12.9 4.9-21.6 0.6-4.5 1.2-26.9 1.5-49.8 0.5-40.7 1.2-51.5 3.7-62.4 1.2-5.4 1.2-5.5-2.9-16.4-2.1-5.5-4.3-10.9-6.8-16.2-2.7-5.4-8.7-13.7-9.8-13.7-0.4 0-2.8 4.8-5.5 10.7l-4.8 10.7-0.5-9.1c-0.4-7.2-0.9-9.7-2.6-12-4.9-6.1-10.9-11.4-17.6-15.5-9.3-5.6-19-10.4-29-14.5-2.3-0.7-2.3-0.6-1.6 4.5 0.4 2.8 0.9 6.2 1.2 7.5 0.6 2.2 0.4 2.3-3.1 1.6-6.3-1.2-12.1-4.6-16.4-9.4-2.5-2.7-4.7-4.6-5-4.3 0.4 3.1 1.2 6.1 2.4 9 1.5 4.7 2.7 8.8 2.4 9-0.6 0.6-7.3-1.9-10.2-4-2.9-3-5.5-6.3-7.5-9.9-2.5-4.2-5.4-8.1-8.9-11.5-6.3-5.4-9.2-6-39-9.1-6.2-0.5-12.3-2-18.1-4.4-1.4-0.6-1.4 0 0.6 4.6 1.3 2.9 2.7 6.8 3 8.7l0.6 3.4-3.9-0.3c-7.6-1.7-14.9-4.6-21.5-8.7-6.4-3.9-6.8-3.9-18.1-4.7-13.2-0.9-26.5 0-39.4 2.6l-7.2 1.8 7.2 0.8c9.7 1 18.1 3.7 23.2 7.4 4.1 3 7.6 6.4 7.6 7.7 0 0.3-7.6 0.8-17.1 1.1-27.2 0.7-44.3 5-68.4 17.1-12.1 6-45.2 27.4-53.4 34.4-4.8 4.1-13.6 15.8-13.7 18 0 1.2 1.9 2.2 7 3.6 39 11.2 63.5 39.6 68.3 79.3 3.5 28.5 3 46.2-1.8 65.2-7.4 29.2-26.4 57.3-47.7 70.5-7.8 4.9-24.1 11.1-29 11.2h-2.7l5-5.5c11.7-12.8 20.1-29 25.8-49.6 3.2-11.5 3.5-23.6 0.8-32.7-1.9-6.6-2.5-6.6-4.4-0.7-2.6 7.6-6 14.8-10.3 21.6-2 3.1-15.6 17.4-30.8 32.6-34.7 34.4-49.2 52.3-62.8 77.2-10.9 20.6-18.2 42.8-21.7 65.8-2 15.9-1.5 43 0.8 43 0.3 0.1 3.7-1.4 7.5-3.3z m459.7-144.9c25-8.4 44.4-17.5 60.8-28.3 11.8-7.8 27.4-23.1 36.2-35.6 8.6-12.2 21.1-38.7 19.2-40.7-1.1-1-18.1 5.4-23.8 9-6.2 3.9-9.9 6.9-28.1 22.6-17.9 15.4-21.5 18-30.7 22.4-9.6 4.6-15.3 5.1-21.4 1.6-1.5-0.7-2.8-1.6-3.9-2.7 0-0.3 1.8-1.6 3.9-2.9 4.2-2.6 12.2-10.4 11.5-11.1-4.3 1.8-8.5 3.9-12.5 6.4-32.7 18.6-49.8 34.2-52.6 48-0.8 3.9 0.2 4 10.6 0.6 25.3-8.2 55.2-24 92.9-48.8 10.9-7.2 16.3-10.1 21.2-11.5 2.3-0.8 4.6-1.3 7-1.4 1.2 1.2-10.9 15.1-20.6 23.8-24.5 21.8-46.7 36.5-72.3 47.8-6.4 2.8-11.2 5.2-10.7 5.2s6.5-2 13.3-4.4z m35.9-152.4c10.3-15.5 13.5-27.1 14.9-53.5 1.3-24.9 3.9-39.8 10.7-59.1 1.6-4.6 2.7-8.4 2.5-8.7-1-1-10.7 11.7-14.1 18.5-9.7 19.6-17.2 54.1-20.8 95-0.8 8.9-1.4 16.6-1.4 17.1-0.1 1.6 3.9-2.9 8.2-9.3z"
          p-id="62696"></path>
</svg>
