<?xml version="1.0" standalone="no"?><!DOCTYPE svg PUBLIC "-//W3C//DTD SVG 1.1//EN" "http://www.w3.org/Graphics/SVG/1.1/DTD/svg11.dtd"><svg t="1683216867173" class="icon" viewBox="0 0 1024 1024" version="1.1" xmlns="http://www.w3.org/2000/svg" p-id="31664" xmlns:xlink="http://www.w3.org/1999/xlink" width="200" height="200"><path d="M649.984 133.461333a54.101333 54.101333 0 0 1-11.776 35.157334 36.949333 36.949333 0 0 1-29.610667 14.933333c-12.202667 0-21.077333-4.266667-26.624-12.8a171.349333 171.349333 0 0 1-16.554666-41.898667 49.152 49.152 0 0 0-7.68-17.322666c-3.242667-4.096-7.850667-6.144-13.994667-6.144a17.92 17.92 0 0 0-16.384 10.24c-4.352 8.533333-7.68 17.493333-9.728 26.88l-50.176 188.16h69.717333l-12.117333 43.776H455.68l-72.192 271.018666a1819.050667 1819.050667 0 0 1-51.797333 166.570667c-14.677333 39.253333-36.864 74.752-65.109334 104.362667-28.074667 29.098667-63.402667 43.605333-106.325333 43.605333-30.549333 0-54.357333-7.68-71.082667-23.04-16.64-15.530667-25.088-32.938667-25.088-52.138667 0-14.677333 4.437333-27.392 13.226667-38.4a41.984 41.984 0 0 1 34.389333-16.384c16.810667 0 27.989333 5.12 33.28 15.530667 5.12 10.325333 8.533333 23.722667 9.813334 40.362667 1.706667 21.504 9.813333 32.341333 24.064 32.341333 14.165333 0 25.685333-8.96 34.986666-26.794667 9.045333-18.090667 18.261333-45.482667 27.733334-82.602666l115.797333-433.92H284.16l11.605333-43.776h72.96l7.850667-30.464c10.752-43.093333 22.784-80.810667 35.754667-113.066667 12.970667-32.341333 32.256-60.842667 57.941333-86.016C495.786667 76.373333 527.616 64 566.101333 64c14.421333 0 28.16 2.901333 41.130667 8.362667a73.984 73.984 0 0 1 31.061333 23.808c7.850667 10.24 11.690667 22.784 11.690667 37.290666z m302.506667 307.285334h-39.765334c5.205333-19.370667 8.021333-39.338667 8.362667-59.477334a32 32 0 0 0-3.242667-13.226666c-2.133333-4.693333-6.144-7.168-12.288-7.168a16.213333 16.213333 0 0 0-11.093333 4.266666 406.186667 406.186667 0 0 0-22.954667 26.197334L794.453333 484.693333l34.901334 126.208c3.754667 13.653333 7.68 24.917333 11.52 34.133334 3.84 9.045333 8.704 13.653333 14.506666 13.653333 9.813333 0 18.432-8.704 26.112-25.770667 7.68-17.322667 13.226667-32.426667 16.554667-45.738666h37.290667c-8.448 34.56-19.114667 62.890667-32.426667 84.821333s-27.477333 37.888-42.752 47.872c-15.274667 9.984-29.610667 15.018667-43.093333 15.018667a56.064 56.064 0 0 1-49.92-25.941334c-11.434667-17.408-21.674667-41.813333-30.464-73.642666l-15.957334-59.733334-90.88 110.933334c-26.538667 32.170667-48.64 48.128-66.304 48.128-24.234667 0-36.437333-18.602667-36.437333-55.808 0-26.453333 4.778667-52.650667 14.506667-79.189334h44.8c-10.24 33.109333-15.36 54.186667-15.36 63.488 0 9.813333 2.56 14.677333 7.850666 14.677334 4.352 0 12.032-6.058667 22.869334-18.517334l106.24-129.536-20.394667-74.24a588.714667 588.714667 0 0 0-9.898667-33.621333 54.698667 54.698667 0 0 0-9.386666-17.322667 17.749333 17.749333 0 0 0-13.994667-6.741333c-15.786667 0-29.013333 23.466667-39.68 70.570667h-38.144a415.573333 415.573333 0 0 1 30.464-83.2c11.434667-22.016 24.490667-38.997333 38.826667-50.773334a72.533333 72.533333 0 0 1 46.08-17.578666c21.589333 0 38.912 8.874667 52.053333 26.453333 13.141333 17.749333 23.808 42.069333 32.170667 73.130667l6.656 24.32 63.914666-79.189334c24.746667-29.781333 47.189333-44.8 67.072-44.8 19.626667 0 32.256 7.338667 37.888 22.016 5.376 13.738667 8.277333 28.501333 8.448 43.52 0 20.138667-2.56 39.850667-7.509333 58.453334z" fill="#1677ff" p-id="31665"></path></svg>
