<?xml version="1.0" standalone="no"?><!DOCTYPE svg PUBLIC "-//W3C//DTD SVG 1.1//EN" "http://www.w3.org/Graphics/SVG/1.1/DTD/svg11.dtd"><svg t="1683865708492" class="icon" viewBox="0 0 1024 1024" version="1.1" xmlns="http://www.w3.org/2000/svg" p-id="16803" xmlns:xlink="http://www.w3.org/1999/xlink" width="200" height="200"><path d="M128 64h256a64 64 0 0 1 64 64v256a64 64 0 0 1-64 64H128a64 64 0 0 1-64-64V128a64 64 0 0 1 64-64z m512 0h256a64 64 0 0 1 64 64v256a64 64 0 0 1-64 64h-256a64 64 0 0 1-64-64V128a64 64 0 0 1 64-64zM128 576h256a64 64 0 0 1 64 64v256a64 64 0 0 1-64 64H128a64 64 0 0 1-64-64v-256a64 64 0 0 1 64-64z m512 0h256a64 64 0 0 1 64 64v256a64 64 0 0 1-64 64h-256a64 64 0 0 1-64-64v-256a64 64 0 0 1 64-64zM128 128v256h256V128H128z m512 0v256h256V128h-256z m-512 512v256h256v-256H128z m512 0v256h256v-256h-256z" fill="#1677ff" p-id="16804"></path></svg>
