<?xml version="1.0" standalone="no"?><!DOCTYPE svg PUBLIC "-//W3C//DTD SVG 1.1//EN" "http://www.w3.org/Graphics/SVG/1.1/DTD/svg11.dtd"><svg t="1709024889720" class="icon" viewBox="0 0 1024 1024" version="1.1" xmlns="http://www.w3.org/2000/svg" p-id="2632" xmlns:xlink="http://www.w3.org/1999/xlink" width="200" height="200"><path d="M77.483 512.683V275.797c-0.342-8.533 4.096-16.384 11.946-20.138L498.347 19.456c7.509-4.437 15.701-5.461 22.869-1.024L931.84 255.659c7.168 4.096 11.264 11.946 10.923 20.138v473.088c0.341 8.192-3.755 16.043-10.923 20.139l-408.917 235.861c-7.51 4.438-17.067 4.438-24.918 0L88.747 769.024c-7.51-4.437-10.923-10.24-10.923-19.456l-0.341-236.885z" fill="#1677ff" p-id="2633"></path><path d="M366.933 424.619v276.138c0 31.062-24.917 58.71-58.026 58.027-20.139-1.024-35.84-9.216-46.422-26.624-5.461-8.192-7.509-17.408-7.509-27.648V320.853c0-25.6 15.701-44.032 35.84-52.224s40.277-6.485 60.757 0c19.456 5.462 34.134 17.408 46.422 32.086l244.053 292.864c1.024 1.024 1.707 3.072 3.755 4.437v-279.21c0-29.355 20.138-52.225 48.81-54.955 35.84-4.438 59.734 21.162 63.488 47.786v390.827c0 21.845-10.24 37.547-28.33 47.787-13.654 7.509-28.331 9.216-44.032 8.192-22.528-1.366-44.032-10.582-60.758-25.6-9.216-8.192-15.701-18.432-23.893-27.648l-232.79-278.187c0-1.024-1.023-1.707-1.706-3.072l0.341 0.683z" fill="#FEFEFE" p-id="2634"></path></svg>
