<?xml version="1.0" standalone="no"?><!DOCTYPE svg PUBLIC "-//W3C//DTD SVG 1.1//EN" "http://www.w3.org/Graphics/SVG/1.1/DTD/svg11.dtd"><svg t="1727239211717" class="icon" viewBox="0 0 1024 1024" version="1.1" xmlns="http://www.w3.org/2000/svg" p-id="15065" xmlns:xlink="http://www.w3.org/1999/xlink" width="200" height="200"><path d="M459.52 64l201.792 218.688 299.2-41.472-150.976 258.56 129.664 266.88-286.144-57.152 30.656-67.52 124.992 24.96-82.112-169.152 95.68-163.968-189.696 26.368-128-138.688-34.944 185.408L294.72 485.12l103.424 54.272-30.08 66.304-239.552-125.888L404.224 356.48 459.456 64z" fill="#1677ff" p-id="15066"></path><path d="M235.904 889.6v-82.112h28.672c19.84 0 35.072-1.024 45.568-3.072 7.68-1.728 15.36-5.12 22.784-10.304a59.648 59.648 0 0 0 18.496-21.504 71.04 71.04 0 0 0 7.296-33.664c0-17.28-4.224-31.424-12.672-42.368a57.024 57.024 0 0 0-31.296-21.312c-8.128-2.176-25.536-3.264-52.224-3.264H192v217.6h43.904z m24.064-119.04h-24.064v-61.76h21.248a211.2 211.2 0 0 1 31.616 1.472c7.104 1.28 12.992 4.48 17.664 9.664a28.16 28.16 0 0 1 7.04 19.584 28.8 28.8 0 0 1-18.688 27.584c-5.888 2.304-17.472 3.456-34.816 3.456z m235.712 119.04v-91.264l80-126.336h-50.56l-50.24 86.08-51.2-86.08h-51.456l79.68 126.016V889.6h43.776z" fill="#1677ff" p-id="15067"></path></svg>