<?xml version="1.0" standalone="no"?><!DOCTYPE svg PUBLIC "-//W3C//DTD SVG 1.1//EN" "http://www.w3.org/Graphics/SVG/1.1/DTD/svg11.dtd"><svg t="1696914719806" class="icon" viewBox="0 0 1024 1024" version="1.1" xmlns="http://www.w3.org/2000/svg" p-id="7527" xmlns:xlink="http://www.w3.org/1999/xlink" width="200" height="200"><path d="M988.37723281 576.35422906a31.66290094 31.66290094 0 0 0 0-5.742255V568.68000031a28.87227281 28.87227281 0 0 0-7.24490156-12.77249156l-1.50264563-1.2879825a31.34090531 31.34090531 0 0 0-4.72260187-3.64928344L768.07857406 431.29520937v-241.49670187a32.52155625 32.52155625 0 0 0 0-5.742255v-2.14663781a29.83825969 29.83825969 0 0 0-7.67422875-12.82615781l-1.50264562-1.2879825a31.7702325 31.7702325 0 0 0-4.66893656-3.64928344L532.21679469 36.31393625a32.19956063 32.19956063 0 0 0-32.19956063 0L278.16226344 164.2535225a32.19956063 32.19956063 0 0 0-4.66893657 3.64928344l-1.50264562 1.2879825a32.19956063 32.19956063 0 0 0-4.4542725 5.95691906 31.55556938 31.55556938 0 0 0-2.79062906 6.81557344v2.14663687a31.60923469 31.60923469 0 0 0 0 5.742255v239.94039094L57.86360469 549.25293219a32.19956063 32.19956063 0 0 0-4.66893656 3.64928343l-9.82086563 2.14663782A29.62359563 29.62359563 0 0 0 35.53857594 567.82134594v2.14663687a31.66290094 31.66290094 0 0 0 0 5.742255v257.22082125a32.19956063 32.19956063 0 0 0 16.09978031 27.74528813l222.01596844 127.9932525h1.07331843l5.36659407 2.36130093h1.93197281a29.19426844 29.19426844 0 0 0 14.91913031 0h1.93197375l5.36659313-2.36130093h1.07331843L512.14573531 869.20923031l206.882175 119.46036938h1.07331844l5.36659406 2.36130094h1.93197282a29.19426844 29.19426844 0 0 0 14.91913031 0h1.60997812l5.36659313-2.36130094h1.07331844l222.01596843-127.9932525a32.19956063 32.19956063 0 0 0 16.09978032-27.74528813v-256.57683z m-254.000865 92.14440844l-158.90483062-92.14440844 158.04617531-91.23208781 158.90483062 91.23208781z m-445.7492475 0l-158.04617531-92.14440844 158.04617531-91.23208781 158.90483063 91.23208781zM480.59016594 337.91648469v182.46417562L321.47067219 429.1485725V246.68439688z m221.15731406 91.23208781L543.48664062 520.38066031V337.91648469l158.04617532-91.23208781zM511.50174406 99.85440219l158.04617531 91.23208687-158.04617531 91.23208782-158.04617531-91.23208782zM98.38138437 633.07912156L255.56890531 723.72088344v182.46417562l-156.97285687-91.23208781z m221.15731407 273.21326906v-182.46417468l158.04617531-91.23208782v182.46417469z m224.80659656-273.6962625l158.04617625 91.23208782v182.46417468l-158.04617625-91.23208781z m222.01596937 273.6962625v-182.46417468l158.04617532-91.23208782v182.46417469z m1e-8 0" p-id="7528"></path></svg>
