<?xml version="1.0" standalone="no"?><!DOCTYPE svg PUBLIC "-//W3C//DTD SVG 1.1//EN" "http://www.w3.org/Graphics/SVG/1.1/DTD/svg11.dtd"><svg t="1709025744880" class="icon" viewBox="0 0 1024 1024" version="1.1" xmlns="http://www.w3.org/2000/svg" p-id="5453" xmlns:xlink="http://www.w3.org/1999/xlink" width="200" height="200"><path d="M972.497609 405.74732l-98.044936-19.647386c-4.927846-14.175557-10.751664-27.935127-17.183463-41.246711l55.550264-83.325396c16.927471-25.375207 13.567576-59.19815-7.99975-80.733477l-61.566076-61.566076c-12.383613-12.383613-28.735102-18.751414-45.310584-18.751414-12.255617 0-24.63923 3.51989-35.422893 10.751664l-83.325396 55.518265c-13.375582-6.463798-27.135152-12.223618-41.310709-17.151464l-19.647386-98.076935c-5.951814-29.951064-32.254992-51.454392-62.750039-51.454392l-87.03728 0c-30.495047 0-56.766226 21.535327-62.750039 51.454392l-19.647386 98.076935c-14.175557 4.927846-27.935127 10.719665-41.246711 17.151464l-83.293397-55.518265c-10.847661-7.231774-23.199275-10.751664-35.486891-10.751664-16.543483 0-32.894972 6.367801-45.278585 18.751414l-61.534077 61.566076c-21.567326 21.567326-24.927221 55.35827-7.99975 80.733477l55.518265 83.325396c-6.463798 13.343583-12.223618 27.103153-17.151464 41.27871l-98.108934 19.615387c-29.919065 5.983813-51.454392 32.254992-51.454392 62.750039l0 87.03728c0 30.495047 21.535327 56.798225 51.454392 62.750039l98.076935 19.679385c4.927846 14.175557 10.719665 27.935127 17.151464 41.246711l-55.486266 83.325396c-16.927471 25.375207-13.567576 59.19815 7.99975 80.733477l61.566076 61.566076c12.383613 12.383613 28.735102 18.751414 45.278585 18.751414 12.287616 0 24.671229-3.551889 35.454892-10.751664l83.325396-55.550264c13.343583 6.495797 27.103153 12.255617 41.27871 17.183463l19.615387 98.044936c5.983813 29.951064 32.254992 51.486391 62.750039 51.486391l87.03728 0c30.495047 0 56.798225-21.567326 62.750039-51.486391l19.679385-98.044936c14.175557-4.927846 27.935127-10.751664 41.246711-17.183463l83.325396 55.550264c10.815662 7.199775 23.199275 10.751664 35.422893 10.751664 16.575482 0 32.926971-6.367801 45.310584-18.751414l61.566076-61.566076c21.567326-21.567326 24.927221-55.35827 7.99975-80.733477l-55.550264-83.325396c6.495797-13.375582 12.255617-27.135152 17.183463-41.310709l98.044936-19.615387c29.919065-5.919815 51.486391-32.254992 51.486391-62.750039l0-87.03728c0-30.495047-21.567326-56.766226-51.486391-62.750039zM861.877066 575.182026c-22.239305 4.447861-40.446736 20.319365-47.870504 41.758695-4.127871 11.807631-8.927721 23.263273-14.303553 34.366926-9.951689 20.447361-8.255742 44.574607 4.319865 63.422018l55.550264 83.325396-61.566076 61.566076-83.325396-55.550264c-10.687666-7.135777-23.071279-10.751664-35.486891-10.751664-9.503703 0-19.071404 2.111934-27.871129 6.367801-11.135652 5.375832-22.559295 10.23968-34.430924 14.367551-21.375332 7.423768-37.246836 25.631199-41.694697 47.870504l-19.679385 98.108934-87.03728 0-19.615387-98.108934c-4.447861-22.239305-20.319365-40.446736-41.726696-47.870504-11.807631-4.127871-23.295272-8.927721-34.398925-14.303553-8.831724-4.319865-18.367426-6.431799-27.903128-6.431799-12.447611 0-24.799225 3.615887-35.486891 10.751664l-83.325396 55.550264-61.566076-61.566076 55.518265-83.325396c12.575607-18.87941 14.207556-43.006656 4.383863-63.35802-5.375832-11.135652-10.207681-22.559295-14.335552-34.430924-7.423768-21.375332-25.663198-37.246836-47.870504-41.694697l-98.076935-19.679385-0.063998-87.069279 98.108934-19.615387c22.207306-4.447861 40.446736-20.319365 47.870504-41.726696 4.127871-11.807631 8.895722-23.295272 14.303553-34.398925 9.91969-20.415362 8.255742-44.542608-4.351864-63.390019l-55.486266-83.325396 61.534077-61.566076 83.325396 55.518265c10.687666 7.135777 23.071279 10.751664 35.486891 10.751664 9.503703 0 19.039405-2.111934 27.871129-6.367801 11.103653-5.375832 22.559295-10.207681 34.398925-14.335552 21.407331-7.423768 37.278835-25.663198 41.726696-47.870504l19.647386-98.076935 87.03728-0.031999 19.615387 98.108934c4.447861 22.207306 20.319365 40.446736 41.758695 47.870504 11.807631 4.127871 23.263273 8.895722 34.366926 14.303553 8.863723 4.287866 18.367426 6.3998 27.935127 6.3998 12.447611 0 24.799225-3.615887 35.486891-10.751664l83.325396-55.518265 61.566076 61.566076-55.550264 83.325396c-12.575607 18.87941-14.175557 42.974657-4.383863 63.35802 5.375832 11.103653 10.23968 22.559295 14.367551 34.398925 7.423768 21.407331 25.631199 37.278835 47.870504 41.726696l98.044936 19.647386 0.095997 87.03728-98.108934 19.647386zM512 288.022999c-123.676135 0-223.993 100.316865-223.993 223.993 0 123.708134 100.316865 223.993 223.993 223.993s223.993-100.316865 223.993-223.993c0-123.676135-100.316865-223.993-223.993-223.993zM512 708.041874c-108.220618 0-195.993875-87.805256-195.993875-195.993875s87.773257-195.993875 195.993875-195.993875c108.188619 0 195.993875 87.773257 195.993875 195.993875 0 108.188619-87.805256 195.993875-195.993875 195.993875zM512 384.019999c-70.71779 0-127.996 57.27821-127.996 127.996s57.27821 127.996 127.996 127.996c70.685791 0 127.996-57.310209 127.996-127.996s-57.310209-127.996-127.996-127.996zM512 608.044999c-52.990344 0-95.997-43.006656-95.997-95.997s43.006656-95.997 95.997-95.997 95.997 43.006656 95.997 95.997c0 52.990344-43.006656 95.997-95.997 95.997z" fill="#1677ff" p-id="5454"></path></svg>
