<?xml version="1.0" standalone="no"?><!DOCTYPE svg PUBLIC "-//W3C//DTD SVG 1.1//EN" "http://www.w3.org/Graphics/SVG/1.1/DTD/svg11.dtd"><svg t="1696856848508" class="icon" viewBox="0 0 1024 1024" version="1.1" xmlns="http://www.w3.org/2000/svg" p-id="1492" xmlns:xlink="http://www.w3.org/1999/xlink" width="200" height="200"><path d="M781.529217 709.652615c-2.338764-4.98526-3.38505301-7.50866201-4.662141-9.90897299-33.881301-64.40832199-67.67028199-128.862804-101.85931398-193.10187301-3.446599-6.462373-3.01577399-10.30902399 1.69252598-15.802042 53.883885-62.94659501 107.49081201-126.139375 161.14389801-189.285995 1.87716601-2.200284 3.585079-4.56982101 4.30824899-8.508792-15.69433601 4.092837-31.38867099 8.1549-47.06762 12.309283-65.085333 17.232996-130.216825 34.450605-195.255998 51.92978699-6.077708 1.63098-8.83191001-0.15386601-11.847684-5.16989899-36.958621-61.74644-74.132655-123.36978601-111.26053-185.023906-1.923325-3.20041399-4.000517-6.308507-8.077967-9.00116301-2.985001 16.46366601-6.031549 32.89655801-8.955003 49.34483701-10.33979799 58.115201-20.64882199 116.23040201-30.957846 174.33021699-1.12322201 6.27773399-2.677269 12.524695-3.2158 18.84858901-0.523145 6.000775-3.585079 8.20106-9.01655 9.90897301-76.732991 24.095421-153.373663 48.40625401-230.029721 72.70170099-3.36966599 1.07706199-6.647013 2.44647001-10.262865 5.72381599 62.700409 24.92629801 125.40081799 49.852595 189.10135699 75.148171-2.323377 1.846392-3.846651 3.26196-5.53917798 4.36979602-39.20506601 25.35712201-78.47167801 50.621925-117.569036 76.11752699-4.677527 3.06193398-8.401085 3.492759-13.663304 1.123222-46.82143401-21.079647-93.827508-41.774628-140.72587501-62.715796-21.04887401-9.41660099-39.98978199-21.895137-54.74553499-39.943622-33.34277001-40.774499-26.757303-87.19588199 17.67920699-115.55339202 14.54034-9.262735 31.034779-16.21748 47.498445-21.58740398 75.148171-24.48008599 150.573301-48.09852201 225.983045-71.778506 6.308507-1.969485 9.23196199-4.80062 10.41673001-11.64765801 10.047452-58.161361 20.464183-116.261176 30.927073-174.33021699 5.61610998-31.065552 8.601111-62.931208 23.71075599-91.38103799 5.800749-10.924488 12.770881-21.648951 21.033487-30.81936702 29.92694399-33.219677 71.701572-34.512152 103.35181501-2.86190799 10.662916 10.678303 19.84871801 23.279931 27.78820599 36.204678a15039.250865 15039.250865 0 0 1 103.27488201 171.345216c4.03129001 6.77010601 7.662529 8.139513 15.12503099 6.139255C743.92435799 214.234757 828.089079 192.047275 912.238413 169.813633c17.356089-4.585208 34.92759001-6.27773399 52.72989001-2.923454 38.774241 7.24709001 55.745664 36.77398199 42.62089199 74.240361-5.97000199 17.07912999-16.27902601 31.496377-27.865139 45.11352199C921.008777 355.29913801 862.38581799 424.431147 803.455127 493.31697101c-4.816007 5.61610998-4.923713 9.69356-1.58482 15.98668099 35.14300201 66.25471401 69.993659 132.66329501 104.967409 199.010328 8.370312 15.878975 14.74036601 32.358027 14.925005 50.591153 0.430825 41.482283-29.89617001 75.42512998-71.116881 81.456678-23.079905 3.38505301-44.52883001-1.53866-66.162395-8.216446-52.714503-16.3098-105.52132598-32.311867-158.343536-48.206229-4.90832599-1.461727-6.77010601-3.38505301-7.63175501-8.662657-6.077708-37.17403399-12.70933399-74.271135-19.125548-111.39900901-0.184639-1.03090201 0.123093-2.123351 0.29234501-4.40056899l181.854266 50.160327" p-id="1493"></path><path d="M365.290821 564.09534599l33.542796 14.61727401L361.521103 875.67406602l203.780176-225.85995203 34.358286 9.64740101 42.313159 128.632004-54.991721-19.41789301-142.295308 153.619848s-63.62360498 65.885436-98.13575699 54.77630902-63.608219-41.820788-66.83940501-96.81250902c-3.231187-54.97633401-17.78691399-211.858143-17.786914-211.85814299l-69.54744699-50.12955399z" p-id="1494"></path><path d="M261.93900601 668.41651799s-30.727047 339.62849799 29.11145399 350.93765101c59.838501 11.32454-6.462373-1.615593-6.46237401-1.615593s33.95823399 38.8204 168.17557602-105.121275l134.232728-143.926289s-274.92782998 166.575369-268.45007001 158.482016c6.462373-8.077967 33.95823399-283.005797 33.95823399-283.005797z" p-id="1495"></path></svg>
