<?xml version="1.0" standalone="no"?><!DOCTYPE svg PUBLIC "-//W3C//DTD SVG 1.1//EN" "http://www.w3.org/Graphics/SVG/1.1/DTD/svg11.dtd"><svg t="1727239261909" class="icon" viewBox="0 0 1024 1024" version="1.1" xmlns="http://www.w3.org/2000/svg" p-id="16408" xmlns:xlink="http://www.w3.org/1999/xlink" width="200" height="200"><path d="M459.52 64l201.792 218.688 299.2-41.472-150.976 258.56 129.664 266.88-286.144-57.152 30.656-67.52 124.992 24.96-82.112-169.152 95.68-163.968-189.696 26.368-128-138.688-34.944 185.408L294.72 485.12l103.424 54.272-30.08 66.304-239.552-125.888L404.224 356.48 459.456 64zM342.208 678.4c28.8 0 51.712 8.832 68.672 26.496 16.896 17.664 25.344 42.432 25.344 74.24 0 16.768-2.368 31.552-7.04 44.352-3.52 9.728-9.216 19.2-17.024 28.288 9.664 6.912 20.16 12.416 31.488 16.448L429.184 896a89.664 89.664 0 0 1-17.408-7.296c-1.28-0.64-9.92-6.4-26.176-17.28-12.736 5.568-26.88 8.32-42.368 8.32-29.952 0-53.376-8.768-70.336-26.368-16.96-17.664-25.408-42.368-25.408-74.24 0-31.808 8.448-56.576 25.472-74.24 17.024-17.664 40.064-26.496 69.248-26.496z m-200.064 0c24.384 0 42.816 5.376 55.168 16.064 12.352 10.752 18.816 25.024 19.456 42.88l-39.296 1.792-1.664-7.04a28.8 28.8 0 0 0-9.216-14.592c-5.504-4.352-13.824-6.528-24.896-6.528-11.392 0-20.352 2.304-26.816 7.04a14.208 14.208 0 0 0-6.272 12.032c0 4.608 1.92 8.576 5.888 11.84 4.928 4.16 16.96 8.512 36.096 13.056 19.2 4.48 33.28 9.152 42.496 14.016a54.72 54.72 0 0 1 21.504 19.776c5.12 8.32 7.744 18.688 7.744 31.04a57.344 57.344 0 0 1-35.584 53.056 110.272 110.272 0 0 1-42.368 7.04c-24.64 0-43.52-5.632-56.768-17.024-13.184-11.392-21.056-27.968-23.616-49.728l38.272-3.712 1.664 7.296c2.56 9.152 6.72 16.128 12.352 20.992 7.04 6.016 16.512 8.96 28.48 8.96 12.672 0 22.208-2.56 28.608-8 6.4-5.312 9.6-11.584 9.6-18.752a17.728 17.728 0 0 0-3.968-11.776 32.384 32.384 0 0 0-14.208-8.448 483.968 483.968 0 0 0-31.424-8.512c-21.12-5.184-35.84-11.648-44.416-19.2a50.688 50.688 0 0 1-17.92-39.232c0-9.92 2.816-19.2 8.448-27.84a52.8 52.8 0 0 1 24.32-19.712c10.56-4.48 23.36-6.784 38.336-6.784z m365.312 4.928v160.32h97.728v32.832H468.096v-193.152h39.36z m-170.048 28.992l-3.2 0.128a48.512 48.512 0 0 0-31.296 16.32c-9.984 11.136-14.912 27.904-14.912 50.304v0.96c0 22.464 4.928 39.296 14.848 50.432a48.448 48.448 0 0 0 25.92 15.36l3.84 0.704a58.496 58.496 0 0 0 8.128 0.64h1.024c1.6 0 3.2-0.128 4.672-0.192a48.96 48.96 0 0 0 34.368-16.64c9.92-11.136 14.912-27.904 14.912-50.304 0-3.2-0.128-6.4-0.32-9.408l0.256 3.84a115.264 115.264 0 0 0-3.072-22.784 73.92 73.92 0 0 0-3.712-10.496 54.208 54.208 0 0 0-2.496-4.8l-0.896-1.472a48.256 48.256 0 0 0-11.328-12.544l-3.328-2.368a48.256 48.256 0 0 0-3.072-1.792l-2.56-1.344a45.888 45.888 0 0 0-2.816-1.216 50.304 50.304 0 0 0-19.392-3.648l-3.2 0.064-2.112 0.064-0.256 0.192z" fill="#1677ff" p-id="16409"></path></svg>