<?xml version="1.0" standalone="no"?><!DOCTYPE svg PUBLIC "-//W3C//DTD SVG 1.1//EN" "http://www.w3.org/Graphics/SVG/1.1/DTD/svg11.dtd"><svg t="1726659758192" class="icon" viewBox="0 0 1024 1024" version="1.1" xmlns="http://www.w3.org/2000/svg" p-id="4292" xmlns:xlink="http://www.w3.org/1999/xlink" width="200" height="200"><path d="M456.488288 11.740856c-17.717511 0.541947-35.226581 8.962976-49.859162 25.221398a149.785925 149.785925 0 0 0-20.552313 30.098925c-14.799333 27.806071-17.717511 58.988891-23.178674 89.337946a23007.75181 23007.75181 0 0 0-30.265678 170.379927c-1.125583 6.670122-4.002073 9.463235-10.171936 11.380895C248.797366 361.338621 175.009142 384.433918 101.637801 408.362981a203.188589 203.188589 0 0 0-46.440724 21.09426c-43.439169 27.722694-49.859161 73.079523-17.300628 112.97519 14.424139 17.592447 32.933727 29.807107 53.527728 39.020214 45.857088 20.427248 91.797553 40.687744 137.571265 61.281745 0.792077 0.416883 1.500777 0.541947 2.209478 0.792077h-0.166753l54.44487 22.30322c0 0.95883 0.083377 1.875972 0 3.043243-8.337652 84.627172-16.258422 169.379409-24.179192 254.089957-1.66753 17.467382-0.500259 34.642946 5.586227 51.276562 13.215179 36.268788 44.397999 47.858125 78.415621 29.223472 15.508033-8.504405 27.764383-20.719066 39.061901-34.100998 57.196295-67.660049 114.475968-135.236722 171.463822-203.105213 4.627397-5.544539 8.546094-6.253239 15.132839-4.08545 14.549203 4.877527 29.056719 9.629989 43.564234 14.465827h0.041688c0.833765 0.500259 1.875972 0.833765 3.043243 1.250648l5.919733 1.750907c52.026951 17.342317 111.724542 32.308403 163.793182 49.609032 16.675305 5.502851 25.930099 6.836875 43.564234 4.08545 12.965049-2.001037 24.679451-2.584672 34.517881-9.83843 25.096334-13.757126 41.479821-39.895667 41.188003-70.119657-0.208441-17.800888-6.419992-33.892557-14.590892-49.442279-34.184375-64.866936-68.243685-129.77556-102.594813-194.51743-3.251684-6.169863-3.168308-10.130248 1.542466-15.633099 57.57149-67.326543 114.89285-134.903216 172.297587-202.396512 11.339207-13.340244 21.386078-27.430876 27.222435-44.106181 12.839985-36.602294-3.751944-65.450571-41.688262-72.579264a116.018433 116.018433 0 0 0-51.485004 2.87649c-82.292629 21.719585-164.54357 43.397481-246.711134 65.450571-7.295446 1.959348-10.838948 0.625324-14.799334-6.003109a14719.291555 14719.291555 0 0 0-100.927282-167.503437 192.182888 192.182888 0 0 0-27.180747-35.393335c-15.466345-15.424657-33.433986-22.886856-51.151497-22.344908L456.488288 11.740856z m7.212069 154.413322a24.679451 24.679451 0 0 1 7.879081 8.796224c36.268788 60.281227 72.620952 120.479077 108.764676 180.84368 2.918178 4.919215 5.627915 6.670122 11.547649 5.04428 63.5746-17.092187 127.232576-33.892557 190.890551-50.734615 15.299592-4.08545 30.640873-8.045835 45.982153-12.047908a16.633617 16.633617 0 0 1-4.168826 8.337653c-52.485522 61.698628-104.887667 123.480632-157.539942 185.012507-4.585709 5.419474-5.002591 9.171418-1.66753 15.424657 39.061902 75.163936 73.704847 137.946459 104.137278 198.436127l-154.079816-42.480339c-22.428285-7.503887-44.898258-14.924398-67.326544-22.469973-6.795187-2.292854-10.422066-1.250648-15.007774 4.168826-52.026951 62.032134-104.387408 123.814138-156.706177 185.679519a16.591928 16.591928 0 0 1-7.503887 5.50285c1.459089-15.758163 2.834802-31.558014 4.335579-47.357865 6.211551-65.533948 12.381414-131.067896 18.801406-196.601844-1.250648-13.256867 4.877527-16.883746-13.42362-22.720103-62.240575-24.721139-139.488925-55.070194-200.77067-79.416139a24.804516 24.804516 0 0 1 10.005183-5.586227c74.913807-23.762309 149.869302-47.524619 224.866485-71.078487 5.294409-1.66753 8.295964-3.83532 8.796224-9.713365 0.541947-6.169863 2.084413-12.256349 3.168308-18.384523 10.046871-56.821101 20.135431-113.642202 30.265678-170.421616 2.834802-16.091669 5.836357-32.14165 8.754535-48.233319z" p-id="4293"></path></svg>