<?xml version="1.0" standalone="no"?><!DOCTYPE svg PUBLIC "-//W3C//DTD SVG 1.1//EN"
        "http://www.w3.org/Graphics/SVG/1.1/DTD/svg11.dtd">
<svg t="1618998703919" class="icon" viewBox="0 0 1024 1024" version="1.1"
     xmlns="http://www.w3.org/2000/svg" p-id="1636" xmlns:xlink="http://www.w3.org/1999/xlink"
     width="200" height="200">
    <defs>
        <style type="text/css"></style>
    </defs>
    <path
          d="M777.4 502s36.2-38 96.6-104.5c60.4-66.5 103.8-133.1 77.3-161.6-7.3-45.2-309.1 38-309.1 38s-55.6-90.4-116-180.7c-74.9-83.2-125.6 38-125.6 38l-48.3 228.2S164 414.1 91.5 445c-55.6 38-9.7 104.5-9.7 104.5L275 635.1l106.3-66.5-173.9-76.1 231.9-57L478 197.8l115.9 180.6 212.6-47.6-145 180.7 96.6 180.6-164.2-47.6 19.3 114.1s144.9 42.7 193.2 47.6c87 7.1 77.3-85.6 77.3-85.6L777.4 502zM386.9 815.9l11.7-165.5-93.2 59.4S288 858.6 284.9 901.3c-5.3 69.3 87 57 87 57l169.4-172.8-29.5-124.6-124.9 155z"
          p-id="13003"></path>
</svg>
