<?xml version="1.0" standalone="no"?><!DOCTYPE svg PUBLIC "-//W3C//DTD SVG 1.1//EN" "http://www.w3.org/Graphics/SVG/1.1/DTD/svg11.dtd"><svg t="1694830905072" class="icon" viewBox="0 0 1024 1024" version="1.1" xmlns="http://www.w3.org/2000/svg" p-id="22900" xmlns:xlink="http://www.w3.org/1999/xlink" width="200" height="200"><path d="M192 384c-25.6 0-42.666667 21.333333-42.666667 42.666667v74.666666c0 21.333333 17.066667 42.666667 42.666667 42.666667H298.666667v32H149.333333V640h170.666667c25.6 0 42.666667-21.333333 42.666667-42.666667v-74.666666c0-21.333333-17.066667-42.666667-42.666667-42.666667H213.333333v-32h149.333334V384h-170.666667m256 0c-25.6 0-42.666667 21.333333-42.666667 42.666667v74.666666c0 21.333333 17.066667 42.666667 42.666667 42.666667H554.666667v32H405.333333V640h170.666667c25.6 0 42.666667-21.333333 42.666667-42.666667v-74.666666c0-21.333333-17.066667-42.666667-42.666667-42.666667H469.333333v-32h149.333334V384h-170.666667m213.333333 0v256H725.333333v-106.666667h85.333334V640h64V384H810.666667v85.333333h-85.333334V384h-64z" p-id="22901" fill="#1890ff"></path></svg>