<?xml version="1.0" standalone="no"?><!DOCTYPE svg PUBLIC "-//W3C//DTD SVG 1.1//EN" "http://www.w3.org/Graphics/SVG/1.1/DTD/svg11.dtd"><svg t="1696856382147" class="icon" viewBox="0 0 1024 1024" version="1.1" xmlns="http://www.w3.org/2000/svg" p-id="28232" xmlns:xlink="http://www.w3.org/1999/xlink" width="200" height="200"><path d="M916.772571 334.774857a9.874286 9.874286 0 0 0-0.731428-14.116571 10.24 10.24 0 0 0-6.582857-2.633143h-90.477715a9.801143 9.801143 0 0 0-7.606857 3.510857L658.139429 502.491429a9.947429 9.947429 0 0 1-16.676572-2.340572L562.322286 324.022857a9.874286 9.874286 0 0 0-9.069715-5.851428H343.04l1.097143-5.851429 9.947428-52.662857c13.165714-69.12 47.396571-101.522286 106.934858-101.522286 23.186286 0 44.251429 2.194286 60.854857 5.851429l17.554285-83.236572c-28.16-5.851429-43.885714-7.606857-68.388571-7.606857-128.731429 0-194.998857 55.222857-219.282286 183.588572l-11.702857 61.586285H118.491429a9.874286 9.874286 0 0 0-9.728 7.972572l-13.458286 64.585143a10.093714 10.093714 0 0 0 9.728 12.068571h117.540571l-110.957714 535.844571A10.093714 10.093714 0 0 0 121.417143 950.857143h82.505143a9.874286 9.874286 0 0 0 9.728-8.045714l111.835428-539.794286h169.252572l84.992 173.421714c1.755429 3.657143 1.243429 8.045714-1.462857 10.971429l-225.133715 253.074285a10.020571 10.020571 0 0 0 7.460572 16.530286h90.624c2.925714 0 5.705143-1.243429 7.606857-3.510857l154.185143-182.857143a10.020571 10.020571 0 0 1 14.043428-1.243428 10.24 10.24 0 0 1 2.633143 3.510857l81.993143 177.883428c1.682286 3.437714 5.12 5.851429 9.142857 5.851429h80.457143a10.020571 10.020571 0 0 0 8.996571-14.336l-118.637714-247.954286a9.874286 9.874286 0 0 1 1.609143-10.971428l223.597714-248.685715z" p-id="28233"></path></svg>
