<?xml version="1.0" standalone="no"?><!DOCTYPE svg PUBLIC "-//W3C//DTD SVG 1.1//EN" "http://www.w3.org/Graphics/SVG/1.1/DTD/svg11.dtd"><svg t="1725497340087" class="icon" viewBox="0 0 1024 1024" version="1.1" xmlns="http://www.w3.org/2000/svg" p-id="9029" xmlns:xlink="http://www.w3.org/1999/xlink" width="200" height="200"><path d="M530.066 755c8.274 0 15.857 1.625 22.73 4.88 5.622 2.662 11.325 6.656 17.114 11.977l0.62 0.575 0.403 0.38 1.921-12.562H627l-25.934 147.182h-53.937l2.016-11.793-0.643 0.545c-5.626 4.727-11.065 8.417-16.321 11.068l-0.657 0.326-0.629 0.303c-7.182 3.41-14.552 5.119-22.09 5.119-15.508 0-28.108-6.02-37.64-17.988C461.71 883.139 457 867.526 457 848.239c0-26.605 6.897-48.79 20.708-66.485C491.6 763.954 509.1 755 530.066 755z m-178.814-83l0.871 1.625 0.298 0.14c1.343 0.678 2.68 2.004 2.774 4.595l0.005 0.293c0 0.243 0.01 0.498 0.03 0.762l42.458 79.1L459.76 672H520L419.195 810.787 402.255 908h-58.102l17.971-103.246L288 672h63.252z m389.15 84c2.448 0 4.922 0.194 7.42 0.582 2.267 0.351 4.551 0.905 6.854 1.66l0.768 0.26 1.556 0.54-9.782 54.25-2-0.5c-2.923-0.728-5.71-1.274-8.36-1.636-2.637-0.361-5.138-0.541-7.503-0.541-9.49 0-16.767 3.046-21.987 9.143-4.694 5.484-8.369 14.16-10.963 26.011l-0.3 1.409-0.147 0.715-0.143 0.723-0.331 1.74-0.088 0.485L685.678 908H631l26.136-147.69h49.543l-3.577 20.243 0.082-0.12c4.245-6.33 8.64-11.41 13.195-15.238l0.506-0.42 0.46-0.371c7.005-5.589 14.711-8.404 23.057-8.404z m138.552 0c13.514 0 24.443 3.953 32.676 11.875 8.245 7.933 12.37 18.387 12.37 31.237 0 1.464-0.085 3.027-0.256 4.693l-0.078 0.721-0.276 2.334-0.185 1.477-0.196 1.488L905.577 908H851.48l15.13-83.872 0.012-0.152c0.018-0.187 0.05-0.387 0.094-0.604l0.049-0.224 0.031-0.131 0.147-0.996 0.146-1.041 0.133-1.002 0.122-0.962 0.109-0.922 0.127-1.176 0.054-0.547 0.103-1.187 0.054-0.74 0.042-0.698 0.03-0.656 0.017-0.614 0.006-0.592c0-3.88-1.075-6.82-3.201-8.937-2.126-2.117-5.077-3.188-8.973-3.188-7.68 0-14.643 3.206-20.972 9.712-6.131 6.302-10.232 14.627-12.291 25.01l-0.131 0.68L809.082 908H755l26.166-147.69h53.274l-2.995 17.511 0.636-0.631c5.935-5.847 12.02-10.471 18.257-13.868l0.693-0.372 0.671-0.35c8.555-4.398 17.647-6.6 27.252-6.6z m-334.149 37c-9.535 0-17.64 4.93-24.436 14.988C513.465 818.206 510 831 510 846.416c0 7.902 1.893 14.14 5.64 18.782 3.675 4.551 8.551 6.802 14.793 6.802 7.184 0 13.334-3.067 18.568-9.31 5.238-6.244 8.925-15.1 11.023-26.578l0.132-0.737 4.844-28.49-0.251-0.49c-2.223-4.25-4.835-7.457-7.826-9.644l-0.361-0.257c-3.342-2.33-7.243-3.494-11.757-3.494zM635.2 191.598c30.24 0 55.944 13.604 81.194 32.65l1.683 1.277c0.841 0.643 1.682 1.292 2.522 1.946l1.68 1.316 0.841 0.663 1.68 1.337a397.492 397.492 0 0 1 10.266 7.975l1.963 1.583 1.936 1.577 0.958 0.785 1.897 1.566 1.872 1.556 2.764 2.314 2.715 2.288 7.883 6.668 2.552 2.145 1.684 1.405 1.672 1.385 1.659 1.362 1.648 1.34 0.821 0.66 1.634 1.303 1.627 1.277c3.516 2.738 6.982 5.287 10.449 7.597l1.6 0.8 1.595 0.805 1.58 0.806 1.034 0.537 1.029 0.542 0.511 0.274 1.019 0.553 1.01 0.56 0.502 0.285 0.996 0.575c7.1 4.16 13.37 9.15 17.124 16.657 9.778 9.774 15.287 19.55 20.255 33.05l0.54 1.487c0.09 0.25 0.18 0.502 0.269 0.755l0.535 1.534 0.534 1.566c0.09 0.264 0.178 0.53 0.267 0.796 3.592 0 7.185-2.304 10.777-5.434l0.634-0.56c0.106-0.095 0.212-0.19 0.317-0.287l0.634-0.583 0.317-0.296 0.634-0.601 0.634-0.611 0.951-0.932 0.634-0.628 1.268-1.265c0.978-0.977 1.956-2.125 2.963-3.415l0.553-0.716 0.56-0.744 0.567-0.77 0.577-0.794 0.885-1.235 2.829-3.99 1.013-1.411 0.698-0.961 0.717-0.976 0.738-0.989 0.377-0.499 0.77-1.007 0.794-1.018c2.416-3.068 5.159-6.267 8.359-9.466h39.2c4.438 2.218 7.996 4.436 11.024 6.654l0.851 0.634c0.977 0.74 1.898 1.479 2.777 2.218l0.743 0.634 0.724 0.634 0.708 0.633 0.691 0.634 0.679 0.634 0.666 0.634 0.982 0.95 1.603 1.585 0.952 0.95c19.04 38.07 25.942 92.317 27.584 135.24l0.107 3.01c0.083 2.493 0.147 4.944 0.196 7.348l0.05 2.862c0.043 2.839 0.063 5.606 0.063 8.294-5.6 50.385-28 100.77-72.8 128.761-28 16.795-72.8 16.795-106.4 11.197 0 2.375-1.008 4.75-2.169 7.125l-0.504 1.018-0.508 1.018c-1.262 2.544-2.419 5.09-2.419 7.634-5.6 27.991-33.6 44.786-61.6 44.786l-3.186-0.004-1.553-0.011-1.524-0.022-1.009-0.02-1.002-0.029-0.994-0.036-0.986-0.045a90.84 90.84 0 0 1-0.489-0.026l-0.97-0.06c-6.754-0.457-12.681-1.74-16.287-5.345-5.072-2.535-8.995-5.07-12.29-7.605l-0.811-0.634a70.206 70.206 0 0 1-1.55-1.268l-0.744-0.633-0.724-0.634-0.708-0.634-0.691-0.634-0.679-0.633-0.666-0.634-0.657-0.634-0.648-0.634-1.28-1.267-17.752-17.746 1.266 2.535 0.96 1.941 0.631 1.294 0.624 1.294 0.613 1.294 0.6 1.294c3.662 7.98 6.506 15.959 6.506 23.938l1.326 2.66 0.778 1.581 0.514 1.06 0.509 1.063 0.503 1.07 0.248 0.539 0.492 1.081c3.816 8.506 6.83 17.814 6.83 30.134v32.775h-22.401l0.001-32.775-0.494-1.003c-0.32-0.66-0.62-1.3-0.903-1.925l-0.413-0.928-0.39-0.908c-0.126-0.3-0.248-0.597-0.367-0.891l-0.349-0.877-0.167-0.434-0.322-0.862-0.308-0.854c-0.05-0.142-0.1-0.284-0.148-0.425l-0.289-0.85-0.278-0.849-0.27-0.851-0.262-0.858-0.259-0.866-0.51-1.768-1.763-6.33-0.63-2.21-0.516-1.764-0.368-1.231-0.39-1.279-0.413-1.33-0.438-1.382-0.466-1.44-0.244-0.74-0.244-0.732-0.493 1.015c-1.973 4.192-3.209 8.383-4.295 12.574l-0.428 1.677-0.766 3.053-0.41 1.607c-1.178 4.554-2.53 9.108-4.807 13.661a129.519 129.519 0 0 0-1.612 3.358l-0.652 1.417-0.658 1.452-2.383 5.312-1.073 2.357-0.737 1.59c-2.739 5.847-5.876 11.889-9.83 17.29l-32.038-0.002-0.145-0.355-0.286 0.301 0.64-0.681c0.69-0.73 1.381-1.438 2.072-2.138l0.634-0.64 1.268-1.269c5.6-5.598 11.2-16.795 11.2-22.393 4.099-4.098 5.198-8.195 5.492-12.293l0.04-0.647 0.029-0.647 0.02-0.647 0.014-0.97 0.005-0.958v-0.633c9.2-22.993 14.621-42.21 19.368-63.853l0.616-2.838c0.306-1.426 0.61-2.863 0.912-4.314l0.603-2.92 0.601-2.958 0.3-1.494-1.513-1.003-1.484-0.976-2.175-1.416-2.12-1.37-5.436-3.49-2.627-1.702-1.296-0.849-1.289-0.852-1.281-0.857a239.79 239.79 0 0 1-0.64-0.432l-1.275-0.871-0.637-0.44-1.273-0.892c-0.425-0.3-0.85-0.602-1.275-0.908l-1.277-0.928c-5.756-4.223-11.655-9.13-18.464-15.87l-0.738-0.734 0.003-6.836 0.009-0.653 0.019-0.585 0.02-0.353 0.028-0.326 0.036-0.299c0.19-1.335 0.693-1.84 2.028-2.03l0.299-0.035 0.325-0.028 0.353-0.02 0.383-0.014 0.63-0.012 0.95-0.005h6.117c13.967 10.472 25.757 16.59 38.085 21.07l1.398 0.501c1.4 0.494 2.81 0.968 4.23 1.426l1.425 0.453 1.434 0.444 1.444 0.434 1.455 0.427 1.466 0.42 1.48 0.414 1.491 0.408 1.507 0.404 1.521 0.4 1.538 0.399 2.338 0.594 0.788 0.197 28.235 28.227-0.016-0.13a35.803 35.803 0 0 1-0.206-3.485l-0.01-0.951-0.003-1.268c0-4.75 1.008-9.5 2.169-14.25l0.504-2.036 0.508-2.035c1.262-5.09 2.419-10.18 2.419-15.269 2.618-5.233 2.788-10.467 2.227-15.7l-0.106-0.924-0.12-0.924-0.13-0.923-0.139-0.924-0.22-1.385-0.41-2.474c-0.543-3.273-1.049-6.546-1.098-9.819l-0.005-0.516-5.599 5.598c0 2.221-0.882 4.443-2.296 7.014l-0.349 0.624-0.369 0.639-0.387 0.654-0.824 1.36-2.062 3.346-0.738 1.217-0.503 0.843-0.51 0.869-0.518 0.896-0.522 0.925-0.263 0.474-0.528 0.97c-0.442 0.82-0.887 1.674-1.331 2.562l-5.6 5.598-1.009-0.001-0.886-0.01-0.397-0.012-0.368-0.017-0.339-0.024-0.312-0.031c-1.445-0.175-1.978-0.666-2.174-2.049l-0.036-0.3-0.028-0.325-0.02-0.353-0.014-0.382-0.012-0.63-0.004-0.702 0.004-2.346 0.008-0.634 0.014-0.634 0.01-0.317 0.028-0.633c0.005-0.106 0.011-0.212 0.018-0.317l0.044-0.634 0.058-0.634c0.391-3.803 1.611-7.605 5.415-11.408l0.005-1.584 0.008-0.634 0.014-0.634 0.01-0.317 0.028-0.633c0.005-0.106 0.011-0.212 0.018-0.317l0.044-0.634 0.058-0.634c0.391-3.803 1.611-7.605 5.415-11.408 4.015-4.014 8.03-5.15 12.045-5.471l0.634-0.044c0.212-0.013 0.423-0.024 0.634-0.033l0.634-0.023 0.634-0.014 0.634-0.008 3.177-0.01 0.97-0.015 0.648-0.02 0.648-0.028c4.208-0.222 8.417-1.17 12.625-5.22l0.317-0.31 1.468 0.005 0.63 0.012 0.382 0.014 0.353 0.02 0.325 0.028 0.3 0.036c1.334 0.19 1.837 0.694 2.027 2.03l0.036 0.298 0.028 0.326 0.02 0.353 0.014 0.382 0.012 0.63 0.004 0.702 0.001 6.36c-2.1 0-4.2 0.787-6.3 1.772l-0.788 0.377-0.393 0.193-1.444 0.72c-2.45 1.22-4.9 2.372-7.35 2.52l-0.525 0.017c1 0.5 1.955 1 2.874 1.495l1.085 0.593 1.054 0.587 0.515 0.292 1.997 1.144 1.911 1.101 0.931 0.53 0.92 0.516 0.909 0.499c4.833 2.611 9.404 4.44 15.804 4.44l6.048 2.012 3.024 1 3.024 0.995 1.512 0.494 3.024 0.98c44.856 14.466 89.712 25.03 134.568 0.117 33.6-22.394 56-67.18 61.6-106.369 4.48-31.35-1.792-73.45-10.214-109.1l-0.636-2.661-0.643-2.636c-0.108-0.437-0.215-0.873-0.324-1.307l-0.652-2.594-0.657-2.564-0.33-1.27-0.665-2.517c-0.221-0.833-0.444-1.66-0.667-2.482l-0.67-2.447c-0.11-0.405-0.223-0.808-0.334-1.21l-0.672-2.39-0.336-1.187-0.01-0.23-0.02-0.225-0.023-0.184-0.03-0.207-0.042-0.23-0.052-0.246a7.311 7.311 0 0 0-0.032-0.129l-0.072-0.268c-0.482-1.645-1.786-3.874-5.319-3.874-5.6 22.393-16.8 39.188-44.8 44.787l-17.918-0.002-0.741-0.01-0.454-0.011-0.424-0.02-0.398-0.027a9.84 9.84 0 0 1-0.73-0.087l-0.339-0.062c-1.048-0.219-1.889-0.656-2.96-1.53l-0.346-0.291-0.365-0.322-0.386-0.354-0.626-0.594-0.692-0.675-1.621-1.613v5.598c5.518 16.548 5.599 38.53 0.243 55.238l-0.243 0.745c-1.436 4.306-2.504 8.613-3.486 12.92l-0.582 2.583-0.845 3.792-0.471 2.072-0.323 1.382-0.331 1.382c-2.131 8.751-4.926 17.503-10.762 26.254l-6.838-0.003-0.654-0.009-0.397-0.011-0.368-0.017-0.34-0.024a9.653 9.653 0 0 1-0.16-0.015l-0.298-0.036c-1.241-0.176-1.764-0.623-1.984-1.755l-0.046-0.274-0.036-0.3-0.028-0.325-0.02-0.353-0.014-0.383-0.012-0.63-0.004-0.701-0.001-0.762 0.002-0.18 0.014-0.394 0.028-0.435 0.041-0.475 0.053-0.515 0.066-0.554 0.119-0.899 0.142-0.978 0.163-1.054 0.247-1.514 0.577-3.37 0.912-5.251 0.523-3.103 0.262-1.6 0.26-1.627 0.253-1.651 0.166-1.112 0.162-1.118 0.158-1.125 0.153-1.13 0.22-1.7 0.137-1.137 0.132-1.137 0.123-1.137 0.06-0.568 0.11-1.133 0.102-1.13 0.092-1.124 0.082-1.12c0.039-0.557 0.073-1.112 0.103-1.663l0.053-1.098c0.055-1.276 0.085-2.53 0.085-3.755v-22.393l-0.302 0.015-0.246 0.025-0.196 0.027-0.218 0.035-0.238 0.047-0.255 0.059-0.268 0.073c-1.646 0.48-3.877 1.784-3.877 5.317-3.533 0-4.837 2.229-5.319 3.874l-0.072 0.268-0.06 0.255-0.046 0.238-0.05 0.32-0.037 0.34-0.012 0.18-0.004 0.123a141.89 141.89 0 0 0-1.363 4.323l-0.408 1.39c-0.067 0.23-0.132 0.46-0.197 0.688l-0.381 1.358-0.366 1.338-0.527 1.975-1.499 5.739-0.333 1.248-0.338 1.243-0.172 0.62-0.352 1.236c-2.144 7.415-4.935 14.738-10.864 23.629l-5.6 5.598-1.468-0.005-0.63-0.012-0.382-0.014-0.353-0.02a11.438 11.438 0 0 1-0.166-0.013l-0.312-0.032c-1.445-0.174-1.978-0.665-2.174-2.048l-0.036-0.3-0.028-0.325-0.02-0.353-0.014-0.383-0.012-0.63-0.004-0.7-0.001-0.763c3.533-3.532 4.837-9.293 5.319-14.47l0.072-0.858 0.06-0.843 0.046-0.827 0.036-0.807 0.026-0.785 0.025-1.128 0.012-1.063 0.003-0.666 0.006-2.71 0.012-0.997 0.014-0.703 0.033-1.107 0.032-0.773 0.04-0.798 0.051-0.824 0.03-0.42 0.068-0.859 0.039-0.438 0.088-0.89 0.103-0.913 0.057-0.463 0.127-0.94c0.677-4.745 2.011-10.147 4.639-15.57l0.262-0.533c-2.9 0-4.298 1.501-5.75 3.727l-0.454 0.713-0.96 1.544-0.346 0.545-0.365 0.556-0.386 0.568a25.878 25.878 0 0 1-2.644 3.244l-0.295 0.3c-1.344 1.343-2.365 3.01-3.297 4.92l-0.307 0.647-0.302 0.663-0.3 0.68-0.449 1.051-1.234 2.965-0.495 1.166-0.346 0.793-0.36 0.804-0.186 0.405-0.385 0.82-0.404 0.828c-1.933 3.89-4.554 8.07-8.735 12.25l-6.842-0.004-0.653-0.009-0.585-0.019-0.353-0.02a11.452 11.452 0 0 1-0.166-0.013l-0.312-0.032c-1.445-0.174-1.978-0.665-2.174-2.048l-0.036-0.3-0.028-0.325-0.02-0.353-0.014-0.383-0.012-0.63-0.004-0.7-0.001-6.361c2.278-4.554 3.629-9.108 4.807-13.661l0.41-1.607 0.766-3.054 0.41-1.607c1.178-4.554 2.53-9.108 4.807-13.661l0.378-0.747 0.378-0.73c0.063-0.12 0.126-0.24 0.19-0.358l0.38-0.706 0.384-0.69 0.194-0.34 0.389-0.667c0.26-0.44 0.524-0.87 0.792-1.29l0.405-0.625 0.205-0.307 0.416-0.604c0.42-0.598 0.851-1.177 1.298-1.737l0.453-0.555c0.152-0.183 0.307-0.364 0.463-0.543l0.475-0.532a30.36 30.36 0 0 1 2.034-2.026l0.546-0.483c0.092-0.08 0.185-0.16 0.279-0.238l0.57-0.47c2.51-2.017 5.515-3.803 9.292-5.499l0.885-0.39 0.454-0.193 0.928-0.385 0.475-0.192 0.972-0.382 1.003-0.38 1.035-0.38 1.066-0.378 0.545-0.19 1.116-0.377-12.442-0.002-0.653-0.01-0.397-0.01-0.368-0.018-0.339-0.024-0.312-0.032c-1.445-0.174-1.978-0.665-2.174-2.048l-0.036-0.3-0.028-0.325-0.02-0.353-0.014-0.382-0.012-0.63-0.004-0.702v-0.808l0.01-0.194 0.02-0.232 0.04-0.293 0.037-0.225 0.049-0.244 0.029-0.13 0.07-0.268c0.446-1.607 1.673-3.838 5.05-3.96l0.294-0.006h5.6c0-1.358-0.33-2.386-0.749-3.245l-0.16-0.315-0.167-0.3-0.339-0.567-0.404-0.662-0.147-0.257a7.585 7.585 0 0 1-0.07-0.127l-0.127-0.255c-0.615-1.316-0.555-2.671 1.923-5.225l0.24-0.244H764l-5.6-5.598 0.016-0.304 0.025-0.245 0.043-0.303 0.04-0.229 0.053-0.246c0.01-0.043 0.02-0.086 0.032-0.13l0.072-0.268 0.043-0.138 0.096-0.284c0.558-1.531 1.86-3.338 4.89-3.446l0.29-0.006c1.682 0 3.87-0.505 6.258-1.211l0.905-0.274 0.92-0.29 0.932-0.3 1.885-0.624 2.135-0.708 1.43-0.463 0.94-0.294c2.482-0.761 4.785-1.345 6.586-1.424l0.409-0.01c2.45 0 4.9-1.071 7.35-2.277l2.1-1.044c2.45-1.206 4.9-2.277 7.35-2.277h5.6c-2.3-2.3-3.655-4.599-4.842-7.286l-0.306-0.71-0.151-0.362-0.301-0.74-0.3-0.76-0.304-0.784-0.96-2.504-0.526-1.348-0.185-0.464-0.386-0.954c-0.2-0.485-0.407-0.983-0.626-1.494l-0.454-1.04-0.485-1.078a92.078 92.078 0 0 0-0.795-1.691l-0.579-1.178a23.612 23.612 0 0 0-2.71-2.327l-0.462-0.333a29.586 29.586 0 0 0-0.233-0.162l-0.468-0.318-0.474-0.31-0.48-0.305-0.733-0.45-2.043-1.208-1.08-0.637-0.557-0.333-0.859-0.523-0.588-0.368-0.603-0.385-0.616-0.404a60.189 60.189 0 0 1-0.314-0.21l-0.64-0.436a58.4 58.4 0 0 1-0.325-0.227l-0.663-0.473-0.68-0.5a60.783 60.783 0 0 1-1.78-1.378l-0.744-0.608a72.574 72.574 0 0 1-3.181-2.805l-0.85-0.805c-0.43-0.413-0.869-0.843-1.317-1.29l-0.235-0.011-0.224-0.02-0.285-0.036a7.348 7.348 0 0 1-0.107-0.017l-0.228-0.04-0.247-0.054a7.304 7.304 0 0 1-0.13-0.03l-0.267-0.073a6.76 6.76 0 0 1-0.567-0.193l-0.292-0.123c-1.469-0.661-3.018-2.057-3.018-5.002l-23.642-0.003-0.653-0.009-0.585-0.019-0.353-0.02-0.325-0.028-0.3-0.036c-1.334-0.19-1.837-0.694-2.027-2.03l-0.036-0.298-0.028-0.326-0.02-0.353-0.014-0.383-0.012-0.63-0.004-0.7v-0.81l0.015-0.256 0.025-0.246 0.043-0.303 0.04-0.229 0.053-0.246c0.01-0.043 0.02-0.086 0.032-0.13l0.072-0.268 0.043-0.138 0.096-0.284c0.576-1.579 1.941-3.451 5.18-3.451h5.6c-4.9-4.899-9.8-8.726-14.7-12.419l-4.2-3.155c-4.9-3.693-9.8-7.52-14.7-12.418-27.72-22.17-55.44-33.365-83.16-33.587l-0.84-0.003c-15.4 0-30.8 1.693-48.063 6.012l-1.891 0.481c-5.695 1.477-11.597 3.238-17.771 5.316l-2.068 0.705c-0.693 0.238-1.39 0.481-2.089 0.728l-2.11 0.752a345.34 345.34 0 0 0-6.463 2.405l-2.2 0.85-2.225 0.878a425.605 425.605 0 0 0-10.32 4.266c-3.02 1.51-5.837 3.02-8.477 4.543l-1.306 0.763c-7.532 4.458-13.605 9.051-18.9 14.122l-0.9 0.874a94.185 94.185 0 0 0-3.881 4.058l-0.83 0.933c-0.275 0.312-0.548 0.627-0.82 0.944l-0.81 0.956c-0.134 0.16-0.268 0.321-0.401 0.483l-0.797 0.975-0.79 0.988-0.782 1.002c-0.65 0.84-1.293 1.696-1.932 2.566l-0.765 1.052-0.76 1.068-0.76 1.083-0.756 1.099-0.755 1.116-0.378 0.564 46.042 0.002 0.653 0.01 0.397 0.01 0.368 0.018 0.339 0.024 0.312 0.032c1.445 0.174 1.978 0.665 2.174 2.048l0.036 0.3 0.028 0.325 0.02 0.353 0.014 0.382 0.012 0.63 0.004 0.702v0.808l-0.015 0.257-0.025 0.246-0.043 0.303-0.04 0.228-0.053 0.247c-0.01 0.043-0.02 0.086-0.032 0.13l-0.072 0.268c-0.482 1.645-1.786 3.873-5.319 3.873-9.6 0-18.171 1.028-26.596 2.204l-2.804 0.396-4.201 0.598c-8.878 1.255-17.866 2.4-27.999 2.4l-2.067 0.002-1.94 0.01-0.925 0.01-1.335 0.028a93.08 93.08 0 0 0-0.431 0.012l-0.843 0.03-0.412 0.019-0.806 0.043c-0.529 0.032-1.042 0.072-1.541 0.119l-0.738 0.077c-4.606 0.532-7.984 1.872-11.362 5.249-3.885 0-7.77 2.694-11.654 6.213l-0.648 0.594-0.323 0.302-0.971 0.924-0.972 0.945-0.647 0.639-0.634 0.63-0.951 0.95c-10.752 10.748-20.357 21.497-29.366 32.062l-2.24 2.638-2.217 2.629-2.196 2.62-2.177 2.61-3.234 3.897-9.534 11.531-2.097 2.526-2.092 2.512-2.091 2.496-1.046 1.242-2.092 2.472c-7.324 8.622-14.702 16.934-22.5 24.813l-1.118 1.123c-9.632 9.63-15.582 19.258-21.017 29.942l-0.756 1.498-0.75 1.512-0.748 1.527-1.12 2.32-1.125 2.358-3.863 8.154-1.218 2.544-0.833 1.723-0.852 1.745-0.873 1.768-0.445 0.892c-4.099 4.098-5.198 8.195-5.492 12.293l-0.04 0.647-0.029 0.647-0.02 0.647-0.014 0.97-0.005 0.958v0.633c0 3.559 2.262 7.117 5.35 10.675l0.57 0.647 0.585 0.647 0.601 0.647 0.613 0.647 0.624 0.647 0.632 0.647 0.96 0.97 1.265 1.268c2.7 8.098 6.702 14.894 10.75 21.016l0.9 1.35 1.346 1.986 2.64 3.854 0.854 1.255 0.835 1.243c1.925 2.886 3.675 5.685 5.075 8.485 2.667-4 5.65-7.998 8.877-12.072l1.303-1.634 1.328-1.643 1.351-1.654 1.374-1.664 1.396-1.677 1.416-1.69 2.889-3.426 5.216-6.16 2.288-2.714 1.541-1.836 1.552-1.86 0.779-0.939 1.566-1.896c0.784-0.955 1.572-1.919 2.363-2.893l1.583-1.963a397.405 397.405 0 0 0 7.978-10.263h5.6l-1.53 2.56-1.5 2.53-0.738 1.253-1.455 2.485-1.428 2.457-1.4 2.43-1.373 2.403c-0.227 0.398-0.453 0.795-0.677 1.192l-1.336 2.366-1.312 2.341-1.29 2.32-1.267 2.297-1.246 2.276-0.616 1.13-1.818 3.363-1.19 2.22-1.172 2.202-1.156 2.186-1.141 2.17-1.127 2.158-1.114 2.143-1.648 3.193-1.624 3.169-2.133 4.193-2.626 5.2-2.096 4.174-3.187 6.368c-0.224 0.671-0.448 1.325-0.672 1.962l-0.446 1.252-0.445 1.21-0.443 1.167-0.22 0.57-0.44 1.109c-0.072 0.182-0.144 0.362-0.217 0.541l-0.432 1.056-0.428 1.023-0.422 0.991-0.622 1.432-1.194 2.69-0.752 1.684-0.712 1.616-0.339 0.786-0.326 0.776a81.65 81.65 0 0 0-0.16 0.384l-0.307 0.762c-0.1 0.252-0.198 0.504-0.293 0.755l-0.28 0.75-0.264 0.748c-1.113 3.235-1.786 6.444-1.786 10.325 6.853 10.276 13.705 16.36 20.558 20.818l0.856 0.549 0.857 0.533c0.143 0.088 0.285 0.175 0.428 0.261l0.857 0.511 0.428 0.251 0.857 0.492 0.428 0.242 0.857 0.476 0.856 0.466 0.857 0.457 1.285 0.672 1.237 0.635 1.62 0.818 1.619 0.811c11.2 5.598 28 5.598 39.2-5.598l4.241-2.558 7.833-4.748 3.558-2.144 1.795-1.075 2.714-1.612 1.822-1.072 1.831-1.069 1.842-1.064 0.925-0.53 1.856-1.054c1.24-0.7 2.487-1.396 3.739-2.083l1.883-1.027c19.497-10.544 40.329-19.152 61.161-19.152 9.184-22.954 10.837-53.435 8.047-85.272l-0.212-2.332c-0.073-0.778-0.15-1.557-0.228-2.336l-0.243-2.34a386.928 386.928 0 0 0-0.53-4.69l-0.288-2.347c-0.294-2.35-0.61-4.7-0.946-7.052-5.6-27.991-5.6-55.983 0-89.573l5.6-5.598 1.468 0.005 0.63 0.012 0.382 0.014 0.353 0.02 0.325 0.028 0.3 0.036c1.334 0.19 1.837 0.694 2.027 2.03l0.036 0.298 0.028 0.326 0.02 0.353 0.014 0.383 0.012 0.63 0.004 0.7 0.001 0.763c0 15.995 1.829 31.99 4.44 49.03l0.443 2.85c0.075 0.477 0.15 0.954 0.227 1.433l0.462 2.88 0.474 2.903 0.73 4.398 1.263 7.456 1.83 10.729 1.064 6.299c0.09 0.53 0.178 1.062 0.267 1.595 11.2 44.787 11.2 83.975-5.6 128.762l-5.6 5.598c-20.776 0-38.406 6.29-56.225 14.704l-2.018 0.961-1.01 0.487-2.022 0.986-2.027 1-2.033 1.015-3.06 1.543-3.08 1.567-8.327 4.253-3.176 1.61-3.212 1.612c-0.359 0.18-0.719 0.358-1.079 0.537l-2.171 1.072-2.19 1.07-2.21 1.063-2.232 1.058a324.286 324.286 0 0 1-10.328 4.65c-13.44 8.958-26.88 10.75-40.32 8.241l-1.061-0.207c-0.707-0.144-1.415-0.299-2.122-0.466l-1.061-0.258a77.796 77.796 0 0 1-3.183-0.875l-1.061-0.323-1.061-0.338a87.832 87.832 0 0 1-0.531-0.175c-15.967-3.99-26.243-10.826-36.913-22.532l-0.89-0.987-0.446-0.502-0.895-1.022-0.448-0.519-0.9-1.056c-0.15-0.178-0.302-0.357-0.452-0.537l-0.909-1.091-0.914-1.116-0.46-0.567-0.924-1.152-0.933-1.177-0.942-1.201-0.952-1.227-0.961-1.252-1.465-1.927-0.996-1.324v-5.598c0-9.181 1.674-15.016 4.106-20.25l0.361-0.761 0.371-0.755 0.381-0.75 0.39-0.748 0.399-0.746 0.61-1.123 2.355-4.237 0.664-1.217 0.445-0.833 0.446-0.852 0.448-0.873 0.224-0.445-1.718-2.283-2.17-2.87-7.925-10.4-1.614-2.138-1.161-1.551-1.124-1.518-1.09-1.492-0.71-0.984-0.7-0.98-0.688-0.976-0.68-0.977-0.336-0.49-0.668-0.981-0.662-0.988-0.658-0.997-0.654-1.008-0.652-1.022-0.652-1.039-0.651-1.058-0.654-1.079-0.327-0.548-0.658-1.117-0.664-1.144-0.669-1.174-0.337-0.6-0.681-1.225-0.69-1.262-0.349-0.645-0.706-1.322-0.72-1.364-0.732-1.41-0.748-1.46-0.764-1.508-0.388-0.775c-11.2-11.196-16.8-22.393-16.8-33.59l0.007-1.533 0.016-0.856 0.013-0.45 0.028-0.704 0.026-0.487 0.031-0.503 0.038-0.517 0.07-0.804 0.058-0.555 0.066-0.57 0.075-0.584 0.085-0.599 0.096-0.614 0.108-0.629 0.058-0.32 0.125-0.651 0.068-0.332 0.145-0.673 0.159-0.689 0.173-0.703c0.03-0.119 0.06-0.238 0.092-0.357l0.196-0.726 0.212-0.74c0.073-0.25 0.15-0.502 0.228-0.756l0.246-0.77c0.128-0.39 0.262-0.784 0.403-1.184l0.291-0.808a62.894 62.894 0 0 1 2.18-5.159l0.441-0.911a77.065 77.065 0 0 1 2.575-4.783l0.593-1.001a91.574 91.574 0 0 1 1.948-3.093l0.35-0.529c2.8-4.198 5.25-8.747 7.613-13.47l0.83-1.675 0.826-1.687 3.308-6.842 0.84-1.725 0.852-1.728 0.431-0.864 0.872-1.729c4.697-9.216 10.122-18.36 18.028-26.263l3.178-3.182 1.286-1.294 1.874-1.899 1.239-1.266c0.206-0.21 0.41-0.421 0.615-0.632l1.222-1.266 0.606-0.633 1.2-1.266c6.958-7.384 13.087-14.768 16.78-22.152-44.8 5.598-78.4 22.393-112 50.385-22.96 18.363-38.39 44.254-49.375 71.5l-0.796 1.996a298.099 298.099 0 0 0-2.295 6.011l-0.736 2.01-0.72 2.013a339.862 339.862 0 0 0-2.078 6.043c-5.376 10.75-8.172 21.498-9.625 34.104l-0.168 1.522-0.08 0.768-0.15 1.55-0.137 1.569-0.127 1.59-0.06 0.802-0.11 1.622-0.1 1.644-0.092 1.666-0.082 1.69-0.038 0.855-0.07 1.726-0.061 1.752-0.054 1.779-0.047 1.804-0.041 1.833-0.05 2.801-0.038 2.867-0.028 2.936-0.024 4.024-0.014 5.216-0.003 3.232-0.001 4.623c5.544 44.339 27.554 99.652 55.162 138.778l0.838 1.18v5.599a183.28 183.28 0 0 0-1.981 8.944l-0.346 1.782-0.333 1.777-0.162 0.888-0.319 1.77-0.615 3.526-1.049 6.102-0.455 2.583-0.31 1.71-0.319 1.7-0.327 1.688c-0.167 0.84-0.338 1.678-0.514 2.51l-0.36 1.657c-2.022 9.08-4.782 17.554-9.71 24.944v5.599l5.6 5.598c2.4 2.4 5.829 3.77 9.845 4.994l1.016 0.304 1.039 0.3 3.795 1.072 1.124 0.324 1.138 0.339c3.243 0.98 6.643 2.164 10.043 3.864 0.741 0 1.679 0.098 2.773 0.268l0.753 0.124 0.796 0.143a74 74 0 0 1 0.414 0.079l0.858 0.17 0.896 0.185 1.408 0.303 1.985 0.441 4.263 0.962 2.237 0.493 1.706 0.364 1.147 0.236 1.151 0.23 1.153 0.221 1.152 0.21 1.148 0.2 0.572 0.094 1.14 0.178c2.834 0.424 5.577 0.697 8.048 0.697l18.038-0.003 0.654-0.009 0.397-0.011 0.368-0.017 0.34-0.024c0.108-0.01 0.212-0.02 0.312-0.032l0.286-0.04c1.232-0.206 1.707-0.72 1.89-2.008l0.036-0.3 0.028-0.325 0.02-0.353 0.014-0.383 0.012-0.63 0.004-0.701 0.001-28.754 1.333-2 8.243 14.702-8.058 46.1a43.073 43.073 0 0 1-7.118-2.819 85.61 85.61 0 0 1-4.656-0.132l-1.061-0.064-0.534-0.036-1.073-0.082c-0.538-0.043-1.078-0.091-1.62-0.144l-1.085-0.11c-0.362-0.038-0.725-0.079-1.088-0.12l-1.091-0.132a120.05 120.05 0 0 1-0.546-0.07l-1.092-0.147a122.92 122.92 0 0 1-0.546-0.077l-1.09-0.162-1.09-0.171-1.085-0.18-1.08-0.19-1.076-0.198-0.536-0.103-1.065-0.21-1.058-0.22-1.048-0.226-1.039-0.235-1.026-0.241-0.51-0.124-1.007-0.252-0.994-0.258-0.98-0.265-0.962-0.27-0.946-0.277a89.754 89.754 0 0 1-0.466-0.14l-0.917-0.286a82.155 82.155 0 0 1-0.452-0.144l-0.887-0.292-0.436-0.148-0.855-0.3-0.419-0.15-0.82-0.306a58.757 58.757 0 0 1-0.4-0.155l-0.783-0.311a51.12 51.12 0 0 1-0.381-0.157l-0.742-0.317a40.416 40.416 0 0 1-1.4-0.642l-0.655-0.325c-1.813-0.924-3.251-1.876-4.203-2.827-2.635-1.318-5.58-2.325-8.69-3.241l-1.174-0.34-1.187-0.334-4.85-1.326-1.847-0.517c-0.206-0.058-0.411-0.117-0.617-0.177l-1.235-0.364c-7-2.099-14-4.898-19.6-10.496l-1.58-1.585-0.937-0.95-0.615-0.634-0.906-0.951-0.59-0.634a71.4 71.4 0 0 1-0.29-0.317l-0.568-0.633c-3.272-3.697-5.714-7.394-5.714-11.091v-22.394c0-2.299 0.945-4.598 2.058-6.51l0.294-0.49 0.149-0.237 0.299-0.46 0.3-0.44 0.296-0.415 0.29-0.392 0.281-0.365 0.27-0.338 0.373-0.452 0.329-0.381 0.35-0.39 0.311-0.326-2.536-0.003-1.902-0.01-1.268-0.015-0.634-0.01-1.268-0.027-1.267-0.039c-8.242-0.287-16.483-1.375-24.725-5.495l-1.002-0.508-1.03-0.535-0.523-0.278-1.064-0.573a143.68 143.68 0 0 1-0.54-0.296l-1.092-0.607-1.11-0.628-1.122-0.647-1.134-0.663-1.143-0.68-1.148-0.692-1.152-0.705-1.153-0.715-1.151-0.724-1.147-0.73-1.14-0.736-1.13-0.739c-0.188-0.123-0.375-0.246-0.561-0.37l-1.112-0.74-1.096-0.74a208.09 208.09 0 0 1-0.541-0.37l-1.067-0.736-1.045-0.73-1.02-0.724-0.994-0.715-0.485-0.353-0.947-0.7-0.913-0.686-0.877-0.671-0.839-0.656-0.403-0.32-0.775-0.629c-1.255-1.03-2.32-1.974-3.144-2.797-15.232-7.614-22.696-17.816-27.673-28.847l-0.433-0.975a94.096 94.096 0 0 1-0.627-1.47l-0.404-0.986-0.395-0.988-0.193-0.496-0.38-0.992-0.373-0.996-0.365-0.998-0.536-1.5-0.524-1.506-0.685-2.01-1.012-3.023v-16.795c0-2.599 1.207-3.991 3.061-5.298l0.439-0.3 0.46-0.3 0.728-0.458 1.298-0.805 0.545-0.347 0.556-0.364c1.313-0.875 2.713-1.925 4.113-3.324l28-27.992a84.846 84.846 0 0 0 4.148-9.745l0.433-1.233 0.618-1.817 1.005-3.004 0.415-1.215c1.127-3.26 2.448-6.712 4.581-10.978l-0.005-1.6-0.011-0.797-0.013-0.537-0.019-0.543-0.04-0.827-0.038-0.561-0.046-0.57-0.057-0.582-0.033-0.294-0.074-0.599-0.087-0.61-0.1-0.625a33.984 33.984 0 0 0-0.056-0.318l-0.124-0.648a35.814 35.814 0 0 0-0.297-1.345l-0.175-0.7a40.03 40.03 0 0 0-0.3-1.086l-0.227-0.75-0.248-0.773c-0.043-0.13-0.087-0.262-0.133-0.394l-0.283-0.807a54.952 54.952 0 0 0-0.64-1.69l-0.36-0.883c-0.125-0.3-0.254-0.603-0.388-0.912l-0.416-0.94a83.253 83.253 0 0 0-1.43-3.002v-67.18c-4.12 4.12-8.242 5.208-12.362 5.495l-0.634 0.039-0.317 0.015-0.634 0.022-0.951 0.02-0.634 0.005-1.268 0.003c-11.2-5.599-16.8-11.197-22.4-22.394 0-1.5-0.402-2.999-0.99-4.606l-0.245-0.649-0.129-0.329-0.408-1.01-0.878-2.13-0.3-0.75c-0.1-0.254-0.2-0.511-0.298-0.773l-0.294-0.795c-1.065-2.963-1.976-6.436-2.053-10.757l-0.005-0.594c-7.49-3.744-9.97-9.991-10.793-17.068l-0.08-0.735-0.067-0.74-0.058-0.746-0.049-0.75-0.04-0.755-0.046-1.139-0.032-1.146-0.02-1.142-0.015-1.131V449.12c0-11.196 5.6-22.393 16.8-27.991 3-5.998 7.607-10.39 12.1-14.036l0.896-0.72 0.89-0.7 1.75-1.353 2.099-1.616 0.802-0.627 0.391-0.31 0.762-0.616c0.996-0.816 1.91-1.616 2.71-2.416a97.557 97.557 0 0 0 3.052-1.594l0.955-0.527 0.925-0.522 0.897-0.517 1.294-0.763 1.236-0.745 1.941-1.19 1.806-1.115 1.027-0.624 0.662-0.395 0.647-0.378 0.631-0.36c2.6-1.455 4.838-2.392 7.06-2.462l0.267-0.004 1.468 0.005 0.63 0.012 0.382 0.014 0.353 0.02 0.166 0.013 0.312 0.032c1.445 0.174 1.978 0.665 2.174 2.048l0.036 0.3 0.028 0.325 0.02 0.353 0.014 0.383 0.012 0.63 0.004 0.7 0.001 0.763c0 2.375-1.008 4.75-2.169 7.125l-0.504 1.018-0.508 1.018c-1.262 2.545-2.419 5.09-2.419 7.634 7.735 3.866 10.128 7.733 10.868 11.6l0.076 0.429c0.023 0.143 0.044 0.286 0.063 0.43l0.052 0.43 0.022 0.214 0.052 0.644c0.005 0.072 0.01 0.144 0.013 0.215l0.02 0.405c0.02 0.472 0.028 0.944 0.032 1.416l0.001 0.405 0.001 23-5.6 5.599h-5.6c0-3.534-2.23-4.837-3.877-5.318l-0.268-0.073-0.255-0.058-0.238-0.047-0.319-0.05-0.266-0.03-0.202-0.016-0.175-0.007v11.197c0 3.558-2.262 7.117-5.35 10.675l-0.57 0.647-0.585 0.647-0.601 0.647-0.613 0.647-0.939 0.97-1.276 1.294-1.266 1.268h5.6c7.119-3.558 14.238-9.379 21.357-16.023l1.294-1.217a299.44 299.44 0 0 0 1.941-1.855l1.295-1.253 1.294-1.266 1.942-1.915 1.941-1.93 2.536-2.533 0.378-0.752 0.755-1.493 0.757-1.477c0.126-0.245 0.252-0.489 0.379-0.732l0.76-1.453 0.38-0.72 0.765-1.43 0.384-0.709 0.771-1.407 0.777-1.394 0.39-0.691 0.786-1.372c0.132-0.228 0.263-0.455 0.396-0.682l0.797-1.352 0.805-1.34c0.405-0.667 0.814-1.329 1.226-1.987l0.83-1.31c8.352-13.037 18.363-24.36 33.464-35.682 44.8-39.188 89.6-55.983 162.4-67.18 2.9-5.798 7.302-10.095 12.428-14.446l1.07-0.901 0.543-0.452 4.49-3.705 1.156-0.965c0.582-0.487 1.167-0.982 1.755-1.488l1.181-1.023a113.799 113.799 0 0 0 4.777-4.417l0.6-0.594c11.2-11.197 28-16.795 39.2-16.795l6.58-8.23 1.934-2.403 1.923-2.373 1.278-1.566 1.277-1.552 1.277-1.538 0.639-0.764 1.28-1.518 1.282-1.505c0.215-0.25 0.429-0.5 0.644-0.748l1.29-1.484 0.648-0.738 1.3-1.464c14.575-16.279 30.784-30.045 57.048-41.297 24.528-12.26 49.056-18.554 71.406-21.06l1.832-0.197 1.821-0.18c5.148-0.488 10.17-0.777 15.042-0.895l1.712-0.034c0.854-0.014 1.702-0.028 2.545-0.028h0.842zM176 645.063c-2.4 2.399-4.543 4.798-6.539 7.143l-0.986 1.167-1.44 1.73-3.23 3.915-0.904 1.08-0.45 0.532-0.901 1.05c-4.052 4.675-8.15 8.675-13.55 11.374l-5.6 5.599v5.598c0 5.22 2.434 10.44 5.6 15.66l0.567 0.922c0.095 0.153 0.191 0.307 0.288 0.46l0.585 0.921 0.595 0.922 0.906 1.381 2.332 3.505c2.175 3.273 4.29 6.546 5.927 9.819 2.265 2.264 5.446 4.529 9.173 6.793l1.08 0.647 1.107 0.647 1.133 0.647 1.157 0.647 1.179 0.647 1.199 0.647 1.217 0.647 1.233 0.647 1.248 0.647 1.894 0.97 2.558 1.294 3.822 1.915c2.1 0 4.2 0.787 6.3 1.771l0.787 0.377 0.788 0.39 1.444 0.719 0.787 0.383 0.788 0.369c1.969 0.897 3.937 1.59 5.906 1.59l1.405-0.005 0.502-0.008 0.468-0.013 0.222-0.01 0.422-0.026 0.397-0.036 0.374-0.048c1.336-0.2 2.29-0.677 3.626-1.814l0.375-0.327 0.397-0.361 0.423-0.397 0.452-0.436 1.282-1.264 0.855-0.854 0.008-0.2 0.022-0.282 0.046-0.395 0.055-0.363 0.076-0.419 0.065-0.307 0.078-0.329 0.09-0.35 0.106-0.368 0.059-0.19 0.129-0.396 0.07-0.205 0.156-0.42 0.085-0.216 0.184-0.442c0.097-0.224 0.202-0.454 0.315-0.688l0.237-0.474c0.124-0.24 0.257-0.484 0.399-0.73l0.297-0.5a21.457 21.457 0 0 1 3.123-3.923c-14.414-10.807-24.191-26.251-32.314-44.84l-0.745-1.725a254.112 254.112 0 0 1-1.826-4.388l-0.716-1.785-0.71-1.802-0.703-1.819-0.696-1.834-0.692-1.85-0.686-1.867-0.682-1.881-0.678-1.897-0.675-1.911-1.007-2.895-1.002-2.926-1-2.958-0.668-1.998z m498.635-16.56l0.023 0.187c0.447 3.48 1.67 6.959 5.012 10.438l0.33 0.336h5.6l-10.965-10.961z m72.546 0.33l0.002-0.049c-0.2 2.996-2.165 4.226-4.856 4.73l-0.456 0.078c-0.153 0.024-0.31 0.046-0.467 0.065l-0.479 0.054-0.489 0.044-0.498 0.035-0.506 0.026-0.772 0.027-0.784 0.015-0.528 0.005-1.348 0.003c3.775 3.774 7.55 2.46 9.61-0.513l0.2-0.303c0.097-0.154 0.19-0.312 0.278-0.473l0.17-0.327a9.145 9.145 0 0 0 0.923-3.417zM170.4 493.908c-5.2 0-9.193 1.207-12.539 2.5l-0.761 0.3-0.74 0.299-2.105 0.867-0.669 0.269-0.655 0.253c-1.731 0.653-3.331 1.11-4.931 1.11l1.605-0.005 0.811-0.011 0.547-0.014 0.553-0.019 0.56-0.026 0.567-0.035 0.577-0.043 0.292-0.026 0.593-0.06 0.605-0.07 0.307-0.04 0.624-0.091 0.639-0.106 0.654-0.12c0.442-0.087 0.894-0.184 1.36-0.294l0.707-0.174 0.727-0.194c0.861-0.238 1.765-0.52 2.719-0.851l0.83-0.297a57.546 57.546 0 0 0 2.19-0.857l0.926-0.392a78.275 78.275 0 0 0 3.478-1.61l0.529-0.263z m-33.6 0c0 3.494 2.182 4.807 5.183 5.301l0.456 0.068 0.468 0.057c0.079 0.008 0.158 0.017 0.238 0.024l0.482 0.042 0.491 0.033 0.5 0.026 0.505 0.018 0.768 0.018 0.488 0.004-0.692-0.016-0.424-0.02c-0.137-0.007-0.27-0.016-0.398-0.027l-0.375-0.037c-1.398-0.165-2.357-0.583-3.654-1.642l-0.346-0.29c-0.06-0.052-0.12-0.104-0.18-0.158l-0.375-0.337-0.398-0.37-0.424-0.405-0.692-0.676-1.326-1.318-0.295-0.295z m-18.686-111.022l1.886-0.945 1.009 0.002 0.886 0.01 0.397 0.012 0.368 0.017 0.339 0.024 0.312 0.031c1.345 0.163 1.9 0.6 2.128 1.775l0.046 0.274 0.036 0.299 0.028 0.326 0.02 0.353 0.014 0.382 0.012 0.63 0.005 0.701v6.361l-0.835 0.836-1.64 1.654-0.805 0.817-1.58 1.618-1.54 1.595c-23.32 24.302-32.8 41.402-32.8 77.455l-5.6 5.598-0.302-0.015-0.246-0.025-0.196-0.027-0.218-0.035-0.238-0.047-0.255-0.059-0.268-0.073c-1.646-0.48-3.877-1.784-3.877-5.317v-27.992c-2 0-4-0.714-5.745-1.632l-0.515-0.28c-0.254-0.144-0.502-0.29-0.742-0.439l-0.47-0.298-0.228-0.15-0.439-0.3-0.211-0.148-0.404-0.294-0.379-0.286-0.352-0.275-0.323-0.261-0.43-0.36-0.356-0.312-0.42-0.384-0.186-0.179v-27.992l0.952-0.95 1.294-1.282 0.663-0.647 1.01-0.971 0.688-0.648 0.702-0.648 0.356-0.323 0.725-0.648c3.913-3.454 8.602-6.907 15.382-10.36l0.628-0.318 5.682 0.002 0.228 0.015 0.253 0.026 0.312 0.045 0.235 0.043 0.254 0.055 0.269 0.07c0.091 0.025 0.185 0.053 0.28 0.084l0.291 0.101c1.518 0.57 3.282 1.874 3.39 4.863l0.006 0.268 0.004-0.349c0.13-5.74 3.236-9.991 7.758-13.536l0.61-0.468c0.62-0.464 1.263-0.917 1.927-1.36l0.67-0.438 0.34-0.217 0.689-0.43 0.7-0.424 0.71-0.419 0.36-0.207 0.725-0.412 0.734-0.407 1.114-0.603 1.13-0.597 1.141-0.59 1.902-0.965z m24.286 66.235v-22.393l-1.907 1.915-0.635 0.647-0.628 0.647-0.619 0.646-0.305 0.324-0.6 0.647-0.587 0.647-0.57 0.647c-3.087 3.558-5.349 7.117-5.349 10.675-3.322 0-4.674 1.97-5.223 4.743l-0.08 0.444-0.069 0.456c-0.02 0.154-0.04 0.31-0.056 0.468l-0.047 0.478-0.02 0.242-0.032 0.492-0.026 0.5-0.018 0.505-0.013 0.511-0.013 1.036-0.002 0.523 0.001 2.066 0.011 0.971 0.007 0.324 0.02 0.647 0.028 0.647 0.04 0.647c0.287 3.992 1.338 7.983 5.181 11.975l0.311 0.317 1.065-1.068 0.53-0.537 0.784-0.806 0.51-0.537 0.506-0.542 0.498-0.55c0.082-0.092 0.165-0.184 0.246-0.277l0.487-0.561 0.24-0.284 0.471-0.575 0.233-0.292 0.455-0.592c2.997-3.986 5.175-8.79 5.175-15.773z m559.811-89.57l0.189-0.003 1.238 0.003 0.654 0.009 0.397 0.011 0.368 0.017 0.34 0.024c0.108 0.01 0.212 0.02 0.312 0.032l0.286 0.04c1.232 0.206 1.707 0.72 1.89 2.008l0.036 0.3 0.028 0.325 0.02 0.353 0.014 0.383 0.012 0.63 0.004 0.701 0.001 6.36-0.252 0.241-0.354 0.323-0.356 0.312-0.43 0.36-0.496 0.397-0.18 0.14-0.378 0.285-0.404 0.294-0.428 0.298-0.45 0.3c-2.072 1.348-4.772 2.65-7.472 2.65L708 387.54v5.598c1.556 0 3.543-0.432 5.723-1.056l0.881-0.26 0.9-0.275 0.911-0.29 1.852-0.608 2.62-0.87 1.454-0.472 0.955-0.3c2.523-0.778 4.868-1.377 6.695-1.458l0.409-0.01 1.468 0.006 0.63 0.012 0.382 0.014 0.353 0.02 0.166 0.013 0.312 0.032c1.445 0.174 1.978 0.665 2.174 2.048l0.036 0.3 0.028 0.325 0.02 0.353 0.014 0.383 0.012 0.63 0.004 0.7v0.81l-0.015 0.256-0.025 0.246-0.043 0.303-0.04 0.229-0.053 0.246c-0.01 0.043-0.02 0.086-0.032 0.13l-0.072 0.268a6.973 6.973 0 0 1-0.043 0.138l-0.096 0.283c-0.576 1.58-1.941 3.452-5.18 3.452-21.28 4.255-39.325 14.977-56.595 29.709l-1.361 1.17a243.411 243.411 0 0 0-4.745 4.228l-1.35 1.243c-0.676 0.625-1.35 1.256-2.023 1.893l-1.347 1.28-0.673 0.646-1.345 1.302-1.345 1.316-1.344 1.33-0.672 0.67-6.838-0.003-0.654-0.009-0.585-0.019-0.353-0.02-0.326-0.028-0.3-0.036c-1.335-0.19-1.84-0.693-2.029-2.029l-0.036-0.299-0.028-0.326-0.02-0.353-0.014-0.383-0.012-0.63-0.004-0.701-0.001-0.762c0-2.3 0.945-4.599 2.058-6.51l0.294-0.49 0.149-0.238 0.299-0.46c0.05-0.075 0.1-0.15 0.15-0.222l0.298-0.428 0.148-0.205 0.29-0.391 0.281-0.366 0.27-0.338 0.253-0.309 0.345-0.405 0.378-0.424 0.387-0.411-11.2-11.197v-5.598c-2.231 2.23-4.462 3.572-6.694 4.734l-0.787 0.403-1.876 0.942-0.865 0.444c-2.018 1.056-4.035 2.27-6.053 4.165l-0.525 0.509-1.005-0.002-0.887-0.01-0.397-0.012-0.368-0.017-0.34-0.023-0.312-0.032-0.286-0.04c-1.232-0.206-1.707-0.72-1.89-2.008l-0.036-0.3-0.028-0.325-0.02-0.354-0.014-0.382-0.012-0.63-0.005-0.701v-6.36l16.8-16.796c0.43-0.43 0.862-0.894 1.292-1.384l0.517-0.598 0.517-0.62 0.517-0.64 0.517-0.654 0.775-1.005 2.843-3.77 0.776-1.007 0.517-0.657 0.517-0.642 0.517-0.623c2.498-2.966 4.997-5.195 7.495-5.195 3.3-3.299 8.545-4.654 13.442-5.21l0.886-0.093 0.44-0.04 0.868-0.07 0.854-0.055 0.835-0.043 0.814-0.032 0.79-0.023 1.13-0.021 1.395-0.01 0.946-0.001c0.91-0.304 1.788-0.607 2.635-0.91l1.246-0.453c0.408-0.15 0.809-0.3 1.202-0.45l1.157-0.449c0.19-0.074 0.377-0.149 0.562-0.223l1.094-0.443 1.053-0.439 1.014-0.433 0.976-0.428 0.94-0.422 0.903-0.415 0.87-0.407 1.244-0.594 1.175-0.574 1.111-0.55 2.71-1.35 0.786-0.384 0.753-0.358c2.458-1.152 4.427-1.87 6.38-1.913zM528.8 309.162h0.763l0.919 0.008 0.607 0.015 0.368 0.017 0.34 0.024 0.312 0.032 0.286 0.04c1.232 0.206 1.707 0.72 1.89 2.008l0.036 0.3 0.028 0.325 0.02 0.353 0.014 0.383 0.012 0.63 0.004 0.701v0.809l-0.015 0.257-0.025 0.246-0.043 0.302-0.04 0.229-0.053 0.247c-0.01 0.042-0.02 0.085-0.032 0.129l-0.072 0.268c-0.482 1.645-1.786 3.874-5.319 3.874l-3.175 1.584-1.957 0.971-1.974 0.971-1.33 0.647-2.017 0.971-2.051 0.971-1.39 0.647-1.41 0.648-0.714 0.323-1.444 0.647-0.731 0.324-1.482 0.647-1.51 0.648-0.766 0.323-1.555 0.647-0.79 0.324-1.605 0.647-0.815 0.324-1.659 0.647-1.697 0.648-0.863 0.323-1.759 0.647-0.895 0.324-1.824 0.647c-1.23 0.432-2.492 0.863-3.787 1.295l-1.385 2.064-3.797 5.603-0.581 0.864-0.843 1.268-0.544 0.828-0.529 0.816-0.513 0.806-0.5 0.798-0.243 0.396-0.477 0.787c-0.156 0.262-0.31 0.523-0.461 0.783l-0.447 0.78-0.432 0.778c-0.141 0.26-0.28 0.518-0.417 0.778l-0.402 0.78c-3.486 6.899-5.229 14.164-5.229 26.657l-5.6 5.599-0.175-0.007-0.284-0.024-0.184-0.022-0.208-0.03-0.228-0.042-0.247-0.052-0.262-0.066-0.274-0.08c-1.63-0.513-3.738-1.84-3.738-5.276-4.22-8.438-5.26-13.696-5.516-20.568l-0.031-0.97-0.022-0.993-0.015-1.02-0.012-1.587-0.003-1.1-0.001-1.753a84.846 84.846 0 0 0-4.148 9.745l-0.433 1.233-0.618 1.817-1.005 3.004-0.415 1.215c-1.127 3.26-2.448 6.712-4.581 10.977-1.344 4.031-3.01 7.74-4.767 11.203l-0.59 1.145-0.593 1.128-0.596 1.111-0.597 1.095-0.894 1.613-2.323 4.147-0.83 1.502-0.536 0.988c-0.088 0.164-0.176 0.327-0.262 0.49l-0.511 0.972c-2.509 4.837-4.301 9.316-4.301 13.795l-5.6 5.598-1.452-0.005-0.621-0.011-0.378-0.014-0.35-0.02-0.322-0.026-0.297-0.034c-1.327-0.181-1.846-0.66-2.05-1.93l-0.038-0.284-0.03-0.31-0.023-0.336-0.017-0.363-0.014-0.599-0.008-0.904v-0.762c0-4.98 1.107-11.066 2.83-17.767l0.365-1.395 0.381-1.412 0.398-1.427 0.204-0.719 0.419-1.449 0.214-0.73 0.662-2.206 0.687-2.232 0.709-2.254 0.728-2.273 0.494-1.524 1.005-3.065 1.039-3.136 1.065-3.198c1.05-4.199 2.297-8.2 3.667-11.969l0.46-1.247c0.234-0.62 0.47-1.232 0.708-1.838l0.482-1.203c0.242-0.597 0.487-1.187 0.734-1.77l0.498-1.156c0.167-0.382 0.334-0.76 0.503-1.137l0.508-1.117 0.512-1.098 0.516-1.078 0.259-0.532 0.52-1.047 0.26-0.516 0.524-1.016 0.262-0.5 0.525-0.983 0.524-0.963 0.263-0.473 0.524-0.929 0.262-0.456 0.522-0.895 0.52-0.872 0.518-0.85 0.514-0.825 0.51-0.802 0.505-0.777 0.5-0.753 0.495-0.728 0.488-0.704 0.482-0.678 0.473-0.652 0.466-0.626 0.456-0.6 0.448-0.574 0.437-0.546 0.426-0.52 0.416-0.491 0.403-0.464 0.391-0.436 0.378-0.408 0.184-0.193 0.357-0.365 0.95-0.95 1.282-1.268 0.648-0.632 0.971-0.932c0.216-0.204 0.432-0.407 0.647-0.607l0.648-0.594c3.885-3.52 7.77-6.213 11.654-6.213H484c4.8-2.4 10.629-3.77 17.045-4.995l1.616-0.303 2.467-0.45 4.212-0.764 1.715-0.319 1.731-0.33 0.87-0.172 1.752-0.355c4.1-0.85 8.292-1.864 12.492-3.214l0.9-0.295z m123.2 0h0.763l0.919 0.008 0.607 0.015 0.368 0.017 0.34 0.024 0.312 0.032 0.286 0.04c1.232 0.206 1.707 0.72 1.89 2.008l0.036 0.3 0.028 0.325 0.02 0.353 0.014 0.383 0.012 0.63 0.004 0.701v0.809l-0.015 0.257-0.025 0.246-0.043 0.302-0.04 0.229-0.053 0.247c-0.01 0.042-0.02 0.085-0.032 0.129l-0.072 0.268c-0.482 1.645-1.786 3.874-5.319 3.874-22.12 8.845-30.26 21.184-35.465 37.018l-0.39 1.209-0.19 0.61-0.375 1.229-0.367 1.243-0.358 1.256-0.353 1.27-0.347 1.283-0.342 1.296-0.508 1.97-0.505 2-5.6 5.6-0.24-0.012-0.232-0.02-0.19-0.024-0.328-0.052-0.245-0.05a7.36 7.36 0 0 1-0.129-0.029l-0.269-0.069-0.28-0.084c-1.623-0.525-3.687-1.86-3.687-5.26V368.9l0.007-1.896 0.009-1.305 0.015-1.334 0.022-1.361 0.03-1.385c0.03-1.164 0.07-2.349 0.126-3.548l0.072-1.446c0.482-8.71 1.786-18.003 5.319-25.068 2.52-5.038 7.308-8.943 13.854-12.224l0.883-0.434c0.744-0.359 1.51-0.71 2.297-1.054l0.954-0.41 0.974-0.404 0.992-0.398 0.504-0.197 1.021-0.39 1.04-0.384 1.06-0.38 1.076-0.374 1.094-0.37 0.554-0.184 1.121-0.364 1.138-0.36 1.155-0.358 1.172-0.353 1.188-0.351 1.204-0.348 1.836-0.518 1.243-0.342 1.894-0.51 1.926-0.508 1.96-0.506 2.66-0.672z m218.4 44.787c-2.133 2.132-4.267 3.453-6.09 4.27l-0.45 0.194-0.435 0.174c-0.071 0.028-0.142 0.054-0.212 0.08l-0.412 0.146-0.2 0.067-0.387 0.121-0.37 0.105-0.348 0.091-0.33 0.078-0.452 0.093-0.4 0.07-0.346 0.048-0.286 0.031-0.379 0.027-0.099 0.003h5.596c3.533 0 4.837-2.229 5.319-3.874l0.072-0.268 0.06-0.254 0.046-0.238 0.05-0.32 0.037-0.34 0.012-0.18 0.004-0.124z m28-33.59c-4.752 4.75-8.495 9.5-12.086 14.25l-1.532 2.036-1.529 2.036c-3.573 4.75-7.238 9.5-11.85 14.25l-0.998 1.012 0.443-0.44c0.614-0.605 1.228-1.195 1.84-1.771l0.919-0.855 0.916-0.837 0.912-0.821 0.909-0.807 1.803-1.581 2.66-2.32 0.871-0.767 0.863-0.768 0.853-0.771c0.142-0.13 0.283-0.258 0.423-0.388l0.839-0.779 0.827-0.787c5.202-5.014 9.695-10.631 12.69-19.226l0.227-0.666zM483.405 186.295L484 186l0.176 0.007 0.285 0.024 0.183 0.022 0.208 0.03 0.229 0.042 0.247 0.052c0.042 0.01 0.085 0.02 0.129 0.032l0.268 0.072c1.646 0.481 3.875 1.785 3.875 5.317 1.3 0 2.902-0.301 4.735-0.765l0.863-0.224 0.894-0.245 0.923-0.262 1.438-0.417 2.008-0.586 1.567-0.45 0.532-0.15 1.08-0.296c4.178-1.126 8.76-2.117 13.36-2.198l0.6-0.005 1.464 0.005 0.63 0.012 0.383 0.014 0.353 0.02 0.326 0.028 0.3 0.036c1.335 0.19 1.84 0.693 2.029 2.029l0.036 0.299 0.028 0.326 0.02 0.353 0.014 0.383 0.012 0.63 0.004 0.701v0.809l-0.015 0.257-0.025 0.246-0.043 0.302-0.04 0.229-0.053 0.247c-0.01 0.042-0.02 0.085-0.032 0.129l-0.072 0.268c-0.482 1.645-1.786 3.874-5.319 3.874-29.904 14.947-42.065 25.46-56.222 51.272l-0.958 1.764a325.103 325.103 0 0 0-4.42 8.545l-5.6 5.599-1.009-0.002-0.886-0.01-0.397-0.012-0.368-0.017-0.339-0.024-0.312-0.031c-1.345-0.163-1.9-0.6-2.128-1.775l-0.046-0.274-0.036-0.299-0.028-0.326-0.02-0.353-0.014-0.382-0.012-0.63-0.005-0.701v-0.763c0-11.019 5.424-22.038 10.933-27.72l0.267-0.271-1.005-0.002-0.887-0.01-0.397-0.012-0.368-0.017-0.34-0.023-0.312-0.032-0.286-0.04c-1.232-0.206-1.707-0.72-1.89-2.008l-0.036-0.3-0.028-0.325-0.02-0.354-0.014-0.382-0.012-0.63-0.004-0.701-0.001-0.763c0-11.196 5.6-22.393 11.2-27.991 2.6-2.6 5.2-3.992 8.36-5.298l0.74-0.3 0.761-0.301 3.289-1.263 1.348-0.526 0.464-0.185 0.954-0.386 0.988-0.41 1.023-0.439 1.059-0.469a92.24 92.24 0 0 0 2.82-1.325z" fill="#1677ff" p-id="9030"></path></svg>